%TF.GenerationSoftware,KiCad,Pcbnew,7.0.11-2.fc39*%
%TF.CreationDate,2024-06-07T09:19:16-04:00*%
%TF.ProjectId,OS-44,4f532d34-342e-46b6-9963-61645f706362,rev?*%
%TF.SameCoordinates,Original*%
%TF.FileFunction,Legend,Top*%
%TF.FilePolarity,Positive*%
%FSLAX46Y46*%
G04 Gerber Fmt 4.6, Leading zero omitted, Abs format (unit mm)*
G04 Created by KiCad (PCBNEW 7.0.11-2.fc39) date 2024-06-07 09:19:16*
%MOMM*%
%LPD*%
G01*
G04 APERTURE LIST*
%ADD10C,0.150000*%
%ADD11C,0.125000*%
%ADD12C,0.100000*%
%ADD13C,0.300000*%
%ADD14C,0.075000*%
%ADD15C,0.127000*%
%ADD16C,0.200000*%
%ADD17C,0.152400*%
%ADD18C,0.120000*%
G04 APERTURE END LIST*
D10*
X138430000Y-79756000D02*
X144907000Y-79756000D01*
X144907000Y-82042000D01*
X138430000Y-82042000D01*
X138430000Y-79756000D01*
D11*
X139774236Y-65257976D02*
X139393283Y-65400833D01*
X139393283Y-65400833D02*
X139774236Y-65543690D01*
X140012331Y-65400833D02*
X140393284Y-65400833D01*
X140631379Y-65591309D02*
X140631379Y-65091309D01*
X140631379Y-65091309D02*
X140798046Y-65448452D01*
X140798046Y-65448452D02*
X140964712Y-65091309D01*
X140964712Y-65091309D02*
X140964712Y-65591309D01*
X141298046Y-65091309D02*
X141393284Y-65091309D01*
X141393284Y-65091309D02*
X141440903Y-65115119D01*
X141440903Y-65115119D02*
X141488522Y-65162738D01*
X141488522Y-65162738D02*
X141512332Y-65257976D01*
X141512332Y-65257976D02*
X141512332Y-65424642D01*
X141512332Y-65424642D02*
X141488522Y-65519880D01*
X141488522Y-65519880D02*
X141440903Y-65567500D01*
X141440903Y-65567500D02*
X141393284Y-65591309D01*
X141393284Y-65591309D02*
X141298046Y-65591309D01*
X141298046Y-65591309D02*
X141250427Y-65567500D01*
X141250427Y-65567500D02*
X141202808Y-65519880D01*
X141202808Y-65519880D02*
X141178999Y-65424642D01*
X141178999Y-65424642D02*
X141178999Y-65257976D01*
X141178999Y-65257976D02*
X141202808Y-65162738D01*
X141202808Y-65162738D02*
X141250427Y-65115119D01*
X141250427Y-65115119D02*
X141298046Y-65091309D01*
X141726618Y-65091309D02*
X141726618Y-65496071D01*
X141726618Y-65496071D02*
X141750428Y-65543690D01*
X141750428Y-65543690D02*
X141774237Y-65567500D01*
X141774237Y-65567500D02*
X141821856Y-65591309D01*
X141821856Y-65591309D02*
X141917094Y-65591309D01*
X141917094Y-65591309D02*
X141964713Y-65567500D01*
X141964713Y-65567500D02*
X141988523Y-65543690D01*
X141988523Y-65543690D02*
X142012332Y-65496071D01*
X142012332Y-65496071D02*
X142012332Y-65091309D01*
X142250428Y-65591309D02*
X142250428Y-65091309D01*
X142250428Y-65091309D02*
X142536142Y-65591309D01*
X142536142Y-65591309D02*
X142536142Y-65091309D01*
X142702810Y-65091309D02*
X142988524Y-65091309D01*
X142845667Y-65591309D02*
X142845667Y-65091309D01*
X143155190Y-65400833D02*
X143536143Y-65400833D01*
X143774238Y-65257976D02*
X144155191Y-65400833D01*
X144155191Y-65400833D02*
X143774238Y-65543690D01*
D12*
G36*
X147188159Y-96693207D02*
G01*
X147197360Y-96693571D01*
X147206253Y-96694173D01*
X147214838Y-96695008D01*
X147223117Y-96696072D01*
X147231089Y-96697361D01*
X147238755Y-96698871D01*
X147246115Y-96700597D01*
X147253170Y-96702534D01*
X147259920Y-96704680D01*
X147266366Y-96707028D01*
X147272508Y-96709576D01*
X147278346Y-96712319D01*
X147283881Y-96715252D01*
X147289113Y-96718372D01*
X147294043Y-96721673D01*
X147298671Y-96725153D01*
X147302997Y-96728805D01*
X147307022Y-96732627D01*
X147310747Y-96736614D01*
X147314171Y-96740762D01*
X147317295Y-96745066D01*
X147320120Y-96749522D01*
X147322645Y-96754126D01*
X147324872Y-96758873D01*
X147326801Y-96763759D01*
X147328432Y-96768781D01*
X147329765Y-96773933D01*
X147330802Y-96779212D01*
X147331541Y-96784613D01*
X147331985Y-96790132D01*
X147332133Y-96795764D01*
X147331911Y-96802782D01*
X147331249Y-96809616D01*
X147330153Y-96816257D01*
X147328631Y-96822697D01*
X147326689Y-96828928D01*
X147324333Y-96834942D01*
X147321570Y-96840731D01*
X147318406Y-96846286D01*
X147314849Y-96851600D01*
X147310905Y-96856664D01*
X147306579Y-96861470D01*
X147301880Y-96866010D01*
X147296814Y-96870276D01*
X147291386Y-96874260D01*
X147285604Y-96877953D01*
X147279474Y-96881347D01*
X147283574Y-96882874D01*
X147287573Y-96884505D01*
X147291469Y-96886240D01*
X147295262Y-96888077D01*
X147298948Y-96890018D01*
X147302526Y-96892060D01*
X147305994Y-96894203D01*
X147309350Y-96896447D01*
X147312591Y-96898792D01*
X147315717Y-96901236D01*
X147318724Y-96903779D01*
X147324378Y-96909159D01*
X147329537Y-96914929D01*
X147334184Y-96921084D01*
X147338305Y-96927619D01*
X147341884Y-96934529D01*
X147343466Y-96938124D01*
X147344906Y-96941811D01*
X147346203Y-96945589D01*
X147347354Y-96949458D01*
X147348359Y-96953418D01*
X147349214Y-96957468D01*
X147349918Y-96961607D01*
X147350469Y-96965834D01*
X147350865Y-96970150D01*
X147351104Y-96974554D01*
X147351184Y-96979044D01*
X147351020Y-96985354D01*
X147350528Y-96991494D01*
X147349711Y-96997464D01*
X147348569Y-97003262D01*
X147347103Y-97008884D01*
X147345315Y-97014329D01*
X147343206Y-97019596D01*
X147340777Y-97024681D01*
X147338030Y-97029583D01*
X147334966Y-97034300D01*
X147331586Y-97038829D01*
X147327892Y-97043169D01*
X147323884Y-97047318D01*
X147319563Y-97051273D01*
X147314933Y-97055032D01*
X147309992Y-97058594D01*
X147304744Y-97061956D01*
X147299188Y-97065116D01*
X147293326Y-97068072D01*
X147287161Y-97070822D01*
X147280692Y-97073364D01*
X147273921Y-97075696D01*
X147266849Y-97077816D01*
X147259478Y-97079721D01*
X147251809Y-97081410D01*
X147243843Y-97082880D01*
X147235582Y-97084130D01*
X147227026Y-97085158D01*
X147218177Y-97085960D01*
X147209037Y-97086536D01*
X147199606Y-97086883D01*
X147189886Y-97087000D01*
X146978176Y-97087000D01*
X146978176Y-96926190D01*
X147087890Y-96926190D01*
X147087890Y-97006986D01*
X147180898Y-97006986D01*
X147187831Y-97006832D01*
X147194339Y-97006370D01*
X147200420Y-97005597D01*
X147206070Y-97004513D01*
X147211286Y-97003114D01*
X147216065Y-97001401D01*
X147220404Y-96999370D01*
X147224300Y-96997020D01*
X147227749Y-96994350D01*
X147230748Y-96991358D01*
X147233295Y-96988041D01*
X147235385Y-96984399D01*
X147237017Y-96980430D01*
X147238186Y-96976131D01*
X147238890Y-96971501D01*
X147239125Y-96966539D01*
X147238890Y-96961594D01*
X147238186Y-96956979D01*
X147237017Y-96952694D01*
X147235385Y-96948735D01*
X147233295Y-96945102D01*
X147230748Y-96941794D01*
X147227749Y-96938808D01*
X147224300Y-96936143D01*
X147220404Y-96933797D01*
X147216065Y-96931770D01*
X147211286Y-96930058D01*
X147206070Y-96928661D01*
X147200420Y-96927578D01*
X147194339Y-96926806D01*
X147187831Y-96926344D01*
X147180898Y-96926190D01*
X147087890Y-96926190D01*
X146978176Y-96926190D01*
X146978176Y-96773196D01*
X147087890Y-96773196D01*
X147087890Y-96849400D01*
X147164094Y-96849400D01*
X147170808Y-96849249D01*
X147177102Y-96848796D01*
X147182973Y-96848043D01*
X147188420Y-96846988D01*
X147193441Y-96845634D01*
X147198035Y-96843980D01*
X147202199Y-96842028D01*
X147205933Y-96839777D01*
X147209233Y-96837228D01*
X147212099Y-96834383D01*
X147214529Y-96831241D01*
X147216520Y-96827803D01*
X147218073Y-96824069D01*
X147219183Y-96820041D01*
X147219851Y-96815719D01*
X147220074Y-96811103D01*
X147219851Y-96806572D01*
X147219183Y-96802321D01*
X147218073Y-96798354D01*
X147216520Y-96794670D01*
X147214529Y-96791272D01*
X147212099Y-96788161D01*
X147209233Y-96785339D01*
X147205933Y-96782807D01*
X147202199Y-96780568D01*
X147198035Y-96778621D01*
X147193441Y-96776970D01*
X147188420Y-96775616D01*
X147182973Y-96774560D01*
X147177102Y-96773803D01*
X147170808Y-96773348D01*
X147164094Y-96773196D01*
X147087890Y-96773196D01*
X146978176Y-96773196D01*
X146978176Y-96693085D01*
X147178651Y-96693085D01*
X147188159Y-96693207D01*
G37*
G36*
X147542214Y-96774497D02*
G01*
X147551083Y-96774884D01*
X147559701Y-96775532D01*
X147568064Y-96776443D01*
X147576171Y-96777618D01*
X147584018Y-96779061D01*
X147591603Y-96780772D01*
X147598924Y-96782755D01*
X147605977Y-96785012D01*
X147612759Y-96787543D01*
X147619269Y-96790352D01*
X147625504Y-96793441D01*
X147631460Y-96796812D01*
X147637136Y-96800467D01*
X147642528Y-96804407D01*
X147647633Y-96808636D01*
X147652451Y-96813155D01*
X147656976Y-96817966D01*
X147661208Y-96823072D01*
X147665142Y-96828474D01*
X147668778Y-96834175D01*
X147672111Y-96840177D01*
X147675139Y-96846482D01*
X147677860Y-96853091D01*
X147680271Y-96860008D01*
X147682369Y-96867234D01*
X147684151Y-96874771D01*
X147685616Y-96882622D01*
X147686759Y-96890788D01*
X147687580Y-96899272D01*
X147688074Y-96908076D01*
X147688239Y-96917202D01*
X147688239Y-97087000D01*
X147589174Y-97087000D01*
X147589174Y-97049093D01*
X147587710Y-97051781D01*
X147584517Y-97056910D01*
X147580971Y-97061706D01*
X147577075Y-97066169D01*
X147572830Y-97070298D01*
X147568237Y-97074090D01*
X147563299Y-97077544D01*
X147558018Y-97080660D01*
X147552394Y-97083435D01*
X147546430Y-97085868D01*
X147540128Y-97087958D01*
X147533488Y-97089704D01*
X147526514Y-97091103D01*
X147519206Y-97092154D01*
X147511566Y-97092856D01*
X147507622Y-97093076D01*
X147503596Y-97093208D01*
X147499488Y-97093252D01*
X147492760Y-97093133D01*
X147486223Y-97092780D01*
X147479879Y-97092198D01*
X147473730Y-97091392D01*
X147467776Y-97090368D01*
X147462020Y-97089129D01*
X147456462Y-97087682D01*
X147451105Y-97086032D01*
X147445949Y-97084183D01*
X147440997Y-97082141D01*
X147436249Y-97079911D01*
X147431707Y-97077497D01*
X147427372Y-97074906D01*
X147423246Y-97072142D01*
X147419331Y-97069211D01*
X147415627Y-97066117D01*
X147412137Y-97062865D01*
X147408861Y-97059461D01*
X147405802Y-97055910D01*
X147402960Y-97052217D01*
X147400337Y-97048387D01*
X147397934Y-97044426D01*
X147395754Y-97040337D01*
X147393796Y-97036127D01*
X147392064Y-97031800D01*
X147390558Y-97027362D01*
X147389280Y-97022818D01*
X147388231Y-97018172D01*
X147387412Y-97013431D01*
X147386826Y-97008598D01*
X147386473Y-97003680D01*
X147386355Y-96998681D01*
X147386459Y-96994090D01*
X147489425Y-96994090D01*
X147489806Y-96999169D01*
X147490935Y-97003940D01*
X147492793Y-97008359D01*
X147495360Y-97012386D01*
X147498618Y-97015979D01*
X147502547Y-97019096D01*
X147507128Y-97021696D01*
X147512341Y-97023738D01*
X147516159Y-97024768D01*
X147520243Y-97025519D01*
X147524588Y-97025978D01*
X147529188Y-97026134D01*
X147533567Y-97025996D01*
X147537866Y-97025582D01*
X147542071Y-97024887D01*
X147546167Y-97023912D01*
X147550142Y-97022652D01*
X147553981Y-97021106D01*
X147557670Y-97019271D01*
X147561196Y-97017146D01*
X147564544Y-97014728D01*
X147567701Y-97012014D01*
X147570653Y-97009002D01*
X147573385Y-97005691D01*
X147575885Y-97002077D01*
X147578137Y-96998159D01*
X147580129Y-96993934D01*
X147581847Y-96989400D01*
X147581847Y-96961947D01*
X147535929Y-96961947D01*
X147532787Y-96961985D01*
X147526881Y-96962282D01*
X147521467Y-96962867D01*
X147516531Y-96963730D01*
X147512058Y-96964862D01*
X147508035Y-96966253D01*
X147502814Y-96968804D01*
X147498526Y-96971885D01*
X147495123Y-96975462D01*
X147492559Y-96979503D01*
X147490787Y-96983976D01*
X147489758Y-96988849D01*
X147489425Y-96994090D01*
X147386459Y-96994090D01*
X147386475Y-96993363D01*
X147386837Y-96988180D01*
X147387444Y-96983135D01*
X147388297Y-96978229D01*
X147389399Y-96973466D01*
X147390753Y-96968847D01*
X147392359Y-96964375D01*
X147394221Y-96960051D01*
X147396340Y-96955878D01*
X147398720Y-96951858D01*
X147401362Y-96947994D01*
X147404268Y-96944286D01*
X147407441Y-96940739D01*
X147410883Y-96937353D01*
X147414596Y-96934131D01*
X147418583Y-96931075D01*
X147422845Y-96928187D01*
X147427385Y-96925470D01*
X147432205Y-96922926D01*
X147437307Y-96920556D01*
X147442694Y-96918363D01*
X147448368Y-96916350D01*
X147454331Y-96914518D01*
X147460585Y-96912870D01*
X147467132Y-96911407D01*
X147473976Y-96910132D01*
X147481117Y-96909048D01*
X147488559Y-96908155D01*
X147496303Y-96907458D01*
X147504352Y-96906956D01*
X147512707Y-96906654D01*
X147521372Y-96906553D01*
X147581847Y-96906553D01*
X147581311Y-96900620D01*
X147580326Y-96895025D01*
X147578888Y-96889775D01*
X147576994Y-96884875D01*
X147574640Y-96880331D01*
X147571823Y-96876151D01*
X147568539Y-96872339D01*
X147564786Y-96868903D01*
X147560561Y-96865848D01*
X147555859Y-96863180D01*
X147550677Y-96860905D01*
X147545013Y-96859031D01*
X147538863Y-96857562D01*
X147532224Y-96856505D01*
X147525092Y-96855867D01*
X147517464Y-96855653D01*
X147511969Y-96855776D01*
X147506416Y-96856144D01*
X147500828Y-96856749D01*
X147495226Y-96857585D01*
X147489633Y-96858647D01*
X147484072Y-96859929D01*
X147478565Y-96861424D01*
X147473134Y-96863127D01*
X147467802Y-96865031D01*
X147462590Y-96867130D01*
X147457521Y-96869419D01*
X147452618Y-96871892D01*
X147447902Y-96874542D01*
X147443397Y-96877363D01*
X147439124Y-96880350D01*
X147435106Y-96883496D01*
X147399251Y-96809735D01*
X147402560Y-96807614D01*
X147405963Y-96805554D01*
X147409456Y-96803558D01*
X147413036Y-96801624D01*
X147416699Y-96799753D01*
X147420441Y-96797946D01*
X147424258Y-96796202D01*
X147428146Y-96794523D01*
X147432102Y-96792909D01*
X147436122Y-96791359D01*
X147440203Y-96789874D01*
X147444339Y-96788456D01*
X147448528Y-96787103D01*
X147452766Y-96785816D01*
X147457050Y-96784596D01*
X147461374Y-96783442D01*
X147465736Y-96782356D01*
X147470131Y-96781338D01*
X147474557Y-96780387D01*
X147479008Y-96779505D01*
X147483482Y-96778692D01*
X147487975Y-96777947D01*
X147492483Y-96777272D01*
X147497001Y-96776666D01*
X147501527Y-96776130D01*
X147506057Y-96775665D01*
X147510586Y-96775270D01*
X147515111Y-96774947D01*
X147519628Y-96774694D01*
X147524134Y-96774514D01*
X147528624Y-96774405D01*
X147533096Y-96774369D01*
X147542214Y-96774497D01*
G37*
G36*
X147897065Y-96774527D02*
G01*
X147904604Y-96775004D01*
X147911915Y-96775801D01*
X147918993Y-96776921D01*
X147925836Y-96778366D01*
X147932439Y-96780139D01*
X147938799Y-96782241D01*
X147944914Y-96784676D01*
X147950778Y-96787444D01*
X147956390Y-96790550D01*
X147961745Y-96793994D01*
X147966841Y-96797779D01*
X147971673Y-96801908D01*
X147976238Y-96806383D01*
X147980533Y-96811205D01*
X147984554Y-96816378D01*
X147984554Y-96780621D01*
X148085866Y-96780621D01*
X148085866Y-97028479D01*
X148085676Y-97039241D01*
X148085109Y-97049640D01*
X148084167Y-97059675D01*
X148082854Y-97069349D01*
X148081172Y-97078663D01*
X148079125Y-97087619D01*
X148076716Y-97096218D01*
X148073947Y-97104461D01*
X148070823Y-97112351D01*
X148067345Y-97119888D01*
X148063518Y-97127074D01*
X148059344Y-97133911D01*
X148054826Y-97140400D01*
X148049967Y-97146542D01*
X148044771Y-97152340D01*
X148039240Y-97157793D01*
X148033378Y-97162905D01*
X148027188Y-97167676D01*
X148020672Y-97172108D01*
X148013834Y-97176203D01*
X148006676Y-97179961D01*
X147999203Y-97183385D01*
X147991417Y-97186476D01*
X147983321Y-97189235D01*
X147974918Y-97191664D01*
X147966211Y-97193764D01*
X147957204Y-97195537D01*
X147947899Y-97196985D01*
X147938299Y-97198108D01*
X147928408Y-97198908D01*
X147918229Y-97199387D01*
X147907764Y-97199547D01*
X147902314Y-97199507D01*
X147896884Y-97199390D01*
X147891475Y-97199194D01*
X147886092Y-97198920D01*
X147880737Y-97198568D01*
X147875413Y-97198138D01*
X147870122Y-97197629D01*
X147864868Y-97197043D01*
X147859653Y-97196379D01*
X147854480Y-97195637D01*
X147849353Y-97194818D01*
X147844273Y-97193921D01*
X147839244Y-97192946D01*
X147834268Y-97191894D01*
X147829349Y-97190764D01*
X147824490Y-97189557D01*
X147819692Y-97188273D01*
X147814959Y-97186911D01*
X147810295Y-97185473D01*
X147805700Y-97183957D01*
X147801180Y-97182364D01*
X147796735Y-97180695D01*
X147792370Y-97178948D01*
X147788087Y-97177125D01*
X147783889Y-97175225D01*
X147779778Y-97173249D01*
X147775758Y-97171195D01*
X147771831Y-97169066D01*
X147768001Y-97166860D01*
X147764269Y-97164577D01*
X147760640Y-97162219D01*
X147757115Y-97159784D01*
X147795803Y-97084069D01*
X147800714Y-97087894D01*
X147805973Y-97091524D01*
X147811549Y-97094952D01*
X147817408Y-97098171D01*
X147823520Y-97101173D01*
X147829853Y-97103952D01*
X147836374Y-97106500D01*
X147843052Y-97108810D01*
X147849855Y-97110876D01*
X147856751Y-97112689D01*
X147863707Y-97114243D01*
X147870693Y-97115530D01*
X147877676Y-97116544D01*
X147884624Y-97117277D01*
X147891505Y-97117722D01*
X147898288Y-97117872D01*
X147903549Y-97117793D01*
X147908618Y-97117558D01*
X147913496Y-97117168D01*
X147918185Y-97116623D01*
X147922687Y-97115924D01*
X147927003Y-97115073D01*
X147931135Y-97114070D01*
X147935084Y-97112917D01*
X147942443Y-97110162D01*
X147949092Y-97106816D01*
X147955044Y-97102886D01*
X147960313Y-97098381D01*
X147964913Y-97093308D01*
X147968856Y-97087675D01*
X147972156Y-97081490D01*
X147974826Y-97074760D01*
X147976879Y-97067493D01*
X147977679Y-97063660D01*
X147978330Y-97059697D01*
X147978833Y-97055602D01*
X147979190Y-97051379D01*
X147979403Y-97047027D01*
X147979474Y-97042547D01*
X147979474Y-97032484D01*
X147975473Y-97036847D01*
X147971240Y-97040921D01*
X147966777Y-97044709D01*
X147962087Y-97048211D01*
X147957174Y-97051427D01*
X147952041Y-97054360D01*
X147946692Y-97057009D01*
X147941128Y-97059376D01*
X147935354Y-97061461D01*
X147929372Y-97063265D01*
X147923186Y-97064789D01*
X147916798Y-97066034D01*
X147910213Y-97067001D01*
X147903432Y-97067691D01*
X147896460Y-97068104D01*
X147889300Y-97068242D01*
X147881781Y-97068075D01*
X147874344Y-97067579D01*
X147866999Y-97066757D01*
X147859757Y-97065614D01*
X147852627Y-97064154D01*
X147845620Y-97062383D01*
X147838747Y-97060303D01*
X147832017Y-97057919D01*
X147825441Y-97055237D01*
X147819029Y-97052260D01*
X147812792Y-97048992D01*
X147806739Y-97045439D01*
X147800881Y-97041604D01*
X147795229Y-97037492D01*
X147789792Y-97033107D01*
X147784580Y-97028454D01*
X147779605Y-97023538D01*
X147774877Y-97018361D01*
X147770405Y-97012930D01*
X147766200Y-97007248D01*
X147762273Y-97001319D01*
X147758633Y-96995149D01*
X147755290Y-96988741D01*
X147752256Y-96982100D01*
X147749541Y-96975231D01*
X147747154Y-96968137D01*
X147745106Y-96960823D01*
X147743407Y-96953294D01*
X147742068Y-96945553D01*
X147741099Y-96937606D01*
X147740510Y-96929457D01*
X147740311Y-96921110D01*
X147847876Y-96921110D01*
X147848206Y-96927947D01*
X147849176Y-96934488D01*
X147850760Y-96940711D01*
X147852929Y-96946598D01*
X147855655Y-96952128D01*
X147858912Y-96957282D01*
X147862670Y-96962039D01*
X147866903Y-96966380D01*
X147871582Y-96970285D01*
X147876679Y-96973734D01*
X147882168Y-96976706D01*
X147888020Y-96979183D01*
X147894208Y-96981144D01*
X147900703Y-96982569D01*
X147907478Y-96983439D01*
X147914505Y-96983734D01*
X147921526Y-96983439D01*
X147928283Y-96982569D01*
X147934749Y-96981144D01*
X147940899Y-96979183D01*
X147946707Y-96976706D01*
X147952146Y-96973734D01*
X147957191Y-96970285D01*
X147961815Y-96966380D01*
X147965993Y-96962039D01*
X147969699Y-96957282D01*
X147972905Y-96952128D01*
X147975588Y-96946598D01*
X147977719Y-96940711D01*
X147979274Y-96934488D01*
X147980226Y-96927947D01*
X147980549Y-96921110D01*
X147980226Y-96914262D01*
X147979274Y-96907725D01*
X147977719Y-96901517D01*
X147975588Y-96895657D01*
X147972905Y-96890161D01*
X147969699Y-96885049D01*
X147965993Y-96880338D01*
X147961815Y-96876047D01*
X147957191Y-96872193D01*
X147952146Y-96868794D01*
X147946707Y-96865869D01*
X147940899Y-96863435D01*
X147934749Y-96861510D01*
X147928283Y-96860114D01*
X147921526Y-96859262D01*
X147914505Y-96858974D01*
X147907478Y-96859262D01*
X147900703Y-96860114D01*
X147894208Y-96861510D01*
X147888020Y-96863435D01*
X147882168Y-96865869D01*
X147876679Y-96868794D01*
X147871582Y-96872193D01*
X147866903Y-96876047D01*
X147862670Y-96880338D01*
X147858912Y-96885049D01*
X147855655Y-96890161D01*
X147852929Y-96895657D01*
X147850760Y-96901517D01*
X147849176Y-96907725D01*
X147848206Y-96914262D01*
X147847876Y-96921110D01*
X147740311Y-96921110D01*
X147740510Y-96912807D01*
X147741099Y-96904698D01*
X147742068Y-96896789D01*
X147743407Y-96889083D01*
X147745106Y-96881585D01*
X147747154Y-96874300D01*
X147749541Y-96867232D01*
X147752256Y-96860386D01*
X147755290Y-96853767D01*
X147758633Y-96847378D01*
X147762273Y-96841224D01*
X147766200Y-96835310D01*
X147770405Y-96829641D01*
X147774877Y-96824220D01*
X147779605Y-96819053D01*
X147784580Y-96814144D01*
X147789792Y-96809497D01*
X147795229Y-96805117D01*
X147800881Y-96801009D01*
X147806739Y-96797177D01*
X147812792Y-96793625D01*
X147819029Y-96790358D01*
X147825441Y-96787381D01*
X147832017Y-96784699D01*
X147838747Y-96782314D01*
X147845620Y-96780234D01*
X147852627Y-96778460D01*
X147859757Y-96776999D01*
X147866999Y-96775855D01*
X147874344Y-96775032D01*
X147881781Y-96774535D01*
X147889300Y-96774369D01*
X147897065Y-96774527D01*
G37*
G36*
X148366843Y-96929512D02*
G01*
X148366769Y-96934294D01*
X148366547Y-96938898D01*
X148366182Y-96943324D01*
X148365678Y-96947574D01*
X148365038Y-96951651D01*
X148364265Y-96955556D01*
X148362338Y-96962857D01*
X148359927Y-96969492D01*
X148357060Y-96975474D01*
X148353766Y-96980819D01*
X148350076Y-96985541D01*
X148346018Y-96989654D01*
X148341622Y-96993171D01*
X148336917Y-96996109D01*
X148331933Y-96998480D01*
X148326699Y-97000299D01*
X148321244Y-97001581D01*
X148315597Y-97002339D01*
X148309788Y-97002589D01*
X148303957Y-97002366D01*
X148298450Y-97001685D01*
X148293273Y-97000534D01*
X148288434Y-96998895D01*
X148283940Y-96996755D01*
X148279798Y-96994099D01*
X148276017Y-96990911D01*
X148272602Y-96987177D01*
X148269562Y-96982883D01*
X148266903Y-96978012D01*
X148264634Y-96972551D01*
X148262761Y-96966484D01*
X148261291Y-96959796D01*
X148260232Y-96952474D01*
X148259859Y-96948569D01*
X148259591Y-96944500D01*
X148259430Y-96940265D01*
X148259376Y-96935862D01*
X148259376Y-96780621D01*
X148152984Y-96780621D01*
X148152984Y-96953545D01*
X148153142Y-96962499D01*
X148153612Y-96971134D01*
X148154388Y-96979453D01*
X148155464Y-96987458D01*
X148156832Y-96995151D01*
X148158488Y-97002535D01*
X148160424Y-97009612D01*
X148162635Y-97016384D01*
X148165114Y-97022854D01*
X148167855Y-97029023D01*
X148170851Y-97034893D01*
X148174097Y-97040468D01*
X148177586Y-97045749D01*
X148181312Y-97050738D01*
X148185269Y-97055439D01*
X148189450Y-97059852D01*
X148193849Y-97063980D01*
X148198460Y-97067826D01*
X148203276Y-97071392D01*
X148208292Y-97074679D01*
X148213501Y-97077691D01*
X148218896Y-97080429D01*
X148224472Y-97082895D01*
X148230223Y-97085093D01*
X148236141Y-97087023D01*
X148242222Y-97088689D01*
X148248457Y-97090093D01*
X148254842Y-97091236D01*
X148261370Y-97092121D01*
X148268035Y-97092751D01*
X148274830Y-97093127D01*
X148281749Y-97093252D01*
X148288241Y-97093108D01*
X148294668Y-97092674D01*
X148301019Y-97091950D01*
X148307283Y-97090935D01*
X148313451Y-97089628D01*
X148319511Y-97088028D01*
X148325454Y-97086134D01*
X148331269Y-97083946D01*
X148336946Y-97081463D01*
X148342473Y-97078683D01*
X148347841Y-97075607D01*
X148353039Y-97072232D01*
X148358057Y-97068558D01*
X148362884Y-97064585D01*
X148367509Y-97060312D01*
X148371923Y-97055736D01*
X148371923Y-97087000D01*
X148473333Y-97087000D01*
X148473333Y-96780621D01*
X148366843Y-96780621D01*
X148366843Y-96929512D01*
G37*
G36*
X148697592Y-96774536D02*
G01*
X148705831Y-96775036D01*
X148713951Y-96775867D01*
X148721942Y-96777027D01*
X148729794Y-96778515D01*
X148737496Y-96780328D01*
X148745038Y-96782464D01*
X148752410Y-96784921D01*
X148759601Y-96787699D01*
X148766601Y-96790794D01*
X148773401Y-96794204D01*
X148779989Y-96797929D01*
X148786356Y-96801965D01*
X148792491Y-96806311D01*
X148798385Y-96810966D01*
X148804026Y-96815927D01*
X148809404Y-96821191D01*
X148814510Y-96826759D01*
X148819333Y-96832626D01*
X148823863Y-96838792D01*
X148828089Y-96845255D01*
X148832001Y-96852013D01*
X148835590Y-96859063D01*
X148838844Y-96866404D01*
X148841754Y-96874034D01*
X148844309Y-96881951D01*
X148846499Y-96890153D01*
X148848314Y-96898638D01*
X148849743Y-96907405D01*
X148850777Y-96916451D01*
X148851405Y-96925775D01*
X148851616Y-96935374D01*
X148851603Y-96936882D01*
X148851468Y-96940835D01*
X148851220Y-96944982D01*
X148850902Y-96949234D01*
X148850557Y-96953505D01*
X148850228Y-96957706D01*
X148849956Y-96961752D01*
X148629258Y-96961752D01*
X148631145Y-96967565D01*
X148633430Y-96973058D01*
X148636109Y-96978222D01*
X148639174Y-96983050D01*
X148642619Y-96987534D01*
X148646438Y-96991668D01*
X148650624Y-96995443D01*
X148655172Y-96998852D01*
X148660074Y-97001888D01*
X148665325Y-97004544D01*
X148670919Y-97006811D01*
X148676848Y-97008683D01*
X148683108Y-97010152D01*
X148689690Y-97011210D01*
X148696590Y-97011851D01*
X148703801Y-97012066D01*
X148709237Y-97011964D01*
X148714456Y-97011656D01*
X148719474Y-97011142D01*
X148724306Y-97010419D01*
X148728970Y-97009486D01*
X148733481Y-97008341D01*
X148737856Y-97006983D01*
X148742110Y-97005410D01*
X148746260Y-97003621D01*
X148750322Y-97001614D01*
X148754312Y-96999387D01*
X148758247Y-96996940D01*
X148762142Y-96994269D01*
X148766014Y-96991374D01*
X148769878Y-96988254D01*
X148773752Y-96984906D01*
X148829732Y-97044013D01*
X148826964Y-97047016D01*
X148824116Y-97049927D01*
X148821190Y-97052745D01*
X148818184Y-97055469D01*
X148815098Y-97058100D01*
X148811932Y-97060638D01*
X148808685Y-97063081D01*
X148805358Y-97065431D01*
X148801950Y-97067687D01*
X148798460Y-97069849D01*
X148794889Y-97071916D01*
X148791235Y-97073889D01*
X148787498Y-97075767D01*
X148783679Y-97077551D01*
X148779777Y-97079239D01*
X148775791Y-97080832D01*
X148771721Y-97082330D01*
X148767568Y-97083733D01*
X148763329Y-97085040D01*
X148759006Y-97086251D01*
X148754597Y-97087366D01*
X148750103Y-97088385D01*
X148745523Y-97089307D01*
X148740857Y-97090133D01*
X148736104Y-97090863D01*
X148731264Y-97091496D01*
X148726337Y-97092032D01*
X148721323Y-97092471D01*
X148716220Y-97092812D01*
X148711029Y-97093057D01*
X148705750Y-97093203D01*
X148700381Y-97093252D01*
X148690364Y-97093058D01*
X148680574Y-97092481D01*
X148671020Y-97091529D01*
X148661705Y-97090209D01*
X148652637Y-97088528D01*
X148643821Y-97086495D01*
X148635263Y-97084116D01*
X148626968Y-97081399D01*
X148618943Y-97078351D01*
X148611193Y-97074981D01*
X148603725Y-97071295D01*
X148596544Y-97067302D01*
X148589657Y-97063007D01*
X148583068Y-97058420D01*
X148576784Y-97053548D01*
X148570810Y-97048397D01*
X148565154Y-97042976D01*
X148559819Y-97037292D01*
X148554813Y-97031352D01*
X148550141Y-97025165D01*
X148545809Y-97018737D01*
X148541824Y-97012076D01*
X148538189Y-97005189D01*
X148534913Y-96998084D01*
X148532000Y-96990769D01*
X148529456Y-96983251D01*
X148527288Y-96975538D01*
X148525500Y-96967636D01*
X148524100Y-96959554D01*
X148523092Y-96951298D01*
X148522484Y-96942878D01*
X148522279Y-96934299D01*
X148522486Y-96925485D01*
X148523101Y-96916854D01*
X148524116Y-96908411D01*
X148524583Y-96905674D01*
X148627597Y-96905674D01*
X148751965Y-96905674D01*
X148750695Y-96899429D01*
X148749019Y-96893491D01*
X148746948Y-96887873D01*
X148744495Y-96882588D01*
X148741672Y-96877649D01*
X148738491Y-96873070D01*
X148734965Y-96868864D01*
X148731107Y-96865044D01*
X148726928Y-96861623D01*
X148722441Y-96858616D01*
X148717657Y-96856034D01*
X148712590Y-96853893D01*
X148707252Y-96852204D01*
X148701655Y-96850981D01*
X148695811Y-96850237D01*
X148689732Y-96849986D01*
X148683660Y-96850237D01*
X148677834Y-96850981D01*
X148672263Y-96852204D01*
X148666958Y-96853893D01*
X148661928Y-96856034D01*
X148657184Y-96858616D01*
X148652734Y-96861623D01*
X148648590Y-96865044D01*
X148644760Y-96868864D01*
X148641255Y-96873070D01*
X148638084Y-96877649D01*
X148635258Y-96882588D01*
X148632787Y-96887873D01*
X148630679Y-96893491D01*
X148628946Y-96899429D01*
X148627597Y-96905674D01*
X148524583Y-96905674D01*
X148525523Y-96900162D01*
X148527312Y-96892116D01*
X148529475Y-96884277D01*
X148532004Y-96876652D01*
X148534890Y-96869248D01*
X148538125Y-96862071D01*
X148541700Y-96855127D01*
X148545607Y-96848423D01*
X148549837Y-96841965D01*
X148554382Y-96835759D01*
X148559234Y-96829813D01*
X148564383Y-96824132D01*
X148569821Y-96818723D01*
X148575540Y-96813592D01*
X148581532Y-96808746D01*
X148587787Y-96804191D01*
X148594298Y-96799933D01*
X148601055Y-96795979D01*
X148608051Y-96792335D01*
X148615276Y-96789008D01*
X148622723Y-96786004D01*
X148630382Y-96783329D01*
X148638246Y-96780990D01*
X148646306Y-96778994D01*
X148654553Y-96777346D01*
X148662978Y-96776053D01*
X148671575Y-96775121D01*
X148680332Y-96774558D01*
X148689244Y-96774369D01*
X148697592Y-96774536D01*
G37*
G36*
X149084038Y-97001417D02*
G01*
X149080544Y-97003595D01*
X149076825Y-97005509D01*
X149072911Y-97007151D01*
X149068834Y-97008512D01*
X149064623Y-97009585D01*
X149060311Y-97010361D01*
X149055928Y-97010832D01*
X149051505Y-97010991D01*
X149046314Y-97010666D01*
X149041482Y-97009697D01*
X149037041Y-97008097D01*
X149033025Y-97005875D01*
X149029466Y-97003044D01*
X149026398Y-96999614D01*
X149023855Y-96995596D01*
X149021870Y-96991001D01*
X149020477Y-96985842D01*
X149019707Y-96980127D01*
X149019558Y-96976016D01*
X149019558Y-96874411D01*
X149089020Y-96874411D01*
X149089020Y-96794885D01*
X149019558Y-96794885D01*
X149019558Y-96715946D01*
X148913166Y-96715946D01*
X148913166Y-96794885D01*
X148868909Y-96794885D01*
X148868909Y-96874411D01*
X148913166Y-96874411D01*
X148913166Y-96977090D01*
X148913298Y-96984300D01*
X148913695Y-96991275D01*
X148914353Y-96998015D01*
X148915270Y-97004521D01*
X148916443Y-97010794D01*
X148917871Y-97016833D01*
X148919550Y-97022639D01*
X148921479Y-97028213D01*
X148923655Y-97033555D01*
X148926075Y-97038665D01*
X148928738Y-97043544D01*
X148931641Y-97048191D01*
X148934781Y-97052608D01*
X148938156Y-97056795D01*
X148941763Y-97060752D01*
X148945601Y-97064480D01*
X148949667Y-97067979D01*
X148953958Y-97071249D01*
X148958472Y-97074291D01*
X148963207Y-97077106D01*
X148968160Y-97079693D01*
X148973329Y-97082052D01*
X148978711Y-97084186D01*
X148984304Y-97086093D01*
X148990106Y-97087774D01*
X148996115Y-97089230D01*
X149002327Y-97090460D01*
X149008740Y-97091466D01*
X149015353Y-97092248D01*
X149022163Y-97092806D01*
X149029166Y-97093141D01*
X149036362Y-97093252D01*
X149041610Y-97093187D01*
X149046832Y-97092990D01*
X149052016Y-97092661D01*
X149057150Y-97092199D01*
X149062220Y-97091603D01*
X149067215Y-97090872D01*
X149072123Y-97090005D01*
X149076930Y-97089002D01*
X149081626Y-97087862D01*
X149086197Y-97086583D01*
X149090631Y-97085165D01*
X149094916Y-97083608D01*
X149099039Y-97081909D01*
X149102989Y-97080069D01*
X149106753Y-97078086D01*
X149110318Y-97075960D01*
X149084038Y-97001417D01*
G37*
G36*
X149327890Y-97001417D02*
G01*
X149324396Y-97003595D01*
X149320677Y-97005509D01*
X149316763Y-97007151D01*
X149312686Y-97008512D01*
X149308475Y-97009585D01*
X149304163Y-97010361D01*
X149299780Y-97010832D01*
X149295357Y-97010991D01*
X149290167Y-97010666D01*
X149285334Y-97009697D01*
X149280893Y-97008097D01*
X149276877Y-97005875D01*
X149273318Y-97003044D01*
X149270250Y-96999614D01*
X149267708Y-96995596D01*
X149265723Y-96991001D01*
X149264329Y-96985842D01*
X149263559Y-96980127D01*
X149263410Y-96976016D01*
X149263410Y-96874411D01*
X149332872Y-96874411D01*
X149332872Y-96794885D01*
X149263410Y-96794885D01*
X149263410Y-96715946D01*
X149157018Y-96715946D01*
X149157018Y-96794885D01*
X149112761Y-96794885D01*
X149112761Y-96874411D01*
X149157018Y-96874411D01*
X149157018Y-96977090D01*
X149157150Y-96984300D01*
X149157547Y-96991275D01*
X149158205Y-96998015D01*
X149159122Y-97004521D01*
X149160295Y-97010794D01*
X149161723Y-97016833D01*
X149163402Y-97022639D01*
X149165331Y-97028213D01*
X149167507Y-97033555D01*
X149169927Y-97038665D01*
X149172590Y-97043544D01*
X149175493Y-97048191D01*
X149178633Y-97052608D01*
X149182008Y-97056795D01*
X149185615Y-97060752D01*
X149189453Y-97064480D01*
X149193519Y-97067979D01*
X149197810Y-97071249D01*
X149202324Y-97074291D01*
X149207059Y-97077106D01*
X149212012Y-97079693D01*
X149217181Y-97082052D01*
X149222563Y-97084186D01*
X149228156Y-97086093D01*
X149233958Y-97087774D01*
X149239967Y-97089230D01*
X149246179Y-97090460D01*
X149252593Y-97091466D01*
X149259205Y-97092248D01*
X149266015Y-97092806D01*
X149273018Y-97093141D01*
X149280214Y-97093252D01*
X149285462Y-97093187D01*
X149290685Y-97092990D01*
X149295869Y-97092661D01*
X149301002Y-97092199D01*
X149306072Y-97091603D01*
X149311067Y-97090872D01*
X149315975Y-97090005D01*
X149320782Y-97089002D01*
X149325478Y-97087862D01*
X149330049Y-97086583D01*
X149334483Y-97085165D01*
X149338768Y-97083608D01*
X149342891Y-97081909D01*
X149346841Y-97080069D01*
X149350605Y-97078086D01*
X149354170Y-97075960D01*
X149327890Y-97001417D01*
G37*
G36*
X149542086Y-96774536D02*
G01*
X149550325Y-96775036D01*
X149558445Y-96775867D01*
X149566436Y-96777027D01*
X149574288Y-96778515D01*
X149581990Y-96780328D01*
X149589532Y-96782464D01*
X149596904Y-96784921D01*
X149604095Y-96787699D01*
X149611095Y-96790794D01*
X149617895Y-96794204D01*
X149624483Y-96797929D01*
X149630850Y-96801965D01*
X149636985Y-96806311D01*
X149642879Y-96810966D01*
X149648520Y-96815927D01*
X149653898Y-96821191D01*
X149659004Y-96826759D01*
X149663827Y-96832626D01*
X149668357Y-96838792D01*
X149672583Y-96845255D01*
X149676495Y-96852013D01*
X149680084Y-96859063D01*
X149683338Y-96866404D01*
X149686248Y-96874034D01*
X149688803Y-96881951D01*
X149690993Y-96890153D01*
X149692808Y-96898638D01*
X149694237Y-96907405D01*
X149695271Y-96916451D01*
X149695899Y-96925775D01*
X149696110Y-96935374D01*
X149696097Y-96936882D01*
X149695962Y-96940835D01*
X149695714Y-96944982D01*
X149695396Y-96949234D01*
X149695051Y-96953505D01*
X149694722Y-96957706D01*
X149694450Y-96961752D01*
X149473752Y-96961752D01*
X149475639Y-96967565D01*
X149477925Y-96973058D01*
X149480603Y-96978222D01*
X149483668Y-96983050D01*
X149487113Y-96987534D01*
X149490932Y-96991668D01*
X149495118Y-96995443D01*
X149499666Y-96998852D01*
X149504568Y-97001888D01*
X149509820Y-97004544D01*
X149515413Y-97006811D01*
X149521342Y-97008683D01*
X149527602Y-97010152D01*
X149534184Y-97011210D01*
X149541084Y-97011851D01*
X149548295Y-97012066D01*
X149553731Y-97011964D01*
X149558950Y-97011656D01*
X149563968Y-97011142D01*
X149568800Y-97010419D01*
X149573464Y-97009486D01*
X149577975Y-97008341D01*
X149582350Y-97006983D01*
X149586604Y-97005410D01*
X149590754Y-97003621D01*
X149594816Y-97001614D01*
X149598806Y-96999387D01*
X149602741Y-96996940D01*
X149606636Y-96994269D01*
X149610508Y-96991374D01*
X149614372Y-96988254D01*
X149618246Y-96984906D01*
X149674226Y-97044013D01*
X149671458Y-97047016D01*
X149668610Y-97049927D01*
X149665684Y-97052745D01*
X149662678Y-97055469D01*
X149659592Y-97058100D01*
X149656426Y-97060638D01*
X149653180Y-97063081D01*
X149649852Y-97065431D01*
X149646444Y-97067687D01*
X149642954Y-97069849D01*
X149639383Y-97071916D01*
X149635729Y-97073889D01*
X149631993Y-97075767D01*
X149628173Y-97077551D01*
X149624271Y-97079239D01*
X149620285Y-97080832D01*
X149616216Y-97082330D01*
X149612062Y-97083733D01*
X149607823Y-97085040D01*
X149603500Y-97086251D01*
X149599091Y-97087366D01*
X149594597Y-97088385D01*
X149590017Y-97089307D01*
X149585351Y-97090133D01*
X149580598Y-97090863D01*
X149575758Y-97091496D01*
X149570831Y-97092032D01*
X149565817Y-97092471D01*
X149560714Y-97092812D01*
X149555523Y-97093057D01*
X149550244Y-97093203D01*
X149544875Y-97093252D01*
X149534858Y-97093058D01*
X149525069Y-97092481D01*
X149515514Y-97091529D01*
X149506199Y-97090209D01*
X149497131Y-97088528D01*
X149488315Y-97086495D01*
X149479757Y-97084116D01*
X149471462Y-97081399D01*
X149463437Y-97078351D01*
X149455688Y-97074981D01*
X149448219Y-97071295D01*
X149441038Y-97067302D01*
X149434151Y-97063007D01*
X149427562Y-97058420D01*
X149421278Y-97053548D01*
X149415304Y-97048397D01*
X149409648Y-97042976D01*
X149404313Y-97037292D01*
X149399307Y-97031352D01*
X149394635Y-97025165D01*
X149390304Y-97018737D01*
X149386318Y-97012076D01*
X149382683Y-97005189D01*
X149379407Y-96998084D01*
X149376494Y-96990769D01*
X149373950Y-96983251D01*
X149371782Y-96975538D01*
X149369994Y-96967636D01*
X149368594Y-96959554D01*
X149367586Y-96951298D01*
X149366978Y-96942878D01*
X149366773Y-96934299D01*
X149366980Y-96925485D01*
X149367596Y-96916854D01*
X149368610Y-96908411D01*
X149369077Y-96905674D01*
X149472091Y-96905674D01*
X149596459Y-96905674D01*
X149595189Y-96899429D01*
X149593513Y-96893491D01*
X149591442Y-96887873D01*
X149588989Y-96882588D01*
X149586166Y-96877649D01*
X149582985Y-96873070D01*
X149579460Y-96868864D01*
X149575601Y-96865044D01*
X149571422Y-96861623D01*
X149566935Y-96858616D01*
X149562151Y-96856034D01*
X149557084Y-96853893D01*
X149551746Y-96852204D01*
X149546149Y-96850981D01*
X149540305Y-96850237D01*
X149534226Y-96849986D01*
X149528154Y-96850237D01*
X149522328Y-96850981D01*
X149516757Y-96852204D01*
X149511452Y-96853893D01*
X149506422Y-96856034D01*
X149501678Y-96858616D01*
X149497228Y-96861623D01*
X149493084Y-96865044D01*
X149489254Y-96868864D01*
X149485749Y-96873070D01*
X149482578Y-96877649D01*
X149479753Y-96882588D01*
X149477281Y-96887873D01*
X149475174Y-96893491D01*
X149473440Y-96899429D01*
X149472091Y-96905674D01*
X149369077Y-96905674D01*
X149370017Y-96900162D01*
X149371806Y-96892116D01*
X149373969Y-96884277D01*
X149376498Y-96876652D01*
X149379384Y-96869248D01*
X149382619Y-96862071D01*
X149386194Y-96855127D01*
X149390101Y-96848423D01*
X149394331Y-96841965D01*
X149398876Y-96835759D01*
X149403728Y-96829813D01*
X149408877Y-96824132D01*
X149414315Y-96818723D01*
X149420034Y-96813592D01*
X149426026Y-96808746D01*
X149432281Y-96804191D01*
X149438792Y-96799933D01*
X149445549Y-96795979D01*
X149452545Y-96792335D01*
X149459770Y-96789008D01*
X149467217Y-96786004D01*
X149474876Y-96783329D01*
X149482740Y-96780990D01*
X149490800Y-96778994D01*
X149499047Y-96777346D01*
X149507473Y-96776053D01*
X149516069Y-96775121D01*
X149524827Y-96774558D01*
X149533738Y-96774369D01*
X149542086Y-96774536D01*
G37*
G36*
X150048309Y-97087000D02*
G01*
X150048309Y-96999170D01*
X149861316Y-96999170D01*
X149861316Y-96693085D01*
X149750430Y-96693085D01*
X149750430Y-97087000D01*
X150048309Y-97087000D01*
G37*
G36*
X150229276Y-96774497D02*
G01*
X150238145Y-96774884D01*
X150246763Y-96775532D01*
X150255126Y-96776443D01*
X150263233Y-96777618D01*
X150271080Y-96779061D01*
X150278666Y-96780772D01*
X150285986Y-96782755D01*
X150293039Y-96785012D01*
X150299822Y-96787543D01*
X150306331Y-96790352D01*
X150312566Y-96793441D01*
X150318522Y-96796812D01*
X150324198Y-96800467D01*
X150329590Y-96804407D01*
X150334696Y-96808636D01*
X150339513Y-96813155D01*
X150344038Y-96817966D01*
X150348270Y-96823072D01*
X150352205Y-96828474D01*
X150355840Y-96834175D01*
X150359173Y-96840177D01*
X150362201Y-96846482D01*
X150364922Y-96853091D01*
X150367333Y-96860008D01*
X150369431Y-96867234D01*
X150371213Y-96874771D01*
X150372678Y-96882622D01*
X150373821Y-96890788D01*
X150374642Y-96899272D01*
X150375136Y-96908076D01*
X150375301Y-96917202D01*
X150375301Y-97087000D01*
X150276236Y-97087000D01*
X150276236Y-97049093D01*
X150274772Y-97051781D01*
X150271579Y-97056910D01*
X150268033Y-97061706D01*
X150264137Y-97066169D01*
X150259892Y-97070298D01*
X150255299Y-97074090D01*
X150250361Y-97077544D01*
X150245080Y-97080660D01*
X150239456Y-97083435D01*
X150233492Y-97085868D01*
X150227190Y-97087958D01*
X150220550Y-97089704D01*
X150213576Y-97091103D01*
X150206268Y-97092154D01*
X150198628Y-97092856D01*
X150194684Y-97093076D01*
X150190658Y-97093208D01*
X150186550Y-97093252D01*
X150179822Y-97093133D01*
X150173285Y-97092780D01*
X150166941Y-97092198D01*
X150160792Y-97091392D01*
X150154838Y-97090368D01*
X150149082Y-97089129D01*
X150143524Y-97087682D01*
X150138167Y-97086032D01*
X150133011Y-97084183D01*
X150128059Y-97082141D01*
X150123311Y-97079911D01*
X150118769Y-97077497D01*
X150114434Y-97074906D01*
X150110308Y-97072142D01*
X150106393Y-97069211D01*
X150102689Y-97066117D01*
X150099199Y-97062865D01*
X150095923Y-97059461D01*
X150092864Y-97055910D01*
X150090022Y-97052217D01*
X150087399Y-97048387D01*
X150084996Y-97044426D01*
X150082816Y-97040337D01*
X150080859Y-97036127D01*
X150079126Y-97031800D01*
X150077620Y-97027362D01*
X150076342Y-97022818D01*
X150075293Y-97018172D01*
X150074474Y-97013431D01*
X150073888Y-97008598D01*
X150073535Y-97003680D01*
X150073417Y-96998681D01*
X150073521Y-96994090D01*
X150176487Y-96994090D01*
X150176868Y-96999169D01*
X150177997Y-97003940D01*
X150179855Y-97008359D01*
X150182422Y-97012386D01*
X150185680Y-97015979D01*
X150189609Y-97019096D01*
X150194190Y-97021696D01*
X150199403Y-97023738D01*
X150203221Y-97024768D01*
X150207305Y-97025519D01*
X150211650Y-97025978D01*
X150216250Y-97026134D01*
X150220629Y-97025996D01*
X150224928Y-97025582D01*
X150229133Y-97024887D01*
X150233229Y-97023912D01*
X150237204Y-97022652D01*
X150241043Y-97021106D01*
X150244732Y-97019271D01*
X150248258Y-97017146D01*
X150251606Y-97014728D01*
X150254763Y-97012014D01*
X150257715Y-97009002D01*
X150260447Y-97005691D01*
X150262947Y-97002077D01*
X150265200Y-96998159D01*
X150267191Y-96993934D01*
X150268909Y-96989400D01*
X150268909Y-96961947D01*
X150222991Y-96961947D01*
X150219849Y-96961985D01*
X150213943Y-96962282D01*
X150208529Y-96962867D01*
X150203593Y-96963730D01*
X150199120Y-96964862D01*
X150195097Y-96966253D01*
X150189876Y-96968804D01*
X150185588Y-96971885D01*
X150182185Y-96975462D01*
X150179621Y-96979503D01*
X150177849Y-96983976D01*
X150176820Y-96988849D01*
X150176487Y-96994090D01*
X150073521Y-96994090D01*
X150073537Y-96993363D01*
X150073899Y-96988180D01*
X150074506Y-96983135D01*
X150075359Y-96978229D01*
X150076462Y-96973466D01*
X150077815Y-96968847D01*
X150079421Y-96964375D01*
X150081283Y-96960051D01*
X150083403Y-96955878D01*
X150085782Y-96951858D01*
X150088424Y-96947994D01*
X150091330Y-96944286D01*
X150094503Y-96940739D01*
X150097945Y-96937353D01*
X150101658Y-96934131D01*
X150105645Y-96931075D01*
X150109907Y-96928187D01*
X150114447Y-96925470D01*
X150119267Y-96922926D01*
X150124369Y-96920556D01*
X150129756Y-96918363D01*
X150135430Y-96916350D01*
X150141393Y-96914518D01*
X150147647Y-96912870D01*
X150154194Y-96911407D01*
X150161038Y-96910132D01*
X150168179Y-96909048D01*
X150175621Y-96908155D01*
X150183365Y-96907458D01*
X150191414Y-96906956D01*
X150199769Y-96906654D01*
X150208434Y-96906553D01*
X150268909Y-96906553D01*
X150268374Y-96900620D01*
X150267389Y-96895025D01*
X150265950Y-96889775D01*
X150264056Y-96884875D01*
X150261702Y-96880331D01*
X150258885Y-96876151D01*
X150255601Y-96872339D01*
X150251848Y-96868903D01*
X150247623Y-96865848D01*
X150242921Y-96863180D01*
X150237739Y-96860905D01*
X150232075Y-96859031D01*
X150225925Y-96857562D01*
X150219286Y-96856505D01*
X150212154Y-96855867D01*
X150204526Y-96855653D01*
X150199031Y-96855776D01*
X150193478Y-96856144D01*
X150187890Y-96856749D01*
X150182288Y-96857585D01*
X150176696Y-96858647D01*
X150171135Y-96859929D01*
X150165627Y-96861424D01*
X150160196Y-96863127D01*
X150154864Y-96865031D01*
X150149652Y-96867130D01*
X150144583Y-96869419D01*
X150139680Y-96871892D01*
X150134964Y-96874542D01*
X150130459Y-96877363D01*
X150126186Y-96880350D01*
X150122168Y-96883496D01*
X150086313Y-96809735D01*
X150089622Y-96807614D01*
X150093025Y-96805554D01*
X150096518Y-96803558D01*
X150100098Y-96801624D01*
X150103761Y-96799753D01*
X150107503Y-96797946D01*
X150111320Y-96796202D01*
X150115208Y-96794523D01*
X150119164Y-96792909D01*
X150123185Y-96791359D01*
X150127265Y-96789874D01*
X150131401Y-96788456D01*
X150135591Y-96787103D01*
X150139829Y-96785816D01*
X150144112Y-96784596D01*
X150148436Y-96783442D01*
X150152798Y-96782356D01*
X150157193Y-96781338D01*
X150161619Y-96780387D01*
X150166071Y-96779505D01*
X150170545Y-96778692D01*
X150175037Y-96777947D01*
X150179545Y-96777272D01*
X150184063Y-96776666D01*
X150188589Y-96776130D01*
X150193119Y-96775665D01*
X150197648Y-96775270D01*
X150202173Y-96774947D01*
X150206690Y-96774694D01*
X150211196Y-96774514D01*
X150215687Y-96774405D01*
X150220158Y-96774369D01*
X150229276Y-96774497D01*
G37*
G36*
X150548909Y-96805827D02*
G01*
X150552885Y-96801964D01*
X150557044Y-96798361D01*
X150561385Y-96795015D01*
X150565907Y-96791927D01*
X150570606Y-96789093D01*
X150575481Y-96786514D01*
X150580531Y-96784187D01*
X150585753Y-96782111D01*
X150591146Y-96780285D01*
X150596707Y-96778707D01*
X150602435Y-96777375D01*
X150608328Y-96776289D01*
X150614385Y-96775447D01*
X150620603Y-96774847D01*
X150626980Y-96774488D01*
X150633515Y-96774369D01*
X150641188Y-96774544D01*
X150648760Y-96775066D01*
X150656221Y-96775933D01*
X150663562Y-96777139D01*
X150670774Y-96778682D01*
X150677847Y-96780557D01*
X150684772Y-96782760D01*
X150691539Y-96785288D01*
X150698140Y-96788136D01*
X150704564Y-96791302D01*
X150710803Y-96794780D01*
X150716848Y-96798568D01*
X150722689Y-96802660D01*
X150728316Y-96807055D01*
X150733720Y-96811747D01*
X150738893Y-96816733D01*
X150743824Y-96822008D01*
X150748505Y-96827570D01*
X150752926Y-96833414D01*
X150757078Y-96839537D01*
X150760951Y-96845934D01*
X150764536Y-96852601D01*
X150767824Y-96859536D01*
X150770805Y-96866734D01*
X150773470Y-96874190D01*
X150775811Y-96881903D01*
X150777817Y-96889866D01*
X150779479Y-96898077D01*
X150780788Y-96906533D01*
X150781734Y-96915227D01*
X150782309Y-96924159D01*
X150782503Y-96933322D01*
X150782309Y-96942531D01*
X150781734Y-96951508D01*
X150780788Y-96960248D01*
X150779479Y-96968749D01*
X150777817Y-96977005D01*
X150775811Y-96985013D01*
X150773470Y-96992769D01*
X150770805Y-97000269D01*
X150767824Y-97007509D01*
X150764536Y-97014485D01*
X150760951Y-97021194D01*
X150757078Y-97027631D01*
X150752926Y-97033792D01*
X150748505Y-97039674D01*
X150743824Y-97045272D01*
X150738893Y-97050583D01*
X150733720Y-97055602D01*
X150728316Y-97060326D01*
X150722689Y-97064751D01*
X150716848Y-97068873D01*
X150710803Y-97072687D01*
X150704564Y-97076191D01*
X150698140Y-97079379D01*
X150691539Y-97082249D01*
X150684772Y-97084796D01*
X150677847Y-97087016D01*
X150670774Y-97088905D01*
X150663562Y-97090459D01*
X150656221Y-97091675D01*
X150648760Y-97092549D01*
X150641188Y-97093076D01*
X150633515Y-97093252D01*
X150626177Y-97093121D01*
X150619074Y-97092726D01*
X150612206Y-97092065D01*
X150605572Y-97091135D01*
X150599170Y-97089933D01*
X150593001Y-97088456D01*
X150587063Y-97086701D01*
X150581356Y-97084667D01*
X150575880Y-97082350D01*
X150570632Y-97079747D01*
X150565614Y-97076856D01*
X150560823Y-97073675D01*
X150556260Y-97070199D01*
X150551923Y-97066427D01*
X150547812Y-97062356D01*
X150543926Y-97057983D01*
X150543926Y-97087000D01*
X150442517Y-97087000D01*
X150442517Y-96933322D01*
X150547248Y-96933322D01*
X150547329Y-96937776D01*
X150547572Y-96942106D01*
X150547971Y-96946312D01*
X150548523Y-96950391D01*
X150549224Y-96954344D01*
X150550072Y-96958168D01*
X150552189Y-96965426D01*
X150554845Y-96972157D01*
X150558010Y-96978352D01*
X150561655Y-96984001D01*
X150565749Y-96989095D01*
X150570264Y-96993624D01*
X150575169Y-96997580D01*
X150580435Y-97000952D01*
X150586032Y-97003733D01*
X150591931Y-97005911D01*
X150598102Y-97007479D01*
X150604516Y-97008426D01*
X150611142Y-97008744D01*
X150617767Y-97008426D01*
X150624177Y-97007479D01*
X150630344Y-97005911D01*
X150636236Y-97003733D01*
X150641826Y-97000952D01*
X150647084Y-96997580D01*
X150651980Y-96993624D01*
X150656486Y-96989095D01*
X150660571Y-96984001D01*
X150664206Y-96978352D01*
X150667363Y-96972157D01*
X150670012Y-96965426D01*
X150672123Y-96958168D01*
X150672968Y-96954344D01*
X150673667Y-96950391D01*
X150674218Y-96946312D01*
X150674616Y-96942106D01*
X150674857Y-96937776D01*
X150674938Y-96933322D01*
X150674857Y-96928914D01*
X150674616Y-96924630D01*
X150674218Y-96920471D01*
X150673667Y-96916439D01*
X150672123Y-96908757D01*
X150670012Y-96901592D01*
X150667363Y-96894952D01*
X150664206Y-96888846D01*
X150660571Y-96883283D01*
X150656486Y-96878270D01*
X150651980Y-96873815D01*
X150647084Y-96869928D01*
X150641826Y-96866615D01*
X150636236Y-96863887D01*
X150630344Y-96861750D01*
X150624177Y-96860214D01*
X150617767Y-96859286D01*
X150611142Y-96858974D01*
X150607804Y-96859052D01*
X150601280Y-96859673D01*
X150594984Y-96860906D01*
X150588946Y-96862744D01*
X150583194Y-96865178D01*
X150577759Y-96868199D01*
X150572669Y-96871800D01*
X150567956Y-96875972D01*
X150563648Y-96880707D01*
X150559775Y-96885996D01*
X150556366Y-96891832D01*
X150553452Y-96898206D01*
X150551061Y-96905109D01*
X150549224Y-96912534D01*
X150548523Y-96916439D01*
X150547971Y-96920471D01*
X150547572Y-96924630D01*
X150547329Y-96928914D01*
X150547248Y-96933322D01*
X150442517Y-96933322D01*
X150442517Y-96674327D01*
X150548909Y-96674327D01*
X150548909Y-96805827D01*
G37*
G36*
X150942042Y-97093252D02*
G01*
X150951146Y-97093125D01*
X150959973Y-97092748D01*
X150968524Y-97092125D01*
X150976796Y-97091263D01*
X150984790Y-97090167D01*
X150992505Y-97088842D01*
X150999939Y-97087294D01*
X151007092Y-97085528D01*
X151013962Y-97083550D01*
X151020550Y-97081364D01*
X151026854Y-97078978D01*
X151032874Y-97076395D01*
X151038607Y-97073621D01*
X151044055Y-97070663D01*
X151049216Y-97067524D01*
X151054088Y-97064212D01*
X151058672Y-97060730D01*
X151062967Y-97057085D01*
X151066970Y-97053282D01*
X151070683Y-97049327D01*
X151074103Y-97045224D01*
X151077230Y-97040980D01*
X151080064Y-97036599D01*
X151082602Y-97032088D01*
X151084845Y-97027451D01*
X151086792Y-97022694D01*
X151088442Y-97017823D01*
X151089794Y-97012843D01*
X151090846Y-97007759D01*
X151091599Y-97002577D01*
X151092052Y-96997302D01*
X151092203Y-96991940D01*
X151091690Y-96980880D01*
X151090196Y-96970768D01*
X151087786Y-96961557D01*
X151084525Y-96953198D01*
X151080478Y-96945645D01*
X151075712Y-96938849D01*
X151070292Y-96932763D01*
X151064283Y-96927339D01*
X151057750Y-96922531D01*
X151050759Y-96918290D01*
X151043375Y-96914569D01*
X151035665Y-96911320D01*
X151027692Y-96908496D01*
X151019523Y-96906049D01*
X151011224Y-96903931D01*
X151002859Y-96902095D01*
X150994493Y-96900494D01*
X150986194Y-96899080D01*
X150978025Y-96897805D01*
X150970053Y-96896622D01*
X150962342Y-96895482D01*
X150954958Y-96894340D01*
X150947967Y-96893146D01*
X150941435Y-96891854D01*
X150935425Y-96890416D01*
X150930005Y-96888784D01*
X150925239Y-96886911D01*
X150921193Y-96884749D01*
X150917932Y-96882250D01*
X150914027Y-96876054D01*
X150913515Y-96872261D01*
X150914139Y-96867938D01*
X150916090Y-96863835D01*
X150919486Y-96860061D01*
X150923052Y-96857514D01*
X150927547Y-96855260D01*
X150933020Y-96853346D01*
X150937237Y-96852281D01*
X150941926Y-96851403D01*
X150947102Y-96850723D01*
X150952778Y-96850257D01*
X150958971Y-96850017D01*
X150962265Y-96849986D01*
X150967342Y-96850056D01*
X150972494Y-96850272D01*
X150977715Y-96850643D01*
X150983002Y-96851177D01*
X150988347Y-96851882D01*
X150993748Y-96852768D01*
X150999197Y-96853843D01*
X151004690Y-96855115D01*
X151010223Y-96856594D01*
X151015789Y-96858287D01*
X151021384Y-96860203D01*
X151027002Y-96862351D01*
X151032639Y-96864740D01*
X151038288Y-96867377D01*
X151043946Y-96870272D01*
X151049607Y-96873434D01*
X151081554Y-96800161D01*
X151075684Y-96797102D01*
X151069454Y-96794228D01*
X151062895Y-96791541D01*
X151056036Y-96789042D01*
X151048910Y-96786733D01*
X151041547Y-96784615D01*
X151033977Y-96782692D01*
X151030125Y-96781803D01*
X151026233Y-96780963D01*
X151022304Y-96780173D01*
X151018344Y-96779432D01*
X151014355Y-96778740D01*
X151010342Y-96778099D01*
X151006308Y-96777507D01*
X151002257Y-96776966D01*
X150998193Y-96776476D01*
X150994121Y-96776036D01*
X150990043Y-96775647D01*
X150985964Y-96775309D01*
X150981888Y-96775022D01*
X150977818Y-96774788D01*
X150973758Y-96774605D01*
X150969712Y-96774474D01*
X150965685Y-96774395D01*
X150961679Y-96774369D01*
X150952883Y-96774496D01*
X150944338Y-96774874D01*
X150936045Y-96775499D01*
X150928007Y-96776363D01*
X150920226Y-96777463D01*
X150912703Y-96778792D01*
X150905440Y-96780345D01*
X150898439Y-96782117D01*
X150891702Y-96784103D01*
X150885230Y-96786297D01*
X150879027Y-96788694D01*
X150873092Y-96791288D01*
X150867429Y-96794074D01*
X150862040Y-96797047D01*
X150856925Y-96800201D01*
X150852087Y-96803531D01*
X150847529Y-96807032D01*
X150843250Y-96810698D01*
X150839254Y-96814524D01*
X150835543Y-96818504D01*
X150832118Y-96822634D01*
X150828981Y-96826907D01*
X150826134Y-96831318D01*
X150823578Y-96835863D01*
X150821316Y-96840535D01*
X150819350Y-96845330D01*
X150817682Y-96850241D01*
X150816312Y-96855264D01*
X150815244Y-96860393D01*
X150814478Y-96865623D01*
X150814017Y-96870949D01*
X150813863Y-96876364D01*
X150814377Y-96887543D01*
X150815876Y-96897756D01*
X150818293Y-96907051D01*
X150821562Y-96915477D01*
X150825620Y-96923082D01*
X150830399Y-96929915D01*
X150835834Y-96936024D01*
X150841860Y-96941457D01*
X150848410Y-96946263D01*
X150855420Y-96950489D01*
X150862824Y-96954186D01*
X150870556Y-96957400D01*
X150878550Y-96960181D01*
X150886741Y-96962576D01*
X150895064Y-96964635D01*
X150903452Y-96966405D01*
X150911840Y-96967934D01*
X150920162Y-96969272D01*
X150928353Y-96970467D01*
X150936347Y-96971567D01*
X150944079Y-96972620D01*
X150951483Y-96973675D01*
X150958493Y-96974780D01*
X150965044Y-96975983D01*
X150971069Y-96977334D01*
X150976505Y-96978880D01*
X150981284Y-96980670D01*
X150985341Y-96982752D01*
X150988611Y-96985174D01*
X150992526Y-96991234D01*
X150993040Y-96994969D01*
X150992466Y-96999877D01*
X150990648Y-97004245D01*
X150987440Y-97008039D01*
X150984034Y-97010486D01*
X150979703Y-97012575D01*
X150974386Y-97014291D01*
X150970264Y-97015220D01*
X150965657Y-97015972D01*
X150960548Y-97016542D01*
X150954920Y-97016927D01*
X150948753Y-97017122D01*
X150945461Y-97017146D01*
X150938494Y-97017013D01*
X150931458Y-97016619D01*
X150924378Y-97015969D01*
X150917277Y-97015070D01*
X150910182Y-97013928D01*
X150903117Y-97012550D01*
X150896107Y-97010942D01*
X150889176Y-97009110D01*
X150882349Y-97007061D01*
X150875651Y-97004800D01*
X150869107Y-97002335D01*
X150862741Y-96999670D01*
X150856578Y-96996814D01*
X150850644Y-96993771D01*
X150844962Y-96990549D01*
X150839558Y-96987153D01*
X150807709Y-97061891D01*
X150813546Y-97065303D01*
X150819896Y-97068568D01*
X150826722Y-97071678D01*
X150833988Y-97074622D01*
X150837773Y-97076029D01*
X150841655Y-97077390D01*
X150845629Y-97078705D01*
X150849689Y-97079971D01*
X150853831Y-97081189D01*
X150858051Y-97082356D01*
X150862344Y-97083471D01*
X150866705Y-97084533D01*
X150871131Y-97085540D01*
X150875615Y-97086492D01*
X150880154Y-97087387D01*
X150884743Y-97088224D01*
X150889378Y-97089001D01*
X150894053Y-97089717D01*
X150898765Y-97090372D01*
X150903508Y-97090962D01*
X150908279Y-97091488D01*
X150913071Y-97091949D01*
X150917882Y-97092342D01*
X150922706Y-97092666D01*
X150927538Y-97092920D01*
X150932375Y-97093104D01*
X150937211Y-97093215D01*
X150942042Y-97093252D01*
G37*
D13*
G36*
X144634366Y-94534683D02*
G01*
X144674393Y-94537256D01*
X144713504Y-94541512D01*
X144751672Y-94547424D01*
X144788869Y-94554965D01*
X144825069Y-94564108D01*
X144860245Y-94574825D01*
X144894371Y-94587090D01*
X144927418Y-94600877D01*
X144959362Y-94616157D01*
X144990174Y-94632904D01*
X145019828Y-94651091D01*
X145048296Y-94670691D01*
X145075554Y-94691678D01*
X145101572Y-94714023D01*
X145126325Y-94737700D01*
X145149786Y-94762683D01*
X145171927Y-94788944D01*
X145192723Y-94816456D01*
X145212146Y-94845193D01*
X145230169Y-94875126D01*
X145246766Y-94906230D01*
X145261909Y-94938478D01*
X145275573Y-94971842D01*
X145287729Y-95006295D01*
X145298352Y-95041811D01*
X145307414Y-95078362D01*
X145314888Y-95115921D01*
X145320748Y-95154463D01*
X145324967Y-95193959D01*
X145327519Y-95234382D01*
X145328375Y-95275706D01*
X145327494Y-95318046D01*
X145324869Y-95359455D01*
X145320528Y-95399905D01*
X145314497Y-95439371D01*
X145306805Y-95477825D01*
X145297477Y-95515239D01*
X145286542Y-95551587D01*
X145274027Y-95586841D01*
X145259959Y-95620975D01*
X145244364Y-95653961D01*
X145227271Y-95685773D01*
X145208707Y-95716383D01*
X145188698Y-95745763D01*
X145167273Y-95773888D01*
X145144458Y-95800729D01*
X145120280Y-95826260D01*
X145094767Y-95850454D01*
X145067946Y-95873283D01*
X145039845Y-95894721D01*
X145010490Y-95914740D01*
X144979908Y-95933313D01*
X144948128Y-95950414D01*
X144915175Y-95966014D01*
X144881079Y-95980088D01*
X144845864Y-95992607D01*
X144809560Y-96003544D01*
X144772193Y-96012874D01*
X144733790Y-96020568D01*
X144694379Y-96026599D01*
X144653987Y-96030941D01*
X144612640Y-96033566D01*
X144570367Y-96034447D01*
X144529822Y-96033590D01*
X144490156Y-96031039D01*
X144451396Y-96026818D01*
X144413568Y-96020955D01*
X144376700Y-96013476D01*
X144340818Y-96004407D01*
X144305948Y-95993774D01*
X144272118Y-95981604D01*
X144239355Y-95967924D01*
X144207684Y-95952759D01*
X144177133Y-95936137D01*
X144147730Y-95918083D01*
X144119499Y-95898623D01*
X144092469Y-95877784D01*
X144066665Y-95855594D01*
X144042116Y-95832076D01*
X144018847Y-95807259D01*
X143996885Y-95781169D01*
X143976257Y-95753831D01*
X143956990Y-95725273D01*
X143939110Y-95695521D01*
X143922645Y-95664600D01*
X143907621Y-95632538D01*
X143894065Y-95599361D01*
X143882003Y-95565094D01*
X143871463Y-95529765D01*
X143862470Y-95493400D01*
X143855053Y-95456026D01*
X143849238Y-95417667D01*
X143845051Y-95378352D01*
X143842519Y-95338106D01*
X143841669Y-95296956D01*
X143842106Y-95275706D01*
X144223787Y-95275706D01*
X144224209Y-95300466D01*
X144225467Y-95324657D01*
X144227549Y-95348266D01*
X144230444Y-95371278D01*
X144234140Y-95393679D01*
X144238624Y-95415455D01*
X144243886Y-95436591D01*
X144249913Y-95457074D01*
X144256693Y-95476888D01*
X144264216Y-95496020D01*
X144272467Y-95514455D01*
X144281438Y-95532179D01*
X144291114Y-95549178D01*
X144301485Y-95565437D01*
X144312538Y-95580943D01*
X144324262Y-95595680D01*
X144336645Y-95609635D01*
X144349676Y-95622792D01*
X144363342Y-95635139D01*
X144377631Y-95646661D01*
X144392532Y-95657343D01*
X144408034Y-95667171D01*
X144424123Y-95676131D01*
X144440789Y-95684208D01*
X144458019Y-95691389D01*
X144475802Y-95697658D01*
X144494126Y-95703003D01*
X144512980Y-95707407D01*
X144532350Y-95710858D01*
X144552227Y-95713340D01*
X144572596Y-95714840D01*
X144593448Y-95715344D01*
X144613317Y-95714865D01*
X144632730Y-95713438D01*
X144651675Y-95711077D01*
X144670142Y-95707794D01*
X144688119Y-95703605D01*
X144705594Y-95698521D01*
X144722555Y-95692556D01*
X144738992Y-95685725D01*
X144754893Y-95678041D01*
X144770246Y-95669517D01*
X144785040Y-95660166D01*
X144799264Y-95650003D01*
X144812906Y-95639041D01*
X144825954Y-95627294D01*
X144838397Y-95614774D01*
X144850224Y-95601496D01*
X144861423Y-95587473D01*
X144871982Y-95572719D01*
X144881891Y-95557246D01*
X144891137Y-95541070D01*
X144899710Y-95524203D01*
X144907597Y-95506659D01*
X144914787Y-95488451D01*
X144921270Y-95469593D01*
X144927033Y-95450099D01*
X144932064Y-95429982D01*
X144936353Y-95409255D01*
X144939888Y-95387933D01*
X144942657Y-95366028D01*
X144944649Y-95343554D01*
X144945853Y-95320526D01*
X144946257Y-95296956D01*
X144945829Y-95271991D01*
X144944551Y-95247597D01*
X144942437Y-95223789D01*
X144939497Y-95200580D01*
X144935744Y-95177985D01*
X144931190Y-95156019D01*
X144925846Y-95134696D01*
X144919724Y-95114031D01*
X144912837Y-95094039D01*
X144905195Y-95074733D01*
X144896812Y-95056129D01*
X144887698Y-95038242D01*
X144877866Y-95021084D01*
X144867328Y-95004673D01*
X144856095Y-94989021D01*
X144844179Y-94974143D01*
X144831592Y-94960054D01*
X144818347Y-94946769D01*
X144804454Y-94934301D01*
X144789926Y-94922666D01*
X144774775Y-94911879D01*
X144759012Y-94901953D01*
X144742650Y-94892903D01*
X144725700Y-94884744D01*
X144708174Y-94877491D01*
X144690084Y-94871157D01*
X144671443Y-94865758D01*
X144652260Y-94861308D01*
X144632550Y-94857821D01*
X144612323Y-94855313D01*
X144591592Y-94853797D01*
X144570367Y-94853288D01*
X144550903Y-94853772D01*
X144531880Y-94855215D01*
X144513310Y-94857602D01*
X144495203Y-94860921D01*
X144477573Y-94865156D01*
X144460429Y-94870295D01*
X144443785Y-94876323D01*
X144427651Y-94883227D01*
X144412040Y-94890993D01*
X144396962Y-94899607D01*
X144382429Y-94909055D01*
X144368454Y-94919324D01*
X144355047Y-94930399D01*
X144342221Y-94942268D01*
X144329986Y-94954915D01*
X144318354Y-94968327D01*
X144307338Y-94982490D01*
X144296948Y-94997391D01*
X144287197Y-95013016D01*
X144278095Y-95029351D01*
X144269655Y-95046381D01*
X144261888Y-95064094D01*
X144254805Y-95082476D01*
X144248419Y-95101512D01*
X144242741Y-95121188D01*
X144237782Y-95141492D01*
X144233554Y-95162409D01*
X144230069Y-95183925D01*
X144227338Y-95206027D01*
X144225373Y-95228700D01*
X144224185Y-95251931D01*
X144223787Y-95275706D01*
X143842106Y-95275706D01*
X143842543Y-95254442D01*
X143845149Y-95212856D01*
X143849458Y-95172225D01*
X143855444Y-95132576D01*
X143863079Y-95093938D01*
X143872337Y-95056337D01*
X143883189Y-95019802D01*
X143895610Y-94984361D01*
X143909572Y-94950041D01*
X143925047Y-94916869D01*
X143942008Y-94884874D01*
X143960429Y-94854083D01*
X143980282Y-94824525D01*
X144001539Y-94796225D01*
X144024175Y-94769213D01*
X144048161Y-94743517D01*
X144073470Y-94719162D01*
X144100076Y-94696179D01*
X144127951Y-94674593D01*
X144157068Y-94654433D01*
X144187399Y-94635727D01*
X144218918Y-94618502D01*
X144251598Y-94602787D01*
X144285410Y-94588607D01*
X144320329Y-94575993D01*
X144356327Y-94564970D01*
X144393376Y-94555567D01*
X144431450Y-94547811D01*
X144470521Y-94541731D01*
X144510563Y-94537354D01*
X144551548Y-94534707D01*
X144593448Y-94533819D01*
X144634366Y-94534683D01*
G37*
G36*
X145988930Y-96034447D02*
G01*
X146024660Y-96033908D01*
X146059373Y-96032302D01*
X146093062Y-96029642D01*
X146125719Y-96025942D01*
X146157336Y-96021218D01*
X146187905Y-96015482D01*
X146217420Y-96008749D01*
X146245871Y-96001033D01*
X146273252Y-95992349D01*
X146299554Y-95982710D01*
X146324771Y-95972131D01*
X146348893Y-95960625D01*
X146371914Y-95948208D01*
X146393826Y-95934892D01*
X146414621Y-95920693D01*
X146434291Y-95905624D01*
X146452829Y-95889700D01*
X146470227Y-95872934D01*
X146486477Y-95855341D01*
X146501571Y-95836936D01*
X146515503Y-95817731D01*
X146528263Y-95797742D01*
X146539845Y-95776982D01*
X146550240Y-95755466D01*
X146559441Y-95733208D01*
X146567440Y-95710221D01*
X146574230Y-95686521D01*
X146579803Y-95662121D01*
X146584151Y-95637036D01*
X146587266Y-95611279D01*
X146589141Y-95584864D01*
X146589767Y-95557807D01*
X146587700Y-95509536D01*
X146581674Y-95465160D01*
X146571953Y-95424481D01*
X146558802Y-95387302D01*
X146542484Y-95353426D01*
X146523263Y-95322656D01*
X146501403Y-95294794D01*
X146477167Y-95269644D01*
X146450821Y-95247008D01*
X146422627Y-95226690D01*
X146392849Y-95208491D01*
X146361753Y-95192215D01*
X146329600Y-95177664D01*
X146296656Y-95164642D01*
X146263184Y-95152952D01*
X146229448Y-95142396D01*
X146195712Y-95132776D01*
X146162240Y-95123897D01*
X146129296Y-95115560D01*
X146097143Y-95107569D01*
X146066046Y-95099726D01*
X146036269Y-95091834D01*
X146008075Y-95083697D01*
X145981728Y-95075116D01*
X145957493Y-95065895D01*
X145935633Y-95055837D01*
X145916412Y-95044744D01*
X145900094Y-95032420D01*
X145886942Y-95018666D01*
X145877222Y-95003287D01*
X145871196Y-94986084D01*
X145869129Y-94966861D01*
X145871275Y-94947044D01*
X145877644Y-94929035D01*
X145888130Y-94912865D01*
X145902629Y-94898565D01*
X145921036Y-94886166D01*
X145935426Y-94878970D01*
X145951475Y-94872643D01*
X145969151Y-94867192D01*
X145988424Y-94862626D01*
X146009263Y-94858956D01*
X146031636Y-94856189D01*
X146055512Y-94854336D01*
X146080860Y-94853405D01*
X146094076Y-94853288D01*
X146116263Y-94853532D01*
X146138684Y-94854256D01*
X146161281Y-94855452D01*
X146183996Y-94857112D01*
X146206771Y-94859228D01*
X146229548Y-94861789D01*
X146252269Y-94864789D01*
X146274877Y-94868218D01*
X146297313Y-94872067D01*
X146319519Y-94876329D01*
X146341438Y-94880995D01*
X146363011Y-94886055D01*
X146384180Y-94891502D01*
X146404888Y-94897327D01*
X146425076Y-94903520D01*
X146444687Y-94910075D01*
X146545437Y-94620281D01*
X146522172Y-94610253D01*
X146498039Y-94600788D01*
X146473118Y-94591895D01*
X146447486Y-94583587D01*
X146421221Y-94575876D01*
X146394400Y-94568774D01*
X146367101Y-94562292D01*
X146339403Y-94556442D01*
X146311383Y-94551236D01*
X146283118Y-94546686D01*
X146254687Y-94542803D01*
X146226168Y-94539600D01*
X146197638Y-94537089D01*
X146169174Y-94535280D01*
X146140856Y-94534186D01*
X146112761Y-94533819D01*
X146078455Y-94534383D01*
X146044864Y-94536063D01*
X146012014Y-94538843D01*
X145979929Y-94542705D01*
X145948632Y-94547633D01*
X145918150Y-94553610D01*
X145888505Y-94560618D01*
X145859723Y-94568641D01*
X145831829Y-94577661D01*
X145804845Y-94587662D01*
X145778798Y-94598627D01*
X145753712Y-94610538D01*
X145729610Y-94623380D01*
X145706518Y-94637134D01*
X145684460Y-94651784D01*
X145663461Y-94667313D01*
X145643544Y-94683703D01*
X145624735Y-94700939D01*
X145607058Y-94719003D01*
X145590538Y-94737877D01*
X145575198Y-94757546D01*
X145561064Y-94777991D01*
X145548160Y-94799197D01*
X145536510Y-94821146D01*
X145526139Y-94843820D01*
X145517071Y-94867204D01*
X145509331Y-94891281D01*
X145502944Y-94916032D01*
X145497933Y-94941441D01*
X145494324Y-94967492D01*
X145492140Y-94994167D01*
X145491407Y-95021450D01*
X145493461Y-95066152D01*
X145499447Y-95107304D01*
X145509103Y-95145087D01*
X145522167Y-95179687D01*
X145538378Y-95211286D01*
X145557472Y-95240069D01*
X145579187Y-95266219D01*
X145603263Y-95289920D01*
X145629435Y-95311356D01*
X145657443Y-95330710D01*
X145687023Y-95348167D01*
X145717915Y-95363909D01*
X145749855Y-95378121D01*
X145782581Y-95390987D01*
X145815832Y-95402690D01*
X145849345Y-95413414D01*
X145882858Y-95423342D01*
X145916109Y-95432659D01*
X145948835Y-95441548D01*
X145980775Y-95450192D01*
X146011667Y-95458777D01*
X146041247Y-95467485D01*
X146069255Y-95476499D01*
X146095427Y-95486005D01*
X146119502Y-95496186D01*
X146141218Y-95507224D01*
X146160312Y-95519305D01*
X146176523Y-95532611D01*
X146189587Y-95547328D01*
X146199243Y-95563637D01*
X146205229Y-95581723D01*
X146207283Y-95601771D01*
X146205609Y-95619941D01*
X146200540Y-95636506D01*
X146192003Y-95651427D01*
X146179926Y-95664664D01*
X146164235Y-95676176D01*
X146144860Y-95685924D01*
X146129860Y-95691423D01*
X146113168Y-95696108D01*
X146094763Y-95699968D01*
X146074624Y-95702990D01*
X146052729Y-95705164D01*
X146029056Y-95706477D01*
X146003584Y-95706917D01*
X145978474Y-95706618D01*
X145952783Y-95705712D01*
X145926572Y-95704183D01*
X145899903Y-95702017D01*
X145872840Y-95699198D01*
X145845444Y-95695712D01*
X145817777Y-95691542D01*
X145789902Y-95686676D01*
X145761882Y-95681096D01*
X145733777Y-95674789D01*
X145705651Y-95667739D01*
X145677566Y-95659931D01*
X145649584Y-95651350D01*
X145635651Y-95646766D01*
X145621767Y-95641982D01*
X145607940Y-95636998D01*
X145594178Y-95631811D01*
X145580488Y-95626419D01*
X145566878Y-95620822D01*
X145466128Y-95919042D01*
X145480234Y-95925304D01*
X145494588Y-95931447D01*
X145509178Y-95937466D01*
X145523995Y-95943355D01*
X145539028Y-95949110D01*
X145554267Y-95954724D01*
X145569702Y-95960194D01*
X145585322Y-95965513D01*
X145601117Y-95970677D01*
X145617077Y-95975679D01*
X145633191Y-95980516D01*
X145649449Y-95985181D01*
X145665840Y-95989669D01*
X145682355Y-95993976D01*
X145698983Y-95998096D01*
X145715714Y-96002024D01*
X145732536Y-96005754D01*
X145749441Y-96009281D01*
X145766417Y-96012600D01*
X145783455Y-96015706D01*
X145800544Y-96018594D01*
X145817673Y-96021258D01*
X145834833Y-96023693D01*
X145852013Y-96025894D01*
X145869202Y-96027856D01*
X145886390Y-96029573D01*
X145903568Y-96031041D01*
X145920724Y-96032253D01*
X145937849Y-96033205D01*
X145954932Y-96033891D01*
X145971962Y-96034307D01*
X145988930Y-96034447D01*
G37*
G36*
X146752066Y-95612395D02*
G01*
X147382213Y-95612395D01*
X147382213Y-95318571D01*
X146752066Y-95318571D01*
X146752066Y-95612395D01*
G37*
G36*
X148543221Y-95446799D02*
G01*
X148799310Y-95446799D01*
X148799310Y-95753079D01*
X148543221Y-95753079D01*
X148543221Y-96011000D01*
X148188214Y-96011000D01*
X148188214Y-95753079D01*
X147520332Y-95753079D01*
X147520332Y-95562203D01*
X147601218Y-95442402D01*
X147883766Y-95442402D01*
X148188214Y-95444600D01*
X148188214Y-94962099D01*
X147883766Y-95442402D01*
X147601218Y-95442402D01*
X148198839Y-94557266D01*
X148543221Y-94557266D01*
X148543221Y-95446799D01*
G37*
G36*
X149892907Y-95446799D02*
G01*
X150148996Y-95446799D01*
X150148996Y-95753079D01*
X149892907Y-95753079D01*
X149892907Y-96011000D01*
X149537900Y-96011000D01*
X149537900Y-95753079D01*
X148870018Y-95753079D01*
X148870018Y-95562203D01*
X148950904Y-95442402D01*
X149233452Y-95442402D01*
X149537900Y-95444600D01*
X149537900Y-94962099D01*
X149233452Y-95442402D01*
X148950904Y-95442402D01*
X149548525Y-94557266D01*
X149892907Y-94557266D01*
X149892907Y-95446799D01*
G37*
G36*
X150752398Y-96011000D02*
G01*
X151121693Y-96011000D01*
X151121693Y-95447898D01*
X151686627Y-95447898D01*
X151686627Y-96011000D01*
X152056288Y-96011000D01*
X152056288Y-94557266D01*
X151686627Y-94557266D01*
X151686627Y-95120002D01*
X151121693Y-95120002D01*
X151121693Y-94557266D01*
X150752398Y-94557266D01*
X150752398Y-96011000D01*
G37*
G36*
X152354143Y-96011000D02*
G01*
X152723438Y-96011000D01*
X152723438Y-95471711D01*
X153318047Y-95471711D01*
X153318047Y-95152608D01*
X152723438Y-95152608D01*
X152723438Y-94876736D01*
X153393518Y-94876736D01*
X153393518Y-94557266D01*
X152354143Y-94557266D01*
X152354143Y-96011000D01*
G37*
D10*
X134444350Y-116903819D02*
X134444350Y-115903819D01*
X134444350Y-115903819D02*
X134711017Y-115903819D01*
X134711017Y-115903819D02*
X134777684Y-115951438D01*
X134777684Y-115951438D02*
X134811017Y-115999057D01*
X134811017Y-115999057D02*
X134844350Y-116094295D01*
X134844350Y-116094295D02*
X134844350Y-116237152D01*
X134844350Y-116237152D02*
X134811017Y-116332390D01*
X134811017Y-116332390D02*
X134777684Y-116380009D01*
X134777684Y-116380009D02*
X134711017Y-116427628D01*
X134711017Y-116427628D02*
X134444350Y-116427628D01*
X135377684Y-116380009D02*
X135477684Y-116427628D01*
X135477684Y-116427628D02*
X135511017Y-116475247D01*
X135511017Y-116475247D02*
X135544350Y-116570485D01*
X135544350Y-116570485D02*
X135544350Y-116713342D01*
X135544350Y-116713342D02*
X135511017Y-116808580D01*
X135511017Y-116808580D02*
X135477684Y-116856200D01*
X135477684Y-116856200D02*
X135411017Y-116903819D01*
X135411017Y-116903819D02*
X135144350Y-116903819D01*
X135144350Y-116903819D02*
X135144350Y-115903819D01*
X135144350Y-115903819D02*
X135377684Y-115903819D01*
X135377684Y-115903819D02*
X135444350Y-115951438D01*
X135444350Y-115951438D02*
X135477684Y-115999057D01*
X135477684Y-115999057D02*
X135511017Y-116094295D01*
X135511017Y-116094295D02*
X135511017Y-116189533D01*
X135511017Y-116189533D02*
X135477684Y-116284771D01*
X135477684Y-116284771D02*
X135444350Y-116332390D01*
X135444350Y-116332390D02*
X135377684Y-116380009D01*
X135377684Y-116380009D02*
X135144350Y-116380009D01*
X135977684Y-115903819D02*
X136044350Y-115903819D01*
X136044350Y-115903819D02*
X136111017Y-115951438D01*
X136111017Y-115951438D02*
X136144350Y-115999057D01*
X136144350Y-115999057D02*
X136177684Y-116094295D01*
X136177684Y-116094295D02*
X136211017Y-116284771D01*
X136211017Y-116284771D02*
X136211017Y-116522866D01*
X136211017Y-116522866D02*
X136177684Y-116713342D01*
X136177684Y-116713342D02*
X136144350Y-116808580D01*
X136144350Y-116808580D02*
X136111017Y-116856200D01*
X136111017Y-116856200D02*
X136044350Y-116903819D01*
X136044350Y-116903819D02*
X135977684Y-116903819D01*
X135977684Y-116903819D02*
X135911017Y-116856200D01*
X135911017Y-116856200D02*
X135877684Y-116808580D01*
X135877684Y-116808580D02*
X135844350Y-116713342D01*
X135844350Y-116713342D02*
X135811017Y-116522866D01*
X135811017Y-116522866D02*
X135811017Y-116284771D01*
X135811017Y-116284771D02*
X135844350Y-116094295D01*
X135844350Y-116094295D02*
X135877684Y-115999057D01*
X135877684Y-115999057D02*
X135911017Y-115951438D01*
X135911017Y-115951438D02*
X135977684Y-115903819D01*
X137044350Y-116903819D02*
X137044350Y-115903819D01*
X137044350Y-115903819D02*
X137311017Y-115903819D01*
X137311017Y-115903819D02*
X137377684Y-115951438D01*
X137377684Y-115951438D02*
X137411017Y-115999057D01*
X137411017Y-115999057D02*
X137444350Y-116094295D01*
X137444350Y-116094295D02*
X137444350Y-116237152D01*
X137444350Y-116237152D02*
X137411017Y-116332390D01*
X137411017Y-116332390D02*
X137377684Y-116380009D01*
X137377684Y-116380009D02*
X137311017Y-116427628D01*
X137311017Y-116427628D02*
X137044350Y-116427628D01*
X137977684Y-116380009D02*
X138077684Y-116427628D01*
X138077684Y-116427628D02*
X138111017Y-116475247D01*
X138111017Y-116475247D02*
X138144350Y-116570485D01*
X138144350Y-116570485D02*
X138144350Y-116713342D01*
X138144350Y-116713342D02*
X138111017Y-116808580D01*
X138111017Y-116808580D02*
X138077684Y-116856200D01*
X138077684Y-116856200D02*
X138011017Y-116903819D01*
X138011017Y-116903819D02*
X137744350Y-116903819D01*
X137744350Y-116903819D02*
X137744350Y-115903819D01*
X137744350Y-115903819D02*
X137977684Y-115903819D01*
X137977684Y-115903819D02*
X138044350Y-115951438D01*
X138044350Y-115951438D02*
X138077684Y-115999057D01*
X138077684Y-115999057D02*
X138111017Y-116094295D01*
X138111017Y-116094295D02*
X138111017Y-116189533D01*
X138111017Y-116189533D02*
X138077684Y-116284771D01*
X138077684Y-116284771D02*
X138044350Y-116332390D01*
X138044350Y-116332390D02*
X137977684Y-116380009D01*
X137977684Y-116380009D02*
X137744350Y-116380009D01*
X138811017Y-116903819D02*
X138411017Y-116903819D01*
X138611017Y-116903819D02*
X138611017Y-115903819D01*
X138611017Y-115903819D02*
X138544350Y-116046676D01*
X138544350Y-116046676D02*
X138477684Y-116141914D01*
X138477684Y-116141914D02*
X138411017Y-116189533D01*
X139644350Y-116903819D02*
X139644350Y-115903819D01*
X139644350Y-115903819D02*
X139911017Y-115903819D01*
X139911017Y-115903819D02*
X139977684Y-115951438D01*
X139977684Y-115951438D02*
X140011017Y-115999057D01*
X140011017Y-115999057D02*
X140044350Y-116094295D01*
X140044350Y-116094295D02*
X140044350Y-116237152D01*
X140044350Y-116237152D02*
X140011017Y-116332390D01*
X140011017Y-116332390D02*
X139977684Y-116380009D01*
X139977684Y-116380009D02*
X139911017Y-116427628D01*
X139911017Y-116427628D02*
X139644350Y-116427628D01*
X140577684Y-116380009D02*
X140677684Y-116427628D01*
X140677684Y-116427628D02*
X140711017Y-116475247D01*
X140711017Y-116475247D02*
X140744350Y-116570485D01*
X140744350Y-116570485D02*
X140744350Y-116713342D01*
X140744350Y-116713342D02*
X140711017Y-116808580D01*
X140711017Y-116808580D02*
X140677684Y-116856200D01*
X140677684Y-116856200D02*
X140611017Y-116903819D01*
X140611017Y-116903819D02*
X140344350Y-116903819D01*
X140344350Y-116903819D02*
X140344350Y-115903819D01*
X140344350Y-115903819D02*
X140577684Y-115903819D01*
X140577684Y-115903819D02*
X140644350Y-115951438D01*
X140644350Y-115951438D02*
X140677684Y-115999057D01*
X140677684Y-115999057D02*
X140711017Y-116094295D01*
X140711017Y-116094295D02*
X140711017Y-116189533D01*
X140711017Y-116189533D02*
X140677684Y-116284771D01*
X140677684Y-116284771D02*
X140644350Y-116332390D01*
X140644350Y-116332390D02*
X140577684Y-116380009D01*
X140577684Y-116380009D02*
X140344350Y-116380009D01*
X141011017Y-115999057D02*
X141044350Y-115951438D01*
X141044350Y-115951438D02*
X141111017Y-115903819D01*
X141111017Y-115903819D02*
X141277684Y-115903819D01*
X141277684Y-115903819D02*
X141344350Y-115951438D01*
X141344350Y-115951438D02*
X141377684Y-115999057D01*
X141377684Y-115999057D02*
X141411017Y-116094295D01*
X141411017Y-116094295D02*
X141411017Y-116189533D01*
X141411017Y-116189533D02*
X141377684Y-116332390D01*
X141377684Y-116332390D02*
X140977684Y-116903819D01*
X140977684Y-116903819D02*
X141411017Y-116903819D01*
X142244350Y-116903819D02*
X142244350Y-115903819D01*
X142244350Y-115903819D02*
X142511017Y-115903819D01*
X142511017Y-115903819D02*
X142577684Y-115951438D01*
X142577684Y-115951438D02*
X142611017Y-115999057D01*
X142611017Y-115999057D02*
X142644350Y-116094295D01*
X142644350Y-116094295D02*
X142644350Y-116237152D01*
X142644350Y-116237152D02*
X142611017Y-116332390D01*
X142611017Y-116332390D02*
X142577684Y-116380009D01*
X142577684Y-116380009D02*
X142511017Y-116427628D01*
X142511017Y-116427628D02*
X142244350Y-116427628D01*
X143177684Y-116380009D02*
X143277684Y-116427628D01*
X143277684Y-116427628D02*
X143311017Y-116475247D01*
X143311017Y-116475247D02*
X143344350Y-116570485D01*
X143344350Y-116570485D02*
X143344350Y-116713342D01*
X143344350Y-116713342D02*
X143311017Y-116808580D01*
X143311017Y-116808580D02*
X143277684Y-116856200D01*
X143277684Y-116856200D02*
X143211017Y-116903819D01*
X143211017Y-116903819D02*
X142944350Y-116903819D01*
X142944350Y-116903819D02*
X142944350Y-115903819D01*
X142944350Y-115903819D02*
X143177684Y-115903819D01*
X143177684Y-115903819D02*
X143244350Y-115951438D01*
X143244350Y-115951438D02*
X143277684Y-115999057D01*
X143277684Y-115999057D02*
X143311017Y-116094295D01*
X143311017Y-116094295D02*
X143311017Y-116189533D01*
X143311017Y-116189533D02*
X143277684Y-116284771D01*
X143277684Y-116284771D02*
X143244350Y-116332390D01*
X143244350Y-116332390D02*
X143177684Y-116380009D01*
X143177684Y-116380009D02*
X142944350Y-116380009D01*
X143577684Y-115903819D02*
X144011017Y-115903819D01*
X144011017Y-115903819D02*
X143777684Y-116284771D01*
X143777684Y-116284771D02*
X143877684Y-116284771D01*
X143877684Y-116284771D02*
X143944350Y-116332390D01*
X143944350Y-116332390D02*
X143977684Y-116380009D01*
X143977684Y-116380009D02*
X144011017Y-116475247D01*
X144011017Y-116475247D02*
X144011017Y-116713342D01*
X144011017Y-116713342D02*
X143977684Y-116808580D01*
X143977684Y-116808580D02*
X143944350Y-116856200D01*
X143944350Y-116856200D02*
X143877684Y-116903819D01*
X143877684Y-116903819D02*
X143677684Y-116903819D01*
X143677684Y-116903819D02*
X143611017Y-116856200D01*
X143611017Y-116856200D02*
X143577684Y-116808580D01*
X144844350Y-116903819D02*
X144844350Y-115903819D01*
X144844350Y-115903819D02*
X145111017Y-115903819D01*
X145111017Y-115903819D02*
X145177684Y-115951438D01*
X145177684Y-115951438D02*
X145211017Y-115999057D01*
X145211017Y-115999057D02*
X145244350Y-116094295D01*
X145244350Y-116094295D02*
X145244350Y-116237152D01*
X145244350Y-116237152D02*
X145211017Y-116332390D01*
X145211017Y-116332390D02*
X145177684Y-116380009D01*
X145177684Y-116380009D02*
X145111017Y-116427628D01*
X145111017Y-116427628D02*
X144844350Y-116427628D01*
X145777684Y-116380009D02*
X145877684Y-116427628D01*
X145877684Y-116427628D02*
X145911017Y-116475247D01*
X145911017Y-116475247D02*
X145944350Y-116570485D01*
X145944350Y-116570485D02*
X145944350Y-116713342D01*
X145944350Y-116713342D02*
X145911017Y-116808580D01*
X145911017Y-116808580D02*
X145877684Y-116856200D01*
X145877684Y-116856200D02*
X145811017Y-116903819D01*
X145811017Y-116903819D02*
X145544350Y-116903819D01*
X145544350Y-116903819D02*
X145544350Y-115903819D01*
X145544350Y-115903819D02*
X145777684Y-115903819D01*
X145777684Y-115903819D02*
X145844350Y-115951438D01*
X145844350Y-115951438D02*
X145877684Y-115999057D01*
X145877684Y-115999057D02*
X145911017Y-116094295D01*
X145911017Y-116094295D02*
X145911017Y-116189533D01*
X145911017Y-116189533D02*
X145877684Y-116284771D01*
X145877684Y-116284771D02*
X145844350Y-116332390D01*
X145844350Y-116332390D02*
X145777684Y-116380009D01*
X145777684Y-116380009D02*
X145544350Y-116380009D01*
X146544350Y-116237152D02*
X146544350Y-116903819D01*
X146377684Y-115856200D02*
X146211017Y-116570485D01*
X146211017Y-116570485D02*
X146644350Y-116570485D01*
X147444350Y-116903819D02*
X147444350Y-115903819D01*
X147444350Y-115903819D02*
X147711017Y-115903819D01*
X147711017Y-115903819D02*
X147777684Y-115951438D01*
X147777684Y-115951438D02*
X147811017Y-115999057D01*
X147811017Y-115999057D02*
X147844350Y-116094295D01*
X147844350Y-116094295D02*
X147844350Y-116237152D01*
X147844350Y-116237152D02*
X147811017Y-116332390D01*
X147811017Y-116332390D02*
X147777684Y-116380009D01*
X147777684Y-116380009D02*
X147711017Y-116427628D01*
X147711017Y-116427628D02*
X147444350Y-116427628D01*
X148377684Y-116380009D02*
X148477684Y-116427628D01*
X148477684Y-116427628D02*
X148511017Y-116475247D01*
X148511017Y-116475247D02*
X148544350Y-116570485D01*
X148544350Y-116570485D02*
X148544350Y-116713342D01*
X148544350Y-116713342D02*
X148511017Y-116808580D01*
X148511017Y-116808580D02*
X148477684Y-116856200D01*
X148477684Y-116856200D02*
X148411017Y-116903819D01*
X148411017Y-116903819D02*
X148144350Y-116903819D01*
X148144350Y-116903819D02*
X148144350Y-115903819D01*
X148144350Y-115903819D02*
X148377684Y-115903819D01*
X148377684Y-115903819D02*
X148444350Y-115951438D01*
X148444350Y-115951438D02*
X148477684Y-115999057D01*
X148477684Y-115999057D02*
X148511017Y-116094295D01*
X148511017Y-116094295D02*
X148511017Y-116189533D01*
X148511017Y-116189533D02*
X148477684Y-116284771D01*
X148477684Y-116284771D02*
X148444350Y-116332390D01*
X148444350Y-116332390D02*
X148377684Y-116380009D01*
X148377684Y-116380009D02*
X148144350Y-116380009D01*
X149177684Y-115903819D02*
X148844350Y-115903819D01*
X148844350Y-115903819D02*
X148811017Y-116380009D01*
X148811017Y-116380009D02*
X148844350Y-116332390D01*
X148844350Y-116332390D02*
X148911017Y-116284771D01*
X148911017Y-116284771D02*
X149077684Y-116284771D01*
X149077684Y-116284771D02*
X149144350Y-116332390D01*
X149144350Y-116332390D02*
X149177684Y-116380009D01*
X149177684Y-116380009D02*
X149211017Y-116475247D01*
X149211017Y-116475247D02*
X149211017Y-116713342D01*
X149211017Y-116713342D02*
X149177684Y-116808580D01*
X149177684Y-116808580D02*
X149144350Y-116856200D01*
X149144350Y-116856200D02*
X149077684Y-116903819D01*
X149077684Y-116903819D02*
X148911017Y-116903819D01*
X148911017Y-116903819D02*
X148844350Y-116856200D01*
X148844350Y-116856200D02*
X148811017Y-116808580D01*
D14*
X137479199Y-112735385D02*
X137479199Y-112435385D01*
X137479199Y-112435385D02*
X137707770Y-112435385D01*
X137707770Y-112435385D02*
X137764913Y-112449671D01*
X137764913Y-112449671D02*
X137793484Y-112463957D01*
X137793484Y-112463957D02*
X137822056Y-112492528D01*
X137822056Y-112492528D02*
X137822056Y-112535385D01*
X137822056Y-112535385D02*
X137793484Y-112563957D01*
X137793484Y-112563957D02*
X137764913Y-112578242D01*
X137764913Y-112578242D02*
X137707770Y-112592528D01*
X137707770Y-112592528D02*
X137479199Y-112592528D01*
X138279199Y-112578242D02*
X138364913Y-112592528D01*
X138364913Y-112592528D02*
X138393484Y-112606814D01*
X138393484Y-112606814D02*
X138422056Y-112635385D01*
X138422056Y-112635385D02*
X138422056Y-112678242D01*
X138422056Y-112678242D02*
X138393484Y-112706814D01*
X138393484Y-112706814D02*
X138364913Y-112721100D01*
X138364913Y-112721100D02*
X138307770Y-112735385D01*
X138307770Y-112735385D02*
X138079199Y-112735385D01*
X138079199Y-112735385D02*
X138079199Y-112435385D01*
X138079199Y-112435385D02*
X138279199Y-112435385D01*
X138279199Y-112435385D02*
X138336342Y-112449671D01*
X138336342Y-112449671D02*
X138364913Y-112463957D01*
X138364913Y-112463957D02*
X138393484Y-112492528D01*
X138393484Y-112492528D02*
X138393484Y-112521100D01*
X138393484Y-112521100D02*
X138364913Y-112549671D01*
X138364913Y-112549671D02*
X138336342Y-112563957D01*
X138336342Y-112563957D02*
X138279199Y-112578242D01*
X138279199Y-112578242D02*
X138079199Y-112578242D01*
X138964913Y-112435385D02*
X138679199Y-112435385D01*
X138679199Y-112435385D02*
X138650627Y-112578242D01*
X138650627Y-112578242D02*
X138679199Y-112563957D01*
X138679199Y-112563957D02*
X138736342Y-112549671D01*
X138736342Y-112549671D02*
X138879199Y-112549671D01*
X138879199Y-112549671D02*
X138936342Y-112563957D01*
X138936342Y-112563957D02*
X138964913Y-112578242D01*
X138964913Y-112578242D02*
X138993484Y-112606814D01*
X138993484Y-112606814D02*
X138993484Y-112678242D01*
X138993484Y-112678242D02*
X138964913Y-112706814D01*
X138964913Y-112706814D02*
X138936342Y-112721100D01*
X138936342Y-112721100D02*
X138879199Y-112735385D01*
X138879199Y-112735385D02*
X138736342Y-112735385D01*
X138736342Y-112735385D02*
X138679199Y-112721100D01*
X138679199Y-112721100D02*
X138650627Y-112706814D01*
X139707771Y-112735385D02*
X139707771Y-112435385D01*
X139707771Y-112435385D02*
X139936342Y-112435385D01*
X139936342Y-112435385D02*
X139993485Y-112449671D01*
X139993485Y-112449671D02*
X140022056Y-112463957D01*
X140022056Y-112463957D02*
X140050628Y-112492528D01*
X140050628Y-112492528D02*
X140050628Y-112535385D01*
X140050628Y-112535385D02*
X140022056Y-112563957D01*
X140022056Y-112563957D02*
X139993485Y-112578242D01*
X139993485Y-112578242D02*
X139936342Y-112592528D01*
X139936342Y-112592528D02*
X139707771Y-112592528D01*
X140507771Y-112578242D02*
X140593485Y-112592528D01*
X140593485Y-112592528D02*
X140622056Y-112606814D01*
X140622056Y-112606814D02*
X140650628Y-112635385D01*
X140650628Y-112635385D02*
X140650628Y-112678242D01*
X140650628Y-112678242D02*
X140622056Y-112706814D01*
X140622056Y-112706814D02*
X140593485Y-112721100D01*
X140593485Y-112721100D02*
X140536342Y-112735385D01*
X140536342Y-112735385D02*
X140307771Y-112735385D01*
X140307771Y-112735385D02*
X140307771Y-112435385D01*
X140307771Y-112435385D02*
X140507771Y-112435385D01*
X140507771Y-112435385D02*
X140564914Y-112449671D01*
X140564914Y-112449671D02*
X140593485Y-112463957D01*
X140593485Y-112463957D02*
X140622056Y-112492528D01*
X140622056Y-112492528D02*
X140622056Y-112521100D01*
X140622056Y-112521100D02*
X140593485Y-112549671D01*
X140593485Y-112549671D02*
X140564914Y-112563957D01*
X140564914Y-112563957D02*
X140507771Y-112578242D01*
X140507771Y-112578242D02*
X140307771Y-112578242D01*
X140850628Y-112435385D02*
X141222056Y-112435385D01*
X141222056Y-112435385D02*
X141022056Y-112549671D01*
X141022056Y-112549671D02*
X141107771Y-112549671D01*
X141107771Y-112549671D02*
X141164914Y-112563957D01*
X141164914Y-112563957D02*
X141193485Y-112578242D01*
X141193485Y-112578242D02*
X141222056Y-112606814D01*
X141222056Y-112606814D02*
X141222056Y-112678242D01*
X141222056Y-112678242D02*
X141193485Y-112706814D01*
X141193485Y-112706814D02*
X141164914Y-112721100D01*
X141164914Y-112721100D02*
X141107771Y-112735385D01*
X141107771Y-112735385D02*
X140936342Y-112735385D01*
X140936342Y-112735385D02*
X140879199Y-112721100D01*
X140879199Y-112721100D02*
X140850628Y-112706814D01*
X141936343Y-112735385D02*
X141936343Y-112435385D01*
X141936343Y-112435385D02*
X142164914Y-112435385D01*
X142164914Y-112435385D02*
X142222057Y-112449671D01*
X142222057Y-112449671D02*
X142250628Y-112463957D01*
X142250628Y-112463957D02*
X142279200Y-112492528D01*
X142279200Y-112492528D02*
X142279200Y-112535385D01*
X142279200Y-112535385D02*
X142250628Y-112563957D01*
X142250628Y-112563957D02*
X142222057Y-112578242D01*
X142222057Y-112578242D02*
X142164914Y-112592528D01*
X142164914Y-112592528D02*
X141936343Y-112592528D01*
X142736343Y-112578242D02*
X142822057Y-112592528D01*
X142822057Y-112592528D02*
X142850628Y-112606814D01*
X142850628Y-112606814D02*
X142879200Y-112635385D01*
X142879200Y-112635385D02*
X142879200Y-112678242D01*
X142879200Y-112678242D02*
X142850628Y-112706814D01*
X142850628Y-112706814D02*
X142822057Y-112721100D01*
X142822057Y-112721100D02*
X142764914Y-112735385D01*
X142764914Y-112735385D02*
X142536343Y-112735385D01*
X142536343Y-112735385D02*
X142536343Y-112435385D01*
X142536343Y-112435385D02*
X142736343Y-112435385D01*
X142736343Y-112435385D02*
X142793486Y-112449671D01*
X142793486Y-112449671D02*
X142822057Y-112463957D01*
X142822057Y-112463957D02*
X142850628Y-112492528D01*
X142850628Y-112492528D02*
X142850628Y-112521100D01*
X142850628Y-112521100D02*
X142822057Y-112549671D01*
X142822057Y-112549671D02*
X142793486Y-112563957D01*
X142793486Y-112563957D02*
X142736343Y-112578242D01*
X142736343Y-112578242D02*
X142536343Y-112578242D01*
X143393486Y-112535385D02*
X143393486Y-112735385D01*
X143250628Y-112421100D02*
X143107771Y-112635385D01*
X143107771Y-112635385D02*
X143479200Y-112635385D01*
X138879342Y-80331766D02*
X138979342Y-80365100D01*
X138979342Y-80365100D02*
X139012675Y-80398433D01*
X139012675Y-80398433D02*
X139046008Y-80465100D01*
X139046008Y-80465100D02*
X139046008Y-80565100D01*
X139046008Y-80565100D02*
X139012675Y-80631766D01*
X139012675Y-80631766D02*
X138979342Y-80665100D01*
X138979342Y-80665100D02*
X138912675Y-80698433D01*
X138912675Y-80698433D02*
X138646008Y-80698433D01*
X138646008Y-80698433D02*
X138646008Y-79998433D01*
X138646008Y-79998433D02*
X138879342Y-79998433D01*
X138879342Y-79998433D02*
X138946008Y-80031766D01*
X138946008Y-80031766D02*
X138979342Y-80065100D01*
X138979342Y-80065100D02*
X139012675Y-80131766D01*
X139012675Y-80131766D02*
X139012675Y-80198433D01*
X139012675Y-80198433D02*
X138979342Y-80265100D01*
X138979342Y-80265100D02*
X138946008Y-80298433D01*
X138946008Y-80298433D02*
X138879342Y-80331766D01*
X138879342Y-80331766D02*
X138646008Y-80331766D01*
X139312675Y-80498433D02*
X139646008Y-80498433D01*
X139246008Y-80698433D02*
X139479342Y-79998433D01*
X139479342Y-79998433D02*
X139712675Y-80698433D01*
X139846008Y-79998433D02*
X140246008Y-79998433D01*
X140046008Y-80698433D02*
X140046008Y-79998433D01*
X140879341Y-80631766D02*
X140846008Y-80665100D01*
X140846008Y-80665100D02*
X140746008Y-80698433D01*
X140746008Y-80698433D02*
X140679341Y-80698433D01*
X140679341Y-80698433D02*
X140579341Y-80665100D01*
X140579341Y-80665100D02*
X140512675Y-80598433D01*
X140512675Y-80598433D02*
X140479341Y-80531766D01*
X140479341Y-80531766D02*
X140446008Y-80398433D01*
X140446008Y-80398433D02*
X140446008Y-80298433D01*
X140446008Y-80298433D02*
X140479341Y-80165100D01*
X140479341Y-80165100D02*
X140512675Y-80098433D01*
X140512675Y-80098433D02*
X140579341Y-80031766D01*
X140579341Y-80031766D02*
X140679341Y-79998433D01*
X140679341Y-79998433D02*
X140746008Y-79998433D01*
X140746008Y-79998433D02*
X140846008Y-80031766D01*
X140846008Y-80031766D02*
X140879341Y-80065100D01*
X141179341Y-80698433D02*
X141179341Y-79998433D01*
X141179341Y-80331766D02*
X141579341Y-80331766D01*
X141579341Y-80698433D02*
X141579341Y-79998433D01*
X142446007Y-80698433D02*
X142446007Y-79998433D01*
X142446007Y-79998433D02*
X142846007Y-80698433D01*
X142846007Y-80698433D02*
X142846007Y-79998433D01*
X143179340Y-79998433D02*
X143179340Y-80565100D01*
X143179340Y-80565100D02*
X143212674Y-80631766D01*
X143212674Y-80631766D02*
X143246007Y-80665100D01*
X143246007Y-80665100D02*
X143312674Y-80698433D01*
X143312674Y-80698433D02*
X143446007Y-80698433D01*
X143446007Y-80698433D02*
X143512674Y-80665100D01*
X143512674Y-80665100D02*
X143546007Y-80631766D01*
X143546007Y-80631766D02*
X143579340Y-80565100D01*
X143579340Y-80565100D02*
X143579340Y-79998433D01*
X143912673Y-80698433D02*
X143912673Y-79998433D01*
X143912673Y-79998433D02*
X144146007Y-80498433D01*
X144146007Y-80498433D02*
X144379340Y-79998433D01*
X144379340Y-79998433D02*
X144379340Y-80698433D01*
X144712673Y-80631766D02*
X144746007Y-80665100D01*
X144746007Y-80665100D02*
X144712673Y-80698433D01*
X144712673Y-80698433D02*
X144679340Y-80665100D01*
X144679340Y-80665100D02*
X144712673Y-80631766D01*
X144712673Y-80631766D02*
X144712673Y-80698433D01*
X144712673Y-80265100D02*
X144746007Y-80298433D01*
X144746007Y-80298433D02*
X144712673Y-80331766D01*
X144712673Y-80331766D02*
X144679340Y-80298433D01*
X144679340Y-80298433D02*
X144712673Y-80265100D01*
X144712673Y-80265100D02*
X144712673Y-80331766D01*
X138846008Y-81125433D02*
X138846008Y-81625433D01*
X138846008Y-81625433D02*
X138812675Y-81725433D01*
X138812675Y-81725433D02*
X138746008Y-81792100D01*
X138746008Y-81792100D02*
X138646008Y-81825433D01*
X138646008Y-81825433D02*
X138579342Y-81825433D01*
X139512675Y-81825433D02*
X139179341Y-81825433D01*
X139179341Y-81825433D02*
X139179341Y-81125433D01*
X140146008Y-81758766D02*
X140112675Y-81792100D01*
X140112675Y-81792100D02*
X140012675Y-81825433D01*
X140012675Y-81825433D02*
X139946008Y-81825433D01*
X139946008Y-81825433D02*
X139846008Y-81792100D01*
X139846008Y-81792100D02*
X139779342Y-81725433D01*
X139779342Y-81725433D02*
X139746008Y-81658766D01*
X139746008Y-81658766D02*
X139712675Y-81525433D01*
X139712675Y-81525433D02*
X139712675Y-81425433D01*
X139712675Y-81425433D02*
X139746008Y-81292100D01*
X139746008Y-81292100D02*
X139779342Y-81225433D01*
X139779342Y-81225433D02*
X139846008Y-81158766D01*
X139846008Y-81158766D02*
X139946008Y-81125433D01*
X139946008Y-81125433D02*
X140012675Y-81125433D01*
X140012675Y-81125433D02*
X140112675Y-81158766D01*
X140112675Y-81158766D02*
X140146008Y-81192100D01*
X140646008Y-81125433D02*
X140646008Y-81625433D01*
X140646008Y-81625433D02*
X140612675Y-81725433D01*
X140612675Y-81725433D02*
X140546008Y-81792100D01*
X140546008Y-81792100D02*
X140446008Y-81825433D01*
X140446008Y-81825433D02*
X140379342Y-81825433D01*
X141312675Y-81825433D02*
X140979341Y-81825433D01*
X140979341Y-81825433D02*
X140979341Y-81125433D01*
X141946008Y-81758766D02*
X141912675Y-81792100D01*
X141912675Y-81792100D02*
X141812675Y-81825433D01*
X141812675Y-81825433D02*
X141746008Y-81825433D01*
X141746008Y-81825433D02*
X141646008Y-81792100D01*
X141646008Y-81792100D02*
X141579342Y-81725433D01*
X141579342Y-81725433D02*
X141546008Y-81658766D01*
X141546008Y-81658766D02*
X141512675Y-81525433D01*
X141512675Y-81525433D02*
X141512675Y-81425433D01*
X141512675Y-81425433D02*
X141546008Y-81292100D01*
X141546008Y-81292100D02*
X141579342Y-81225433D01*
X141579342Y-81225433D02*
X141646008Y-81158766D01*
X141646008Y-81158766D02*
X141746008Y-81125433D01*
X141746008Y-81125433D02*
X141812675Y-81125433D01*
X141812675Y-81125433D02*
X141912675Y-81158766D01*
X141912675Y-81158766D02*
X141946008Y-81192100D01*
X142446008Y-81125433D02*
X142446008Y-81625433D01*
X142446008Y-81625433D02*
X142412675Y-81725433D01*
X142412675Y-81725433D02*
X142346008Y-81792100D01*
X142346008Y-81792100D02*
X142246008Y-81825433D01*
X142246008Y-81825433D02*
X142179342Y-81825433D01*
X143112675Y-81825433D02*
X142779341Y-81825433D01*
X142779341Y-81825433D02*
X142779341Y-81125433D01*
X143746008Y-81758766D02*
X143712675Y-81792100D01*
X143712675Y-81792100D02*
X143612675Y-81825433D01*
X143612675Y-81825433D02*
X143546008Y-81825433D01*
X143546008Y-81825433D02*
X143446008Y-81792100D01*
X143446008Y-81792100D02*
X143379342Y-81725433D01*
X143379342Y-81725433D02*
X143346008Y-81658766D01*
X143346008Y-81658766D02*
X143312675Y-81525433D01*
X143312675Y-81525433D02*
X143312675Y-81425433D01*
X143312675Y-81425433D02*
X143346008Y-81292100D01*
X143346008Y-81292100D02*
X143379342Y-81225433D01*
X143379342Y-81225433D02*
X143446008Y-81158766D01*
X143446008Y-81158766D02*
X143546008Y-81125433D01*
X143546008Y-81125433D02*
X143612675Y-81125433D01*
X143612675Y-81125433D02*
X143712675Y-81158766D01*
X143712675Y-81158766D02*
X143746008Y-81192100D01*
X147540770Y-97592242D02*
X147440770Y-97592242D01*
X147440770Y-97749385D02*
X147440770Y-97449385D01*
X147440770Y-97449385D02*
X147583627Y-97449385D01*
X147697913Y-97749385D02*
X147697913Y-97549385D01*
X147697913Y-97606528D02*
X147712199Y-97577957D01*
X147712199Y-97577957D02*
X147726485Y-97563671D01*
X147726485Y-97563671D02*
X147755056Y-97549385D01*
X147755056Y-97549385D02*
X147783627Y-97549385D01*
X147997913Y-97735100D02*
X147969341Y-97749385D01*
X147969341Y-97749385D02*
X147912199Y-97749385D01*
X147912199Y-97749385D02*
X147883627Y-97735100D01*
X147883627Y-97735100D02*
X147869341Y-97706528D01*
X147869341Y-97706528D02*
X147869341Y-97592242D01*
X147869341Y-97592242D02*
X147883627Y-97563671D01*
X147883627Y-97563671D02*
X147912199Y-97549385D01*
X147912199Y-97549385D02*
X147969341Y-97549385D01*
X147969341Y-97549385D02*
X147997913Y-97563671D01*
X147997913Y-97563671D02*
X148012199Y-97592242D01*
X148012199Y-97592242D02*
X148012199Y-97620814D01*
X148012199Y-97620814D02*
X147869341Y-97649385D01*
X148269342Y-97549385D02*
X148269342Y-97849385D01*
X148269342Y-97735100D02*
X148240770Y-97749385D01*
X148240770Y-97749385D02*
X148183627Y-97749385D01*
X148183627Y-97749385D02*
X148155056Y-97735100D01*
X148155056Y-97735100D02*
X148140770Y-97720814D01*
X148140770Y-97720814D02*
X148126484Y-97692242D01*
X148126484Y-97692242D02*
X148126484Y-97606528D01*
X148126484Y-97606528D02*
X148140770Y-97577957D01*
X148140770Y-97577957D02*
X148155056Y-97563671D01*
X148155056Y-97563671D02*
X148183627Y-97549385D01*
X148183627Y-97549385D02*
X148240770Y-97549385D01*
X148240770Y-97549385D02*
X148269342Y-97563671D01*
X148412199Y-97720814D02*
X148426485Y-97735100D01*
X148426485Y-97735100D02*
X148412199Y-97749385D01*
X148412199Y-97749385D02*
X148397913Y-97735100D01*
X148397913Y-97735100D02*
X148412199Y-97720814D01*
X148412199Y-97720814D02*
X148412199Y-97749385D01*
X148940770Y-97749385D02*
X148769341Y-97749385D01*
X148855056Y-97749385D02*
X148855056Y-97449385D01*
X148855056Y-97449385D02*
X148826484Y-97492242D01*
X148826484Y-97492242D02*
X148797913Y-97520814D01*
X148797913Y-97520814D02*
X148769341Y-97535100D01*
X149197913Y-97549385D02*
X149197913Y-97749385D01*
X149126484Y-97435100D02*
X149055055Y-97649385D01*
X149055055Y-97649385D02*
X149240770Y-97649385D01*
X149355055Y-97720814D02*
X149369341Y-97735100D01*
X149369341Y-97735100D02*
X149355055Y-97749385D01*
X149355055Y-97749385D02*
X149340769Y-97735100D01*
X149340769Y-97735100D02*
X149355055Y-97720814D01*
X149355055Y-97720814D02*
X149355055Y-97749385D01*
X149469341Y-97449385D02*
X149655055Y-97449385D01*
X149655055Y-97449385D02*
X149555055Y-97563671D01*
X149555055Y-97563671D02*
X149597912Y-97563671D01*
X149597912Y-97563671D02*
X149626484Y-97577957D01*
X149626484Y-97577957D02*
X149640769Y-97592242D01*
X149640769Y-97592242D02*
X149655055Y-97620814D01*
X149655055Y-97620814D02*
X149655055Y-97692242D01*
X149655055Y-97692242D02*
X149640769Y-97720814D01*
X149640769Y-97720814D02*
X149626484Y-97735100D01*
X149626484Y-97735100D02*
X149597912Y-97749385D01*
X149597912Y-97749385D02*
X149512198Y-97749385D01*
X149512198Y-97749385D02*
X149483626Y-97735100D01*
X149483626Y-97735100D02*
X149469341Y-97720814D01*
X149940769Y-97749385D02*
X149769340Y-97749385D01*
X149855055Y-97749385D02*
X149855055Y-97449385D01*
X149855055Y-97449385D02*
X149826483Y-97492242D01*
X149826483Y-97492242D02*
X149797912Y-97520814D01*
X149797912Y-97520814D02*
X149769340Y-97535100D01*
X150112197Y-97577957D02*
X150083626Y-97563671D01*
X150083626Y-97563671D02*
X150069340Y-97549385D01*
X150069340Y-97549385D02*
X150055054Y-97520814D01*
X150055054Y-97520814D02*
X150055054Y-97506528D01*
X150055054Y-97506528D02*
X150069340Y-97477957D01*
X150069340Y-97477957D02*
X150083626Y-97463671D01*
X150083626Y-97463671D02*
X150112197Y-97449385D01*
X150112197Y-97449385D02*
X150169340Y-97449385D01*
X150169340Y-97449385D02*
X150197912Y-97463671D01*
X150197912Y-97463671D02*
X150212197Y-97477957D01*
X150212197Y-97477957D02*
X150226483Y-97506528D01*
X150226483Y-97506528D02*
X150226483Y-97520814D01*
X150226483Y-97520814D02*
X150212197Y-97549385D01*
X150212197Y-97549385D02*
X150197912Y-97563671D01*
X150197912Y-97563671D02*
X150169340Y-97577957D01*
X150169340Y-97577957D02*
X150112197Y-97577957D01*
X150112197Y-97577957D02*
X150083626Y-97592242D01*
X150083626Y-97592242D02*
X150069340Y-97606528D01*
X150069340Y-97606528D02*
X150055054Y-97635100D01*
X150055054Y-97635100D02*
X150055054Y-97692242D01*
X150055054Y-97692242D02*
X150069340Y-97720814D01*
X150069340Y-97720814D02*
X150083626Y-97735100D01*
X150083626Y-97735100D02*
X150112197Y-97749385D01*
X150112197Y-97749385D02*
X150169340Y-97749385D01*
X150169340Y-97749385D02*
X150197912Y-97735100D01*
X150197912Y-97735100D02*
X150212197Y-97720814D01*
X150212197Y-97720814D02*
X150226483Y-97692242D01*
X150226483Y-97692242D02*
X150226483Y-97635100D01*
X150226483Y-97635100D02*
X150212197Y-97606528D01*
X150212197Y-97606528D02*
X150197912Y-97592242D01*
X150197912Y-97592242D02*
X150169340Y-97577957D01*
X150355054Y-97749385D02*
X150355054Y-97449385D01*
X150355054Y-97449385D02*
X150455054Y-97663671D01*
X150455054Y-97663671D02*
X150555054Y-97449385D01*
X150555054Y-97449385D02*
X150555054Y-97749385D01*
X150697911Y-97749385D02*
X150697911Y-97449385D01*
X150697911Y-97592242D02*
X150869340Y-97592242D01*
X150869340Y-97749385D02*
X150869340Y-97449385D01*
X150983626Y-97549385D02*
X151140769Y-97549385D01*
X151140769Y-97549385D02*
X150983626Y-97749385D01*
X150983626Y-97749385D02*
X151140769Y-97749385D01*
X140019199Y-107401385D02*
X140019199Y-107101385D01*
X140019199Y-107101385D02*
X140247770Y-107101385D01*
X140247770Y-107101385D02*
X140304913Y-107115671D01*
X140304913Y-107115671D02*
X140333484Y-107129957D01*
X140333484Y-107129957D02*
X140362056Y-107158528D01*
X140362056Y-107158528D02*
X140362056Y-107201385D01*
X140362056Y-107201385D02*
X140333484Y-107229957D01*
X140333484Y-107229957D02*
X140304913Y-107244242D01*
X140304913Y-107244242D02*
X140247770Y-107258528D01*
X140247770Y-107258528D02*
X140019199Y-107258528D01*
X140819199Y-107244242D02*
X140904913Y-107258528D01*
X140904913Y-107258528D02*
X140933484Y-107272814D01*
X140933484Y-107272814D02*
X140962056Y-107301385D01*
X140962056Y-107301385D02*
X140962056Y-107344242D01*
X140962056Y-107344242D02*
X140933484Y-107372814D01*
X140933484Y-107372814D02*
X140904913Y-107387100D01*
X140904913Y-107387100D02*
X140847770Y-107401385D01*
X140847770Y-107401385D02*
X140619199Y-107401385D01*
X140619199Y-107401385D02*
X140619199Y-107101385D01*
X140619199Y-107101385D02*
X140819199Y-107101385D01*
X140819199Y-107101385D02*
X140876342Y-107115671D01*
X140876342Y-107115671D02*
X140904913Y-107129957D01*
X140904913Y-107129957D02*
X140933484Y-107158528D01*
X140933484Y-107158528D02*
X140933484Y-107187100D01*
X140933484Y-107187100D02*
X140904913Y-107215671D01*
X140904913Y-107215671D02*
X140876342Y-107229957D01*
X140876342Y-107229957D02*
X140819199Y-107244242D01*
X140819199Y-107244242D02*
X140619199Y-107244242D01*
X141190627Y-107129957D02*
X141219199Y-107115671D01*
X141219199Y-107115671D02*
X141276342Y-107101385D01*
X141276342Y-107101385D02*
X141419199Y-107101385D01*
X141419199Y-107101385D02*
X141476342Y-107115671D01*
X141476342Y-107115671D02*
X141504913Y-107129957D01*
X141504913Y-107129957D02*
X141533484Y-107158528D01*
X141533484Y-107158528D02*
X141533484Y-107187100D01*
X141533484Y-107187100D02*
X141504913Y-107229957D01*
X141504913Y-107229957D02*
X141162056Y-107401385D01*
X141162056Y-107401385D02*
X141533484Y-107401385D01*
X142247771Y-107401385D02*
X142247771Y-107101385D01*
X142247771Y-107101385D02*
X142476342Y-107101385D01*
X142476342Y-107101385D02*
X142533485Y-107115671D01*
X142533485Y-107115671D02*
X142562056Y-107129957D01*
X142562056Y-107129957D02*
X142590628Y-107158528D01*
X142590628Y-107158528D02*
X142590628Y-107201385D01*
X142590628Y-107201385D02*
X142562056Y-107229957D01*
X142562056Y-107229957D02*
X142533485Y-107244242D01*
X142533485Y-107244242D02*
X142476342Y-107258528D01*
X142476342Y-107258528D02*
X142247771Y-107258528D01*
X143047771Y-107244242D02*
X143133485Y-107258528D01*
X143133485Y-107258528D02*
X143162056Y-107272814D01*
X143162056Y-107272814D02*
X143190628Y-107301385D01*
X143190628Y-107301385D02*
X143190628Y-107344242D01*
X143190628Y-107344242D02*
X143162056Y-107372814D01*
X143162056Y-107372814D02*
X143133485Y-107387100D01*
X143133485Y-107387100D02*
X143076342Y-107401385D01*
X143076342Y-107401385D02*
X142847771Y-107401385D01*
X142847771Y-107401385D02*
X142847771Y-107101385D01*
X142847771Y-107101385D02*
X143047771Y-107101385D01*
X143047771Y-107101385D02*
X143104914Y-107115671D01*
X143104914Y-107115671D02*
X143133485Y-107129957D01*
X143133485Y-107129957D02*
X143162056Y-107158528D01*
X143162056Y-107158528D02*
X143162056Y-107187100D01*
X143162056Y-107187100D02*
X143133485Y-107215671D01*
X143133485Y-107215671D02*
X143104914Y-107229957D01*
X143104914Y-107229957D02*
X143047771Y-107244242D01*
X143047771Y-107244242D02*
X142847771Y-107244242D01*
X143762056Y-107401385D02*
X143419199Y-107401385D01*
X143590628Y-107401385D02*
X143590628Y-107101385D01*
X143590628Y-107101385D02*
X143533485Y-107144242D01*
X143533485Y-107144242D02*
X143476342Y-107172814D01*
X143476342Y-107172814D02*
X143419199Y-107187100D01*
X144476343Y-107401385D02*
X144476343Y-107101385D01*
X144476343Y-107101385D02*
X144704914Y-107101385D01*
X144704914Y-107101385D02*
X144762057Y-107115671D01*
X144762057Y-107115671D02*
X144790628Y-107129957D01*
X144790628Y-107129957D02*
X144819200Y-107158528D01*
X144819200Y-107158528D02*
X144819200Y-107201385D01*
X144819200Y-107201385D02*
X144790628Y-107229957D01*
X144790628Y-107229957D02*
X144762057Y-107244242D01*
X144762057Y-107244242D02*
X144704914Y-107258528D01*
X144704914Y-107258528D02*
X144476343Y-107258528D01*
X145276343Y-107244242D02*
X145362057Y-107258528D01*
X145362057Y-107258528D02*
X145390628Y-107272814D01*
X145390628Y-107272814D02*
X145419200Y-107301385D01*
X145419200Y-107301385D02*
X145419200Y-107344242D01*
X145419200Y-107344242D02*
X145390628Y-107372814D01*
X145390628Y-107372814D02*
X145362057Y-107387100D01*
X145362057Y-107387100D02*
X145304914Y-107401385D01*
X145304914Y-107401385D02*
X145076343Y-107401385D01*
X145076343Y-107401385D02*
X145076343Y-107101385D01*
X145076343Y-107101385D02*
X145276343Y-107101385D01*
X145276343Y-107101385D02*
X145333486Y-107115671D01*
X145333486Y-107115671D02*
X145362057Y-107129957D01*
X145362057Y-107129957D02*
X145390628Y-107158528D01*
X145390628Y-107158528D02*
X145390628Y-107187100D01*
X145390628Y-107187100D02*
X145362057Y-107215671D01*
X145362057Y-107215671D02*
X145333486Y-107229957D01*
X145333486Y-107229957D02*
X145276343Y-107244242D01*
X145276343Y-107244242D02*
X145076343Y-107244242D01*
X145790628Y-107101385D02*
X145847771Y-107101385D01*
X145847771Y-107101385D02*
X145904914Y-107115671D01*
X145904914Y-107115671D02*
X145933486Y-107129957D01*
X145933486Y-107129957D02*
X145962057Y-107158528D01*
X145962057Y-107158528D02*
X145990628Y-107215671D01*
X145990628Y-107215671D02*
X145990628Y-107287100D01*
X145990628Y-107287100D02*
X145962057Y-107344242D01*
X145962057Y-107344242D02*
X145933486Y-107372814D01*
X145933486Y-107372814D02*
X145904914Y-107387100D01*
X145904914Y-107387100D02*
X145847771Y-107401385D01*
X145847771Y-107401385D02*
X145790628Y-107401385D01*
X145790628Y-107401385D02*
X145733486Y-107387100D01*
X145733486Y-107387100D02*
X145704914Y-107372814D01*
X145704914Y-107372814D02*
X145676343Y-107344242D01*
X145676343Y-107344242D02*
X145647771Y-107287100D01*
X145647771Y-107287100D02*
X145647771Y-107215671D01*
X145647771Y-107215671D02*
X145676343Y-107158528D01*
X145676343Y-107158528D02*
X145704914Y-107129957D01*
X145704914Y-107129957D02*
X145733486Y-107115671D01*
X145733486Y-107115671D02*
X145790628Y-107101385D01*
D10*
X133826125Y-74781633D02*
X133826125Y-75317659D01*
X133450907Y-74192005D02*
X133826125Y-74781633D01*
X133826125Y-74781633D02*
X134201343Y-74192005D01*
X135166189Y-75317659D02*
X134522958Y-75317659D01*
X134844573Y-75317659D02*
X134844573Y-74192005D01*
X134844573Y-74192005D02*
X134737368Y-74352813D01*
X134737368Y-74352813D02*
X134630163Y-74460018D01*
X134630163Y-74460018D02*
X134522958Y-74513621D01*
X135496317Y-112939242D02*
X135496317Y-112462992D01*
X135782068Y-113034492D02*
X134781942Y-112701117D01*
X134781942Y-112701117D02*
X135782068Y-112367742D01*
X134781942Y-112177241D02*
X134781942Y-111605741D01*
X135782068Y-111891491D02*
X134781942Y-111891491D01*
X134781942Y-111415240D02*
X134781942Y-110843740D01*
X135782068Y-111129490D02*
X134781942Y-111129490D01*
X135782068Y-110510364D02*
X134781942Y-110510364D01*
X135782068Y-110034114D02*
X134781942Y-110034114D01*
X134781942Y-110034114D02*
X135782068Y-109462614D01*
X135782068Y-109462614D02*
X134781942Y-109462614D01*
X135305817Y-108795863D02*
X135782068Y-108795863D01*
X134781942Y-109129238D02*
X135305817Y-108795863D01*
X135305817Y-108795863D02*
X134781942Y-108462488D01*
X135210567Y-107986237D02*
X135162942Y-108081487D01*
X135162942Y-108081487D02*
X135115317Y-108129112D01*
X135115317Y-108129112D02*
X135020067Y-108176737D01*
X135020067Y-108176737D02*
X134972442Y-108176737D01*
X134972442Y-108176737D02*
X134877192Y-108129112D01*
X134877192Y-108129112D02*
X134829567Y-108081487D01*
X134829567Y-108081487D02*
X134781942Y-107986237D01*
X134781942Y-107986237D02*
X134781942Y-107795737D01*
X134781942Y-107795737D02*
X134829567Y-107700487D01*
X134829567Y-107700487D02*
X134877192Y-107652862D01*
X134877192Y-107652862D02*
X134972442Y-107605237D01*
X134972442Y-107605237D02*
X135020067Y-107605237D01*
X135020067Y-107605237D02*
X135115317Y-107652862D01*
X135115317Y-107652862D02*
X135162942Y-107700487D01*
X135162942Y-107700487D02*
X135210567Y-107795737D01*
X135210567Y-107795737D02*
X135210567Y-107986237D01*
X135210567Y-107986237D02*
X135258192Y-108081487D01*
X135258192Y-108081487D02*
X135305817Y-108129112D01*
X135305817Y-108129112D02*
X135401067Y-108176737D01*
X135401067Y-108176737D02*
X135591567Y-108176737D01*
X135591567Y-108176737D02*
X135686817Y-108129112D01*
X135686817Y-108129112D02*
X135734443Y-108081487D01*
X135734443Y-108081487D02*
X135782068Y-107986237D01*
X135782068Y-107986237D02*
X135782068Y-107795737D01*
X135782068Y-107795737D02*
X135734443Y-107700487D01*
X135734443Y-107700487D02*
X135686817Y-107652862D01*
X135686817Y-107652862D02*
X135591567Y-107605237D01*
X135591567Y-107605237D02*
X135401067Y-107605237D01*
X135401067Y-107605237D02*
X135305817Y-107652862D01*
X135305817Y-107652862D02*
X135258192Y-107700487D01*
X135258192Y-107700487D02*
X135210567Y-107795737D01*
X134781942Y-106700361D02*
X134781942Y-107176611D01*
X134781942Y-107176611D02*
X135258192Y-107224236D01*
X135258192Y-107224236D02*
X135210567Y-107176611D01*
X135210567Y-107176611D02*
X135162942Y-107081361D01*
X135162942Y-107081361D02*
X135162942Y-106843236D01*
X135162942Y-106843236D02*
X135210567Y-106747986D01*
X135210567Y-106747986D02*
X135258192Y-106700361D01*
X135258192Y-106700361D02*
X135353442Y-106652736D01*
X135353442Y-106652736D02*
X135591567Y-106652736D01*
X135591567Y-106652736D02*
X135686817Y-106700361D01*
X135686817Y-106700361D02*
X135734443Y-106747986D01*
X135734443Y-106747986D02*
X135782068Y-106843236D01*
X135782068Y-106843236D02*
X135782068Y-107081361D01*
X135782068Y-107081361D02*
X135734443Y-107176611D01*
X135734443Y-107176611D02*
X135686817Y-107224236D01*
X132193819Y-120244952D02*
X132908104Y-120244952D01*
X132908104Y-120244952D02*
X133050961Y-120292571D01*
X133050961Y-120292571D02*
X133146200Y-120387809D01*
X133146200Y-120387809D02*
X133193819Y-120530666D01*
X133193819Y-120530666D02*
X133193819Y-120625904D01*
X133193819Y-119768761D02*
X132193819Y-119768761D01*
X132193819Y-119768761D02*
X132193819Y-119387809D01*
X132193819Y-119387809D02*
X132241438Y-119292571D01*
X132241438Y-119292571D02*
X132289057Y-119244952D01*
X132289057Y-119244952D02*
X132384295Y-119197333D01*
X132384295Y-119197333D02*
X132527152Y-119197333D01*
X132527152Y-119197333D02*
X132622390Y-119244952D01*
X132622390Y-119244952D02*
X132670009Y-119292571D01*
X132670009Y-119292571D02*
X132717628Y-119387809D01*
X132717628Y-119387809D02*
X132717628Y-119768761D01*
X133193819Y-118197333D02*
X132717628Y-118530666D01*
X133193819Y-118768761D02*
X132193819Y-118768761D01*
X132193819Y-118768761D02*
X132193819Y-118387809D01*
X132193819Y-118387809D02*
X132241438Y-118292571D01*
X132241438Y-118292571D02*
X132289057Y-118244952D01*
X132289057Y-118244952D02*
X132384295Y-118197333D01*
X132384295Y-118197333D02*
X132527152Y-118197333D01*
X132527152Y-118197333D02*
X132622390Y-118244952D01*
X132622390Y-118244952D02*
X132670009Y-118292571D01*
X132670009Y-118292571D02*
X132717628Y-118387809D01*
X132717628Y-118387809D02*
X132717628Y-118768761D01*
X132193819Y-117578285D02*
X132193819Y-117387809D01*
X132193819Y-117387809D02*
X132241438Y-117292571D01*
X132241438Y-117292571D02*
X132336676Y-117197333D01*
X132336676Y-117197333D02*
X132527152Y-117149714D01*
X132527152Y-117149714D02*
X132860485Y-117149714D01*
X132860485Y-117149714D02*
X133050961Y-117197333D01*
X133050961Y-117197333D02*
X133146200Y-117292571D01*
X133146200Y-117292571D02*
X133193819Y-117387809D01*
X133193819Y-117387809D02*
X133193819Y-117578285D01*
X133193819Y-117578285D02*
X133146200Y-117673523D01*
X133146200Y-117673523D02*
X133050961Y-117768761D01*
X133050961Y-117768761D02*
X132860485Y-117816380D01*
X132860485Y-117816380D02*
X132527152Y-117816380D01*
X132527152Y-117816380D02*
X132336676Y-117768761D01*
X132336676Y-117768761D02*
X132241438Y-117673523D01*
X132241438Y-117673523D02*
X132193819Y-117578285D01*
X132241438Y-116197333D02*
X132193819Y-116292571D01*
X132193819Y-116292571D02*
X132193819Y-116435428D01*
X132193819Y-116435428D02*
X132241438Y-116578285D01*
X132241438Y-116578285D02*
X132336676Y-116673523D01*
X132336676Y-116673523D02*
X132431914Y-116721142D01*
X132431914Y-116721142D02*
X132622390Y-116768761D01*
X132622390Y-116768761D02*
X132765247Y-116768761D01*
X132765247Y-116768761D02*
X132955723Y-116721142D01*
X132955723Y-116721142D02*
X133050961Y-116673523D01*
X133050961Y-116673523D02*
X133146200Y-116578285D01*
X133146200Y-116578285D02*
X133193819Y-116435428D01*
X133193819Y-116435428D02*
X133193819Y-116340190D01*
X133193819Y-116340190D02*
X133146200Y-116197333D01*
X133146200Y-116197333D02*
X133098580Y-116149714D01*
X133098580Y-116149714D02*
X132765247Y-116149714D01*
X132765247Y-116149714D02*
X132765247Y-116340190D01*
X140589143Y-72189104D02*
X141065333Y-72189104D01*
X140493905Y-72474819D02*
X140827238Y-71474819D01*
X140827238Y-71474819D02*
X141160571Y-72474819D01*
X141493905Y-72474819D02*
X141493905Y-71474819D01*
X141493905Y-71474819D02*
X142065333Y-72474819D01*
X142065333Y-72474819D02*
X142065333Y-71474819D01*
X142398667Y-71474819D02*
X142970095Y-71474819D01*
X142684381Y-72474819D02*
X142684381Y-71474819D01*
X137487819Y-97193332D02*
X136487819Y-97193332D01*
X136487819Y-97193332D02*
X136487819Y-96812380D01*
X136487819Y-96812380D02*
X136535438Y-96717142D01*
X136535438Y-96717142D02*
X136583057Y-96669523D01*
X136583057Y-96669523D02*
X136678295Y-96621904D01*
X136678295Y-96621904D02*
X136821152Y-96621904D01*
X136821152Y-96621904D02*
X136916390Y-96669523D01*
X136916390Y-96669523D02*
X136964009Y-96717142D01*
X136964009Y-96717142D02*
X137011628Y-96812380D01*
X137011628Y-96812380D02*
X137011628Y-97193332D01*
X136487819Y-96288570D02*
X137487819Y-96050475D01*
X137487819Y-96050475D02*
X136773533Y-95859999D01*
X136773533Y-95859999D02*
X137487819Y-95669523D01*
X137487819Y-95669523D02*
X136487819Y-95431428D01*
X137487819Y-94479047D02*
X137011628Y-94812380D01*
X137487819Y-95050475D02*
X136487819Y-95050475D01*
X136487819Y-95050475D02*
X136487819Y-94669523D01*
X136487819Y-94669523D02*
X136535438Y-94574285D01*
X136535438Y-94574285D02*
X136583057Y-94526666D01*
X136583057Y-94526666D02*
X136678295Y-94479047D01*
X136678295Y-94479047D02*
X136821152Y-94479047D01*
X136821152Y-94479047D02*
X136916390Y-94526666D01*
X136916390Y-94526666D02*
X136964009Y-94574285D01*
X136964009Y-94574285D02*
X137011628Y-94669523D01*
X137011628Y-94669523D02*
X137011628Y-95050475D01*
X140843095Y-93827438D02*
X140747857Y-93779819D01*
X140747857Y-93779819D02*
X140605000Y-93779819D01*
X140605000Y-93779819D02*
X140462143Y-93827438D01*
X140462143Y-93827438D02*
X140366905Y-93922676D01*
X140366905Y-93922676D02*
X140319286Y-94017914D01*
X140319286Y-94017914D02*
X140271667Y-94208390D01*
X140271667Y-94208390D02*
X140271667Y-94351247D01*
X140271667Y-94351247D02*
X140319286Y-94541723D01*
X140319286Y-94541723D02*
X140366905Y-94636961D01*
X140366905Y-94636961D02*
X140462143Y-94732200D01*
X140462143Y-94732200D02*
X140605000Y-94779819D01*
X140605000Y-94779819D02*
X140700238Y-94779819D01*
X140700238Y-94779819D02*
X140843095Y-94732200D01*
X140843095Y-94732200D02*
X140890714Y-94684580D01*
X140890714Y-94684580D02*
X140890714Y-94351247D01*
X140890714Y-94351247D02*
X140700238Y-94351247D01*
X141319286Y-94779819D02*
X141319286Y-93779819D01*
X141319286Y-93779819D02*
X141890714Y-94779819D01*
X141890714Y-94779819D02*
X141890714Y-93779819D01*
X142366905Y-94779819D02*
X142366905Y-93779819D01*
X142366905Y-93779819D02*
X142605000Y-93779819D01*
X142605000Y-93779819D02*
X142747857Y-93827438D01*
X142747857Y-93827438D02*
X142843095Y-93922676D01*
X142843095Y-93922676D02*
X142890714Y-94017914D01*
X142890714Y-94017914D02*
X142938333Y-94208390D01*
X142938333Y-94208390D02*
X142938333Y-94351247D01*
X142938333Y-94351247D02*
X142890714Y-94541723D01*
X142890714Y-94541723D02*
X142843095Y-94636961D01*
X142843095Y-94636961D02*
X142747857Y-94732200D01*
X142747857Y-94732200D02*
X142605000Y-94779819D01*
X142605000Y-94779819D02*
X142366905Y-94779819D01*
X137487819Y-100876332D02*
X136487819Y-100876332D01*
X136487819Y-100876332D02*
X136487819Y-100495380D01*
X136487819Y-100495380D02*
X136535438Y-100400142D01*
X136535438Y-100400142D02*
X136583057Y-100352523D01*
X136583057Y-100352523D02*
X136678295Y-100304904D01*
X136678295Y-100304904D02*
X136821152Y-100304904D01*
X136821152Y-100304904D02*
X136916390Y-100352523D01*
X136916390Y-100352523D02*
X136964009Y-100400142D01*
X136964009Y-100400142D02*
X137011628Y-100495380D01*
X137011628Y-100495380D02*
X137011628Y-100876332D01*
X136487819Y-99971570D02*
X137487819Y-99733475D01*
X137487819Y-99733475D02*
X136773533Y-99542999D01*
X136773533Y-99542999D02*
X137487819Y-99352523D01*
X137487819Y-99352523D02*
X136487819Y-99114428D01*
X137487819Y-98162047D02*
X137011628Y-98495380D01*
X137487819Y-98733475D02*
X136487819Y-98733475D01*
X136487819Y-98733475D02*
X136487819Y-98352523D01*
X136487819Y-98352523D02*
X136535438Y-98257285D01*
X136535438Y-98257285D02*
X136583057Y-98209666D01*
X136583057Y-98209666D02*
X136678295Y-98162047D01*
X136678295Y-98162047D02*
X136821152Y-98162047D01*
X136821152Y-98162047D02*
X136916390Y-98209666D01*
X136916390Y-98209666D02*
X136964009Y-98257285D01*
X136964009Y-98257285D02*
X137011628Y-98352523D01*
X137011628Y-98352523D02*
X137011628Y-98733475D01*
D15*
%TO.C,Y1*%
X131080000Y-77495000D02*
X131080000Y-80255000D01*
X131080000Y-86605000D02*
X131080000Y-89395000D01*
X131080000Y-89395000D02*
X133890000Y-89395000D01*
X135160000Y-76195000D02*
X132360000Y-76195000D01*
X147860000Y-76195000D02*
X150660000Y-76195000D01*
X147860000Y-89395000D02*
X150660000Y-89395000D01*
X151940000Y-77495000D02*
X151940000Y-80255000D01*
X151940000Y-88095000D02*
X151940000Y-85335000D01*
X132360000Y-76195001D02*
G75*
G03*
X131080001Y-77495000I9999J-1289998D01*
G01*
X151939999Y-77495000D02*
G75*
G03*
X150660000Y-76195001I-1289999J10000D01*
G01*
X150660000Y-89394999D02*
G75*
G03*
X151939999Y-88095000I-10000J1289999D01*
G01*
D16*
X130610000Y-86795000D02*
G75*
G03*
X130410000Y-86795000I-100000J0D01*
G01*
X130410000Y-86795000D02*
G75*
G03*
X130610000Y-86795000I100000J0D01*
G01*
D17*
%TO.C,ATTINY85*%
X137097000Y-112395000D02*
X137097000Y-107315000D01*
X146367000Y-107315000D02*
X146367000Y-112395000D01*
D15*
X138760903Y-111633000D02*
G75*
G03*
X137845097Y-111633000I-457903J0D01*
G01*
X137845097Y-111633000D02*
G75*
G03*
X138760903Y-111633000I457903J0D01*
G01*
D18*
%TO.C,JPROG*%
X136779000Y-119694000D02*
X149539000Y-119694000D01*
X136779000Y-119694000D02*
X136779000Y-117034000D01*
X149539000Y-119694000D02*
X149539000Y-117034000D01*
X134179000Y-118364000D02*
X134179000Y-117034000D01*
X134179000Y-117034000D02*
X135509000Y-117034000D01*
X136779000Y-117034000D02*
X149539000Y-117034000D01*
%TO.C,ANT*%
X143182000Y-74168000D02*
G75*
G03*
X140282000Y-74168000I-1450000J0D01*
G01*
X140282000Y-74168000D02*
G75*
G03*
X143182000Y-74168000I1450000J0D01*
G01*
%TO.C,PWR*%
X133243000Y-97190000D02*
X135843000Y-97190000D01*
X133243000Y-97190000D02*
X133243000Y-94530000D01*
X135843000Y-97190000D02*
X135843000Y-94530000D01*
X130643000Y-95860000D02*
X130643000Y-94530000D01*
X130643000Y-94530000D02*
X131973000Y-94530000D01*
X133243000Y-94530000D02*
X135843000Y-94530000D01*
%TO.C,J4*%
X143055000Y-92075000D02*
G75*
G03*
X140155000Y-92075000I-1450000J0D01*
G01*
X140155000Y-92075000D02*
G75*
G03*
X143055000Y-92075000I1450000J0D01*
G01*
%TO.C,PWR*%
X133243000Y-100873000D02*
X135843000Y-100873000D01*
X133243000Y-100873000D02*
X133243000Y-98213000D01*
X135843000Y-100873000D02*
X135843000Y-98213000D01*
X130643000Y-99543000D02*
X130643000Y-98213000D01*
X130643000Y-98213000D02*
X131973000Y-98213000D01*
X133243000Y-98213000D02*
X135843000Y-98213000D01*
%TO.C,G\u002A\u002A\u002A*%
G36*
X152054774Y-96870785D02*
G01*
X152090463Y-96883266D01*
X152094009Y-96885014D01*
X152115485Y-96899343D01*
X152136900Y-96919495D01*
X152155255Y-96942387D01*
X152163861Y-96956759D01*
X152170238Y-96972709D01*
X152175672Y-96992133D01*
X152177549Y-97001762D01*
X152179194Y-97040352D01*
X152172289Y-97076716D01*
X152157584Y-97109804D01*
X152135832Y-97138568D01*
X152107783Y-97161959D01*
X152074189Y-97178927D01*
X152044907Y-97186976D01*
X152029785Y-97189634D01*
X152018698Y-97191329D01*
X152014623Y-97191690D01*
X152008933Y-97190533D01*
X151997039Y-97187960D01*
X151986184Y-97185564D01*
X151951911Y-97174621D01*
X151923433Y-97157780D01*
X151903092Y-97139031D01*
X151881092Y-97110723D01*
X151867036Y-97081368D01*
X151860451Y-97054238D01*
X151858740Y-97016275D01*
X151865193Y-96981013D01*
X151878807Y-96949178D01*
X151898582Y-96921495D01*
X151923513Y-96898691D01*
X151952601Y-96881492D01*
X151984841Y-96870624D01*
X152019233Y-96866813D01*
X152054774Y-96870785D01*
G37*
G36*
X152361012Y-96430670D02*
G01*
X152374107Y-96437951D01*
X152391197Y-96448687D01*
X152410559Y-96461753D01*
X152430472Y-96476024D01*
X152449214Y-96490374D01*
X152449617Y-96490696D01*
X152508110Y-96543332D01*
X152559829Y-96602112D01*
X152604420Y-96666345D01*
X152641529Y-96735343D01*
X152670802Y-96808416D01*
X152691886Y-96884874D01*
X152704426Y-96964028D01*
X152706695Y-96991668D01*
X152709564Y-97037376D01*
X152571729Y-97036317D01*
X152531073Y-97035977D01*
X152488427Y-97035571D01*
X152446134Y-97035126D01*
X152406538Y-97034667D01*
X152371984Y-97034219D01*
X152348337Y-97033867D01*
X152262780Y-97032477D01*
X152262711Y-97017346D01*
X152258452Y-96981482D01*
X152246815Y-96944139D01*
X152229036Y-96907537D01*
X152206353Y-96873896D01*
X152180003Y-96845437D01*
X152157197Y-96827946D01*
X152145695Y-96820099D01*
X152138592Y-96814121D01*
X152137383Y-96812039D01*
X152141884Y-96802890D01*
X152150153Y-96787201D01*
X152161640Y-96765951D01*
X152175795Y-96740115D01*
X152192068Y-96710671D01*
X152209909Y-96678596D01*
X152228768Y-96644866D01*
X152248094Y-96610457D01*
X152267339Y-96576348D01*
X152285951Y-96543515D01*
X152303381Y-96512934D01*
X152319079Y-96485582D01*
X152332495Y-96462437D01*
X152343079Y-96444475D01*
X152350280Y-96432673D01*
X152353549Y-96428008D01*
X152353635Y-96427971D01*
X152361012Y-96430670D01*
G37*
G36*
X151667310Y-96441200D02*
G01*
X151674441Y-96452346D01*
X151685347Y-96469919D01*
X151699526Y-96493098D01*
X151716478Y-96521061D01*
X151735702Y-96552989D01*
X151756698Y-96588060D01*
X151770928Y-96611934D01*
X151793167Y-96649302D01*
X151814224Y-96684675D01*
X151833550Y-96717131D01*
X151850594Y-96745745D01*
X151864807Y-96769596D01*
X151875639Y-96787761D01*
X151882541Y-96799318D01*
X151884508Y-96802598D01*
X151894172Y-96818632D01*
X151882749Y-96825758D01*
X151873933Y-96832507D01*
X151861182Y-96843763D01*
X151847044Y-96857259D01*
X151845063Y-96859235D01*
X151817844Y-96892717D01*
X151796488Y-96931803D01*
X151782295Y-96973907D01*
X151778925Y-96990947D01*
X151773336Y-97026560D01*
X151668038Y-97029624D01*
X151630468Y-97030555D01*
X151586851Y-97031373D01*
X151540519Y-97032030D01*
X151494801Y-97032482D01*
X151453028Y-97032683D01*
X151445592Y-97032688D01*
X151328443Y-97032688D01*
X151331569Y-96984995D01*
X151341427Y-96905782D01*
X151360432Y-96828266D01*
X151388443Y-96752855D01*
X151425320Y-96679956D01*
X151450761Y-96638919D01*
X151468363Y-96615127D01*
X151491620Y-96587637D01*
X151518657Y-96558342D01*
X151547603Y-96529136D01*
X151576584Y-96501912D01*
X151603728Y-96478562D01*
X151625968Y-96461790D01*
X151641912Y-96451099D01*
X151654819Y-96442774D01*
X151662835Y-96437995D01*
X151664454Y-96437303D01*
X151667310Y-96441200D01*
G37*
G36*
X151915890Y-97248354D02*
G01*
X151951301Y-97261799D01*
X151991118Y-97269106D01*
X152032534Y-97270128D01*
X152072742Y-97264717D01*
X152096353Y-97257879D01*
X152112603Y-97252360D01*
X152126371Y-97248331D01*
X152133511Y-97246841D01*
X152136488Y-97248051D01*
X152140927Y-97252528D01*
X152147199Y-97260877D01*
X152155674Y-97273701D01*
X152166726Y-97291606D01*
X152180723Y-97315196D01*
X152198039Y-97345075D01*
X152219043Y-97381848D01*
X152244108Y-97426119D01*
X152249605Y-97435863D01*
X152275056Y-97480865D01*
X152296285Y-97518362D01*
X152313511Y-97549107D01*
X152326950Y-97573852D01*
X152336822Y-97593352D01*
X152343343Y-97608359D01*
X152346732Y-97619626D01*
X152347207Y-97627906D01*
X152344985Y-97633953D01*
X152340285Y-97638520D01*
X152333324Y-97642360D01*
X152324320Y-97646225D01*
X152313491Y-97650869D01*
X152312005Y-97651549D01*
X152267663Y-97669935D01*
X152218890Y-97686594D01*
X152170632Y-97699892D01*
X152155887Y-97703216D01*
X152128902Y-97707665D01*
X152095736Y-97711220D01*
X152059052Y-97713771D01*
X152021512Y-97715208D01*
X151985779Y-97715420D01*
X151954516Y-97714298D01*
X151934615Y-97712379D01*
X151853521Y-97696423D01*
X151775033Y-97671594D01*
X151715447Y-97645882D01*
X151698481Y-97637171D01*
X151685301Y-97629512D01*
X151677800Y-97624051D01*
X151676770Y-97622500D01*
X151679029Y-97617900D01*
X151685426Y-97606177D01*
X151695396Y-97588316D01*
X151708374Y-97565305D01*
X151723794Y-97538128D01*
X151741089Y-97507774D01*
X151759694Y-97475227D01*
X151779043Y-97441475D01*
X151798569Y-97407505D01*
X151817709Y-97374301D01*
X151835894Y-97342852D01*
X151852560Y-97314142D01*
X151867141Y-97289159D01*
X151879071Y-97268889D01*
X151887784Y-97254319D01*
X151890755Y-97249482D01*
X151897366Y-97238904D01*
X151915890Y-97248354D01*
G37*
%TD*%
M02*
