%TF.GenerationSoftware,KiCad,Pcbnew,7.0.11-2.fc39*%
%TF.CreationDate,2024-06-07T09:19:16-04:00*%
%TF.ProjectId,OS-44,4f532d34-342e-46b6-9963-61645f706362,rev?*%
%TF.SameCoordinates,Original*%
%TF.FileFunction,Soldermask,Bot*%
%TF.FilePolarity,Negative*%
%FSLAX46Y46*%
G04 Gerber Fmt 4.6, Leading zero omitted, Abs format (unit mm)*
G04 Created by KiCad (PCBNEW 7.0.11-2.fc39) date 2024-06-07 09:19:16*
%MOMM*%
%LPD*%
G01*
G04 APERTURE LIST*
G04 Aperture macros list*
%AMRoundRect*
0 Rectangle with rounded corners*
0 $1 Rounding radius*
0 $2 $3 $4 $5 $6 $7 $8 $9 X,Y pos of 4 corners*
0 Add a 4 corners polygon primitive as box body*
4,1,4,$2,$3,$4,$5,$6,$7,$8,$9,$2,$3,0*
0 Add four circle primitives for the rounded corners*
1,1,$1+$1,$2,$3*
1,1,$1+$1,$4,$5*
1,1,$1+$1,$6,$7*
1,1,$1+$1,$8,$9*
0 Add four rect primitives between the rounded corners*
20,1,$1+$1,$2,$3,$4,$5,0*
20,1,$1+$1,$4,$5,$6,$7,0*
20,1,$1+$1,$6,$7,$8,$9,0*
20,1,$1+$1,$8,$9,$2,$3,0*%
G04 Aperture macros list end*
%ADD10RoundRect,0.102000X-0.579000X-0.579000X0.579000X-0.579000X0.579000X0.579000X-0.579000X0.579000X0*%
%ADD11C,1.362000*%
%ADD12RoundRect,0.102000X0.660400X-0.660400X0.660400X0.660400X-0.660400X0.660400X-0.660400X-0.660400X0*%
%ADD13C,1.524800*%
%ADD14C,2.100000*%
%ADD15C,3.500000*%
%ADD16R,1.700000X1.700000*%
%ADD17O,1.700000X1.700000*%
%ADD18C,2.500000*%
%ADD19RoundRect,0.250000X0.412500X0.650000X-0.412500X0.650000X-0.412500X-0.650000X0.412500X-0.650000X0*%
%ADD20RoundRect,0.250000X-0.450000X0.325000X-0.450000X-0.325000X0.450000X-0.325000X0.450000X0.325000X0*%
%ADD21RoundRect,0.250000X0.450000X-0.325000X0.450000X0.325000X-0.450000X0.325000X-0.450000X-0.325000X0*%
%ADD22RoundRect,0.250000X-0.325000X-0.450000X0.325000X-0.450000X0.325000X0.450000X-0.325000X0.450000X0*%
%ADD23RoundRect,0.250000X-0.650000X0.412500X-0.650000X-0.412500X0.650000X-0.412500X0.650000X0.412500X0*%
%ADD24RoundRect,0.250000X-0.412500X-0.650000X0.412500X-0.650000X0.412500X0.650000X-0.412500X0.650000X0*%
%ADD25RoundRect,0.250000X-0.412500X-1.100000X0.412500X-1.100000X0.412500X1.100000X-0.412500X1.100000X0*%
%ADD26RoundRect,0.250000X-1.100000X0.412500X-1.100000X-0.412500X1.100000X-0.412500X1.100000X0.412500X0*%
G04 APERTURE END LIST*
D10*
%TO.C,Y1*%
X133890000Y-86605000D03*
D11*
X149130000Y-86605000D03*
X149130000Y-78985000D03*
X133890000Y-78985000D03*
%TD*%
D12*
%TO.C,ATTINY85*%
X137922000Y-113665000D03*
D13*
X140462000Y-113665000D03*
X143002000Y-113665000D03*
X145542000Y-113665000D03*
X145542000Y-106045000D03*
X143002000Y-106045000D03*
X140462000Y-106045000D03*
X137922000Y-106045000D03*
%TD*%
D14*
%TO.C,REF\u002A\u002A*%
X141605000Y-97663000D03*
%TD*%
D15*
%TO.C,REF\u002A\u002A*%
X133604000Y-66802000D03*
%TD*%
D16*
%TO.C,JPROG*%
X135509000Y-118364000D03*
D17*
X138049000Y-118364000D03*
X140589000Y-118364000D03*
X143129000Y-118364000D03*
X145669000Y-118364000D03*
X148209000Y-118364000D03*
%TD*%
D18*
%TO.C,ANT*%
X141732000Y-74168000D03*
%TD*%
D14*
%TO.C,REF\u002A\u002A*%
X141732000Y-68707000D03*
%TD*%
D16*
%TO.C,PWR*%
X131973000Y-95860000D03*
D17*
X134513000Y-95860000D03*
%TD*%
D18*
%TO.C,J4*%
X141605000Y-92075000D03*
%TD*%
D16*
%TO.C,PWR*%
X131973000Y-99543000D03*
D17*
X134513000Y-99543000D03*
%TD*%
D15*
%TO.C,REF\u002A\u002A*%
X150622000Y-66802000D03*
%TD*%
D19*
%TO.C,C2*%
X144818500Y-82550000D03*
X141693500Y-82550000D03*
%TD*%
D20*
%TO.C,L1*%
X149098000Y-80636000D03*
X149098000Y-82686000D03*
%TD*%
D21*
%TO.C,L3*%
X133477000Y-84337000D03*
X133477000Y-82287000D03*
%TD*%
D22*
%TO.C,L2*%
X143755000Y-86741000D03*
X145805000Y-86741000D03*
%TD*%
D23*
%TO.C,C4*%
X137922000Y-83400500D03*
X137922000Y-86525500D03*
%TD*%
D24*
%TO.C,C3*%
X140931500Y-78867000D03*
X144056500Y-78867000D03*
%TD*%
D25*
%TO.C,C5*%
X135597500Y-92075000D03*
X138722500Y-92075000D03*
%TD*%
D26*
%TO.C,C1*%
X153035000Y-82892500D03*
X153035000Y-86017500D03*
%TD*%
M02*
