%TF.GenerationSoftware,KiCad,Pcbnew,7.0.11-2.fc39*%
%TF.CreationDate,2024-06-07T09:19:16-04:00*%
%TF.ProjectId,OS-44,4f532d34-342e-46b6-9963-61645f706362,rev?*%
%TF.SameCoordinates,Original*%
%TF.FileFunction,Copper,L1,Top*%
%TF.FilePolarity,Positive*%
%FSLAX46Y46*%
G04 Gerber Fmt 4.6, Leading zero omitted, Abs format (unit mm)*
G04 Created by KiCad (PCBNEW 7.0.11-2.fc39) date 2024-06-07 09:19:16*
%MOMM*%
%LPD*%
G01*
G04 APERTURE LIST*
%TA.AperFunction,NonConductor*%
%ADD10C,0.200000*%
%TD*%
%TA.AperFunction,ComponentPad*%
%ADD11R,1.158000X1.158000*%
%TD*%
%TA.AperFunction,ComponentPad*%
%ADD12C,1.158000*%
%TD*%
%TA.AperFunction,ComponentPad*%
%ADD13R,1.320800X1.320800*%
%TD*%
%TA.AperFunction,ComponentPad*%
%ADD14C,1.320800*%
%TD*%
%TA.AperFunction,ComponentPad*%
%ADD15R,1.700000X1.700000*%
%TD*%
%TA.AperFunction,ComponentPad*%
%ADD16O,1.700000X1.700000*%
%TD*%
%TA.AperFunction,ComponentPad*%
%ADD17C,2.500000*%
%TD*%
%TA.AperFunction,ViaPad*%
%ADD18C,0.800000*%
%TD*%
%TA.AperFunction,Conductor*%
%ADD19C,3.000000*%
%TD*%
%TA.AperFunction,Conductor*%
%ADD20C,0.250000*%
%TD*%
G04 APERTURE END LIST*
D10*
X134493000Y-99568000D02*
X134493000Y-95758000D01*
D11*
%TO.P,Y1,1*%
%TO.N,N/C*%
X133890000Y-86605000D03*
D12*
%TO.P,Y1,7,CASE_GND*%
%TO.N,GND*%
X149130000Y-86605000D03*
%TO.P,Y1,8,OUTPUT*%
%TO.N,HF_MOD*%
X149130000Y-78985000D03*
%TO.P,Y1,14,+VDC*%
%TO.N,PB0*%
X133890000Y-78985000D03*
%TD*%
D13*
%TO.P,ATTINY85,1,PB5*%
%TO.N,PB5*%
X137922000Y-113665000D03*
D14*
%TO.P,ATTINY85,2,PB3*%
%TO.N,PB3*%
X140462000Y-113665000D03*
%TO.P,ATTINY85,3,PB4*%
%TO.N,PB4*%
X143002000Y-113665000D03*
%TO.P,ATTINY85,4,GND*%
%TO.N,GND*%
X145542000Y-113665000D03*
%TO.P,ATTINY85,5,PB0*%
%TO.N,PB0*%
X145542000Y-106045000D03*
%TO.P,ATTINY85,6,PB1*%
%TO.N,PB1*%
X143002000Y-106045000D03*
%TO.P,ATTINY85,7,PB2*%
%TO.N,PB2*%
X140462000Y-106045000D03*
%TO.P,ATTINY85,8,VCC*%
%TO.N,VCC*%
X137922000Y-106045000D03*
%TD*%
D15*
%TO.P,JPROG,1,Pin_1*%
%TO.N,PB0*%
X135509000Y-118364000D03*
D16*
%TO.P,JPROG,2,Pin_2*%
%TO.N,PB1*%
X138049000Y-118364000D03*
%TO.P,JPROG,3,Pin_3*%
%TO.N,PB2*%
X140589000Y-118364000D03*
%TO.P,JPROG,4,Pin_4*%
%TO.N,PB3*%
X143129000Y-118364000D03*
%TO.P,JPROG,5,Pin_5*%
%TO.N,PB4*%
X145669000Y-118364000D03*
%TO.P,JPROG,6,Pin_6*%
%TO.N,PB5*%
X148209000Y-118364000D03*
%TD*%
D17*
%TO.P,ANT,1,Pin_1*%
%TO.N,RF_OUT*%
X141732000Y-74168000D03*
%TD*%
D15*
%TO.P,PWR,1,Pin_1*%
%TO.N,VCC*%
X131973000Y-95860000D03*
D16*
%TO.P,PWR,2,Pin_2*%
%TO.N,GND*%
X134513000Y-95860000D03*
%TD*%
D17*
%TO.P,J4,1,Pin_1*%
%TO.N,GND*%
X141605000Y-92075000D03*
%TD*%
D15*
%TO.P,PWR,1,Pin_1*%
%TO.N,N/C*%
X131973000Y-99543000D03*
D16*
%TO.P,PWR,2,Pin_2*%
X134513000Y-99543000D03*
%TD*%
D18*
%TO.N,GND*%
X132080000Y-71120000D03*
X149225000Y-100330000D03*
X130810000Y-113030000D03*
X151765000Y-107315000D03*
X130810000Y-92075000D03*
X149225000Y-120650000D03*
X147955000Y-102870000D03*
X149225000Y-112395000D03*
X137160000Y-78105000D03*
X145415000Y-73660000D03*
X152400000Y-99060000D03*
X139065000Y-88265000D03*
X135890000Y-72390000D03*
X146685000Y-71120000D03*
X146431000Y-78740000D03*
X148590000Y-77470000D03*
X135890000Y-120650000D03*
X153035000Y-80645000D03*
X135255000Y-77470000D03*
X149225000Y-84455000D03*
X134620000Y-104775000D03*
X148590000Y-108585000D03*
X130810000Y-118745000D03*
X138430000Y-77470000D03*
X152400000Y-101600000D03*
X135255000Y-109347000D03*
X132080000Y-93345000D03*
X153035000Y-88265000D03*
X153035000Y-105410000D03*
X151765000Y-110490000D03*
X144780000Y-101600000D03*
X144653000Y-109855000D03*
X143510000Y-120650000D03*
X147955000Y-73025000D03*
X147193000Y-84074000D03*
X149860000Y-105410000D03*
X146685000Y-90805000D03*
X151130000Y-73025000D03*
X153035000Y-78105000D03*
X151003000Y-93980000D03*
X130810000Y-103505000D03*
X147320000Y-92710000D03*
X132080000Y-75565000D03*
X130810000Y-107315000D03*
X132715000Y-77470000D03*
X152400000Y-114300000D03*
X141097000Y-87249000D03*
X138430000Y-64770000D03*
X146050000Y-98425000D03*
X150495000Y-90805000D03*
X146558000Y-76708000D03*
X131445000Y-88265000D03*
X149860000Y-88900000D03*
X137795000Y-68580000D03*
X137160000Y-74930000D03*
X142875000Y-100965000D03*
X137160000Y-80010000D03*
X138430000Y-102870000D03*
X151130000Y-76835000D03*
X153670000Y-120650000D03*
X144780000Y-64135000D03*
X130175000Y-76200000D03*
%TO.N,PB0*%
X135059000Y-115189000D03*
%TD*%
D19*
%TO.N,GND*%
X141605000Y-92075000D02*
X141605000Y-89535000D01*
X144535000Y-86605000D02*
X149130000Y-86605000D01*
D20*
X137820000Y-95860000D02*
X141605000Y-92075000D01*
D19*
X141605000Y-89535000D02*
X144535000Y-86605000D01*
D20*
X134513000Y-95860000D02*
X137820000Y-95860000D01*
%TO.N,VCC*%
X137922000Y-106045000D02*
X131973000Y-100096000D01*
X131973000Y-100096000D02*
X131973000Y-95860000D01*
%TO.N,PB0*%
X141860396Y-107823000D02*
X135509000Y-114174396D01*
X143764000Y-107823000D02*
X141860396Y-107823000D01*
X135509000Y-114174396D02*
X135509000Y-115570000D01*
X135440000Y-115570000D02*
X135509000Y-115570000D01*
X145542000Y-106045000D02*
X143764000Y-107823000D01*
X135509000Y-118364000D02*
X135509000Y-115570000D01*
X135059000Y-115189000D02*
X135440000Y-115570000D01*
%TO.N,PB1*%
X134334000Y-114713000D02*
X143002000Y-106045000D01*
X138049000Y-118364000D02*
X136874000Y-119539000D01*
X134334000Y-119539000D02*
X134334000Y-114713000D01*
X136874000Y-119539000D02*
X134334000Y-119539000D01*
%TO.N,PB3*%
X143129000Y-118364000D02*
X143129000Y-116332000D01*
X143129000Y-116332000D02*
X140462000Y-113665000D01*
%TO.N,PB4*%
X145669000Y-116332000D02*
X143002000Y-113665000D01*
X145669000Y-118364000D02*
X145669000Y-116332000D01*
%TO.N,PB5*%
X139414000Y-118850701D02*
X139414000Y-117825396D01*
X148209000Y-118364000D02*
X147034000Y-119539000D01*
X147034000Y-119539000D02*
X140102299Y-119539000D01*
X140102299Y-119539000D02*
X139414000Y-118850701D01*
X139414000Y-117825396D02*
X137922000Y-116333396D01*
X137922000Y-116333396D02*
X137922000Y-113665000D01*
%TD*%
%TA.AperFunction,Conductor*%
%TO.N,GND*%
G36*
X154628265Y-62885185D02*
G01*
X154674020Y-62937989D01*
X154685226Y-62989772D01*
X154609188Y-97663001D01*
X154559839Y-120166673D01*
X154558500Y-120777035D01*
X154558500Y-121033500D01*
X154538815Y-121100539D01*
X154486011Y-121146294D01*
X154434500Y-121157500D01*
X129664500Y-121157500D01*
X129597461Y-121137815D01*
X129551706Y-121085011D01*
X129540500Y-121033500D01*
X129540500Y-100440870D01*
X130622500Y-100440870D01*
X130622501Y-100440876D01*
X130628908Y-100500483D01*
X130679202Y-100635328D01*
X130679206Y-100635335D01*
X130765452Y-100750544D01*
X130765455Y-100750547D01*
X130880664Y-100836793D01*
X130880671Y-100836797D01*
X131015517Y-100887091D01*
X131015516Y-100887091D01*
X131022444Y-100887835D01*
X131075127Y-100893500D01*
X131834547Y-100893499D01*
X131901586Y-100913183D01*
X131922228Y-100929818D01*
X136738820Y-105746411D01*
X136772305Y-105807734D01*
X136774610Y-105845533D01*
X136756127Y-106044999D01*
X136756127Y-106045000D01*
X136775977Y-106259228D01*
X136834855Y-106466159D01*
X136834860Y-106466172D01*
X136930751Y-106658746D01*
X136930753Y-106658749D01*
X136930755Y-106658753D01*
X137060409Y-106830444D01*
X137060412Y-106830446D01*
X137060414Y-106830449D01*
X137219402Y-106975385D01*
X137219404Y-106975386D01*
X137219405Y-106975387D01*
X137402326Y-107088647D01*
X137602944Y-107166367D01*
X137814427Y-107205900D01*
X137814429Y-107205900D01*
X138029571Y-107205900D01*
X138029573Y-107205900D01*
X138241056Y-107166367D01*
X138441674Y-107088647D01*
X138624595Y-106975387D01*
X138783591Y-106830444D01*
X138913245Y-106658753D01*
X139009144Y-106466162D01*
X139068022Y-106259229D01*
X139068529Y-106253758D01*
X139094315Y-106188820D01*
X139151115Y-106148132D01*
X139220896Y-106144612D01*
X139281503Y-106179377D01*
X139313693Y-106241389D01*
X139315471Y-106253758D01*
X139315977Y-106259227D01*
X139374855Y-106466159D01*
X139374860Y-106466172D01*
X139470751Y-106658746D01*
X139470753Y-106658749D01*
X139470755Y-106658753D01*
X139600409Y-106830444D01*
X139600412Y-106830446D01*
X139600414Y-106830449D01*
X139759402Y-106975385D01*
X139759404Y-106975386D01*
X139759405Y-106975387D01*
X139942326Y-107088647D01*
X140142944Y-107166367D01*
X140354427Y-107205900D01*
X140354429Y-107205900D01*
X140569572Y-107205900D01*
X140569573Y-107205900D01*
X140651853Y-107190519D01*
X140721367Y-107197549D01*
X140776046Y-107241046D01*
X140798529Y-107307199D01*
X140781677Y-107375006D01*
X140762319Y-107400088D01*
X133950208Y-114212199D01*
X133937951Y-114222020D01*
X133938134Y-114222241D01*
X133932122Y-114227214D01*
X133886098Y-114276223D01*
X133883391Y-114279016D01*
X133863889Y-114298517D01*
X133863875Y-114298534D01*
X133861407Y-114301715D01*
X133853843Y-114310570D01*
X133823937Y-114342418D01*
X133823936Y-114342420D01*
X133814284Y-114359976D01*
X133803610Y-114376226D01*
X133791329Y-114392061D01*
X133791324Y-114392068D01*
X133773975Y-114432158D01*
X133768838Y-114442644D01*
X133747803Y-114480906D01*
X133742822Y-114500307D01*
X133736521Y-114518710D01*
X133728562Y-114537102D01*
X133728561Y-114537105D01*
X133721728Y-114580243D01*
X133719360Y-114591674D01*
X133708501Y-114633971D01*
X133708500Y-114633982D01*
X133708500Y-114654016D01*
X133706973Y-114673415D01*
X133703840Y-114693194D01*
X133703840Y-114693195D01*
X133707950Y-114736674D01*
X133708500Y-114748343D01*
X133708500Y-119468152D01*
X133706305Y-119491382D01*
X133704773Y-119499414D01*
X133708255Y-119554757D01*
X133708500Y-119562543D01*
X133708500Y-119578356D01*
X133710481Y-119594037D01*
X133711213Y-119601785D01*
X133714696Y-119657138D01*
X133717222Y-119664914D01*
X133722309Y-119687672D01*
X133723334Y-119695784D01*
X133723335Y-119695790D01*
X133723336Y-119695792D01*
X133724631Y-119699063D01*
X133743753Y-119747359D01*
X133746390Y-119754685D01*
X133763532Y-119807440D01*
X133767907Y-119814333D01*
X133778503Y-119835129D01*
X133781511Y-119842726D01*
X133781513Y-119842730D01*
X133814121Y-119887612D01*
X133818498Y-119894053D01*
X133848213Y-119940875D01*
X133848213Y-119940876D01*
X133854164Y-119946464D01*
X133869604Y-119963978D01*
X133874403Y-119970585D01*
X133917146Y-120005945D01*
X133922978Y-120011087D01*
X133963418Y-120049062D01*
X133970578Y-120052998D01*
X133989879Y-120066114D01*
X133996177Y-120071324D01*
X133996178Y-120071324D01*
X133996179Y-120071325D01*
X134046362Y-120094939D01*
X134053300Y-120098474D01*
X134060537Y-120102453D01*
X134101903Y-120125195D01*
X134101905Y-120125195D01*
X134101908Y-120125197D01*
X134107205Y-120126556D01*
X134109814Y-120127227D01*
X134131776Y-120135132D01*
X134139174Y-120138614D01*
X134193666Y-120149008D01*
X134201263Y-120150707D01*
X134254981Y-120164500D01*
X134263153Y-120164500D01*
X134286385Y-120166696D01*
X134287989Y-120167001D01*
X134294412Y-120168227D01*
X134294413Y-120168226D01*
X134294414Y-120168227D01*
X134349759Y-120164745D01*
X134357545Y-120164500D01*
X136791257Y-120164500D01*
X136806877Y-120166224D01*
X136806904Y-120165939D01*
X136814660Y-120166671D01*
X136814667Y-120166673D01*
X136881873Y-120164561D01*
X136885768Y-120164500D01*
X136913346Y-120164500D01*
X136913350Y-120164500D01*
X136917324Y-120163997D01*
X136928963Y-120163080D01*
X136972627Y-120161709D01*
X136991869Y-120156117D01*
X137010912Y-120152174D01*
X137030792Y-120149664D01*
X137071401Y-120133585D01*
X137082444Y-120129803D01*
X137124390Y-120117618D01*
X137141629Y-120107422D01*
X137159103Y-120098862D01*
X137177727Y-120091488D01*
X137177727Y-120091487D01*
X137177732Y-120091486D01*
X137213083Y-120065800D01*
X137222814Y-120059408D01*
X137260420Y-120037170D01*
X137274589Y-120022999D01*
X137289379Y-120010368D01*
X137305587Y-119998594D01*
X137333438Y-119964926D01*
X137341279Y-119956309D01*
X137593353Y-119704235D01*
X137654674Y-119670752D01*
X137713125Y-119672143D01*
X137727725Y-119676055D01*
X137813592Y-119699063D01*
X138001918Y-119715539D01*
X138048999Y-119719659D01*
X138049000Y-119719659D01*
X138049001Y-119719659D01*
X138088234Y-119716226D01*
X138284408Y-119699063D01*
X138512663Y-119637903D01*
X138726830Y-119538035D01*
X138920401Y-119402495D01*
X138920414Y-119402481D01*
X138920776Y-119402179D01*
X138920977Y-119402090D01*
X138924836Y-119399389D01*
X138925378Y-119400163D01*
X138984779Y-119374154D01*
X139053773Y-119385180D01*
X139088181Y-119409472D01*
X139601493Y-119922784D01*
X139611318Y-119935048D01*
X139611539Y-119934866D01*
X139616509Y-119940874D01*
X139665538Y-119986915D01*
X139668335Y-119989626D01*
X139687828Y-120009119D01*
X139690995Y-120011576D01*
X139699874Y-120019160D01*
X139731714Y-120049060D01*
X139731716Y-120049061D01*
X139731717Y-120049062D01*
X139749275Y-120058714D01*
X139765534Y-120069395D01*
X139781363Y-120081673D01*
X139821446Y-120099018D01*
X139831933Y-120104156D01*
X139870203Y-120125195D01*
X139870207Y-120125197D01*
X139870211Y-120125198D01*
X139889610Y-120130179D01*
X139908021Y-120136483D01*
X139926396Y-120144435D01*
X139926399Y-120144435D01*
X139926404Y-120144438D01*
X139969553Y-120151271D01*
X139980979Y-120153638D01*
X140023280Y-120164500D01*
X140043315Y-120164500D01*
X140062712Y-120166026D01*
X140082495Y-120169160D01*
X140125974Y-120165050D01*
X140137643Y-120164500D01*
X146951257Y-120164500D01*
X146966877Y-120166224D01*
X146966904Y-120165939D01*
X146974660Y-120166671D01*
X146974667Y-120166673D01*
X147041873Y-120164561D01*
X147045768Y-120164500D01*
X147073346Y-120164500D01*
X147073350Y-120164500D01*
X147077324Y-120163997D01*
X147088963Y-120163080D01*
X147132627Y-120161709D01*
X147151869Y-120156117D01*
X147170912Y-120152174D01*
X147190792Y-120149664D01*
X147231401Y-120133585D01*
X147242444Y-120129803D01*
X147284390Y-120117618D01*
X147301629Y-120107422D01*
X147319103Y-120098862D01*
X147337727Y-120091488D01*
X147337727Y-120091487D01*
X147337732Y-120091486D01*
X147373083Y-120065800D01*
X147382814Y-120059408D01*
X147420420Y-120037170D01*
X147434589Y-120022999D01*
X147449379Y-120010368D01*
X147465587Y-119998594D01*
X147493438Y-119964926D01*
X147501279Y-119956309D01*
X147753353Y-119704235D01*
X147814674Y-119670752D01*
X147873125Y-119672143D01*
X147887725Y-119676055D01*
X147973592Y-119699063D01*
X148161918Y-119715539D01*
X148208999Y-119719659D01*
X148209000Y-119719659D01*
X148209001Y-119719659D01*
X148248234Y-119716226D01*
X148444408Y-119699063D01*
X148672663Y-119637903D01*
X148886830Y-119538035D01*
X149080401Y-119402495D01*
X149247495Y-119235401D01*
X149383035Y-119041830D01*
X149482903Y-118827663D01*
X149544063Y-118599408D01*
X149564659Y-118364000D01*
X149544063Y-118128592D01*
X149482903Y-117900337D01*
X149383035Y-117686171D01*
X149377425Y-117678158D01*
X149247494Y-117492597D01*
X149080402Y-117325506D01*
X149080395Y-117325501D01*
X148886834Y-117189967D01*
X148886830Y-117189965D01*
X148834500Y-117165563D01*
X148672663Y-117090097D01*
X148672659Y-117090096D01*
X148672655Y-117090094D01*
X148444413Y-117028938D01*
X148444403Y-117028936D01*
X148209001Y-117008341D01*
X148208999Y-117008341D01*
X147973596Y-117028936D01*
X147973586Y-117028938D01*
X147745344Y-117090094D01*
X147745335Y-117090098D01*
X147531171Y-117189964D01*
X147531169Y-117189965D01*
X147337597Y-117325505D01*
X147170505Y-117492597D01*
X147040575Y-117678158D01*
X146985998Y-117721783D01*
X146916500Y-117728977D01*
X146854145Y-117697454D01*
X146837425Y-117678158D01*
X146707494Y-117492597D01*
X146540402Y-117325506D01*
X146540401Y-117325505D01*
X146347376Y-117190347D01*
X146303751Y-117135770D01*
X146294500Y-117088772D01*
X146294500Y-116414742D01*
X146296224Y-116399122D01*
X146295939Y-116399095D01*
X146296673Y-116391333D01*
X146294561Y-116324112D01*
X146294500Y-116320218D01*
X146294500Y-116292656D01*
X146294500Y-116292650D01*
X146293996Y-116288668D01*
X146293081Y-116277029D01*
X146292743Y-116266268D01*
X146291710Y-116233373D01*
X146286119Y-116214130D01*
X146282173Y-116195078D01*
X146279664Y-116175208D01*
X146263579Y-116134583D01*
X146259806Y-116123562D01*
X146247618Y-116081610D01*
X146247617Y-116081609D01*
X146247617Y-116081607D01*
X146247616Y-116081606D01*
X146237423Y-116064371D01*
X146228861Y-116046894D01*
X146221487Y-116028269D01*
X146195816Y-115992937D01*
X146189405Y-115983177D01*
X146167170Y-115945580D01*
X146167168Y-115945578D01*
X146167165Y-115945574D01*
X146153006Y-115931415D01*
X146140368Y-115916619D01*
X146128594Y-115900413D01*
X146094940Y-115872572D01*
X146086299Y-115864709D01*
X145241053Y-115019462D01*
X145207568Y-114958139D01*
X145212552Y-114888447D01*
X145254424Y-114832514D01*
X145319888Y-114808097D01*
X145351520Y-114809893D01*
X145434468Y-114825399D01*
X145434474Y-114825400D01*
X145649525Y-114825400D01*
X145860916Y-114785883D01*
X145860917Y-114785883D01*
X146061448Y-114708197D01*
X146061449Y-114708197D01*
X146166562Y-114643114D01*
X145591994Y-114068547D01*
X145669150Y-114056327D01*
X145783854Y-113997883D01*
X145874883Y-113906854D01*
X145933327Y-113792150D01*
X145945547Y-113714994D01*
X146522588Y-114292035D01*
X146532816Y-114278491D01*
X146628674Y-114085984D01*
X146687528Y-113879131D01*
X146707370Y-113665000D01*
X146687528Y-113450868D01*
X146628674Y-113244015D01*
X146532821Y-113051517D01*
X146532813Y-113051504D01*
X146522587Y-113037963D01*
X145945547Y-113615004D01*
X145933327Y-113537850D01*
X145874883Y-113423146D01*
X145783854Y-113332117D01*
X145669150Y-113273673D01*
X145591995Y-113261452D01*
X146166562Y-112686884D01*
X146061447Y-112621801D01*
X145860916Y-112544116D01*
X145649525Y-112504600D01*
X145434475Y-112504600D01*
X145223083Y-112544116D01*
X145223082Y-112544116D01*
X145022551Y-112621802D01*
X145022548Y-112621803D01*
X144917436Y-112686884D01*
X145492005Y-113261452D01*
X145414850Y-113273673D01*
X145300146Y-113332117D01*
X145209117Y-113423146D01*
X145150673Y-113537850D01*
X145138452Y-113615005D01*
X144561411Y-113037964D01*
X144551179Y-113051515D01*
X144455325Y-113244015D01*
X144396471Y-113450867D01*
X144395722Y-113458957D01*
X144369934Y-113523894D01*
X144313133Y-113564580D01*
X144243352Y-113568098D01*
X144182746Y-113533332D01*
X144150557Y-113471318D01*
X144148780Y-113458952D01*
X144148022Y-113450772D01*
X144140162Y-113423146D01*
X144089144Y-113243838D01*
X143993245Y-113051247D01*
X143863591Y-112879556D01*
X143863587Y-112879552D01*
X143863585Y-112879550D01*
X143704597Y-112734614D01*
X143627510Y-112686884D01*
X143521674Y-112621353D01*
X143321056Y-112543633D01*
X143109573Y-112504100D01*
X142894427Y-112504100D01*
X142682944Y-112543633D01*
X142556075Y-112592782D01*
X142482328Y-112621352D01*
X142482327Y-112621352D01*
X142299402Y-112734614D01*
X142140414Y-112879550D01*
X142140407Y-112879558D01*
X142010760Y-113051239D01*
X142010751Y-113051253D01*
X141914860Y-113243827D01*
X141914855Y-113243840D01*
X141855978Y-113450771D01*
X141855471Y-113456243D01*
X141829685Y-113521180D01*
X141772884Y-113561867D01*
X141703103Y-113565387D01*
X141642497Y-113530622D01*
X141610307Y-113468609D01*
X141608529Y-113456243D01*
X141608022Y-113450771D01*
X141549144Y-113243838D01*
X141453245Y-113051247D01*
X141323591Y-112879556D01*
X141323587Y-112879552D01*
X141323585Y-112879550D01*
X141164597Y-112734614D01*
X141087510Y-112686884D01*
X140981674Y-112621353D01*
X140781056Y-112543633D01*
X140569573Y-112504100D01*
X140354427Y-112504100D01*
X140142944Y-112543633D01*
X140016075Y-112592782D01*
X139942328Y-112621352D01*
X139942327Y-112621352D01*
X139759402Y-112734614D01*
X139600414Y-112879550D01*
X139600407Y-112879558D01*
X139470760Y-113051239D01*
X139470751Y-113051253D01*
X139374860Y-113243827D01*
X139374855Y-113243840D01*
X139326165Y-113414967D01*
X139288886Y-113474060D01*
X139225576Y-113503617D01*
X139156336Y-113494255D01*
X139103150Y-113448945D01*
X139082903Y-113382073D01*
X139082899Y-113381032D01*
X139082899Y-112956729D01*
X139082898Y-112956723D01*
X139076491Y-112897116D01*
X139026197Y-112762271D01*
X139026193Y-112762264D01*
X138939947Y-112647055D01*
X138939944Y-112647052D01*
X138824735Y-112560806D01*
X138824728Y-112560802D01*
X138689882Y-112510508D01*
X138689883Y-112510508D01*
X138630283Y-112504101D01*
X138630281Y-112504100D01*
X138630273Y-112504100D01*
X138630265Y-112504100D01*
X138363247Y-112504100D01*
X138296208Y-112484415D01*
X138250453Y-112431611D01*
X138240509Y-112362453D01*
X138269534Y-112298897D01*
X138275566Y-112292419D01*
X142083168Y-108484819D01*
X142144491Y-108451334D01*
X142170849Y-108448500D01*
X143681257Y-108448500D01*
X143696877Y-108450224D01*
X143696904Y-108449939D01*
X143704660Y-108450671D01*
X143704667Y-108450673D01*
X143771873Y-108448561D01*
X143775768Y-108448500D01*
X143803346Y-108448500D01*
X143803350Y-108448500D01*
X143807324Y-108447997D01*
X143818963Y-108447080D01*
X143862627Y-108445709D01*
X143881869Y-108440117D01*
X143900912Y-108436174D01*
X143920792Y-108433664D01*
X143961401Y-108417585D01*
X143972444Y-108413803D01*
X144014390Y-108401618D01*
X144031629Y-108391422D01*
X144049103Y-108382862D01*
X144067727Y-108375488D01*
X144067727Y-108375487D01*
X144067732Y-108375486D01*
X144103083Y-108349800D01*
X144112814Y-108343408D01*
X144150420Y-108321170D01*
X144164589Y-108306999D01*
X144179379Y-108294368D01*
X144195587Y-108282594D01*
X144223438Y-108248926D01*
X144231279Y-108240309D01*
X145246048Y-107225540D01*
X145307369Y-107192057D01*
X145356511Y-107191335D01*
X145434427Y-107205900D01*
X145434428Y-107205900D01*
X145649571Y-107205900D01*
X145649573Y-107205900D01*
X145861056Y-107166367D01*
X146061674Y-107088647D01*
X146244595Y-106975387D01*
X146403591Y-106830444D01*
X146533245Y-106658753D01*
X146629144Y-106466162D01*
X146688022Y-106259229D01*
X146707873Y-106045000D01*
X146688022Y-105830771D01*
X146629144Y-105623838D01*
X146533245Y-105431247D01*
X146403591Y-105259556D01*
X146403587Y-105259552D01*
X146403585Y-105259550D01*
X146244597Y-105114614D01*
X146204811Y-105089979D01*
X146061674Y-105001353D01*
X145861056Y-104923633D01*
X145649573Y-104884100D01*
X145434427Y-104884100D01*
X145222944Y-104923633D01*
X145096075Y-104972782D01*
X145022328Y-105001352D01*
X145022327Y-105001352D01*
X144839402Y-105114614D01*
X144680414Y-105259550D01*
X144680407Y-105259558D01*
X144550760Y-105431239D01*
X144550751Y-105431253D01*
X144454860Y-105623827D01*
X144454855Y-105623840D01*
X144395978Y-105830771D01*
X144395471Y-105836243D01*
X144369685Y-105901180D01*
X144312884Y-105941867D01*
X144243103Y-105945387D01*
X144182497Y-105910622D01*
X144150307Y-105848609D01*
X144148529Y-105836243D01*
X144148022Y-105830771D01*
X144089144Y-105623838D01*
X143993245Y-105431247D01*
X143863591Y-105259556D01*
X143863587Y-105259552D01*
X143863585Y-105259550D01*
X143704597Y-105114614D01*
X143664811Y-105089979D01*
X143521674Y-105001353D01*
X143321056Y-104923633D01*
X143109573Y-104884100D01*
X142894427Y-104884100D01*
X142682944Y-104923633D01*
X142556075Y-104972782D01*
X142482328Y-105001352D01*
X142482327Y-105001352D01*
X142299402Y-105114614D01*
X142140414Y-105259550D01*
X142140407Y-105259558D01*
X142010760Y-105431239D01*
X142010751Y-105431253D01*
X141914860Y-105623827D01*
X141914855Y-105623840D01*
X141855978Y-105830771D01*
X141855471Y-105836243D01*
X141829685Y-105901180D01*
X141772884Y-105941867D01*
X141703103Y-105945387D01*
X141642497Y-105910622D01*
X141610307Y-105848609D01*
X141608529Y-105836243D01*
X141608022Y-105830771D01*
X141549144Y-105623838D01*
X141453245Y-105431247D01*
X141323591Y-105259556D01*
X141323587Y-105259552D01*
X141323585Y-105259550D01*
X141164597Y-105114614D01*
X141124811Y-105089979D01*
X140981674Y-105001353D01*
X140781056Y-104923633D01*
X140569573Y-104884100D01*
X140354427Y-104884100D01*
X140142944Y-104923633D01*
X140016075Y-104972782D01*
X139942328Y-105001352D01*
X139942327Y-105001352D01*
X139759402Y-105114614D01*
X139600414Y-105259550D01*
X139600407Y-105259558D01*
X139470760Y-105431239D01*
X139470751Y-105431253D01*
X139374860Y-105623827D01*
X139374855Y-105623840D01*
X139315978Y-105830771D01*
X139315471Y-105836243D01*
X139289685Y-105901180D01*
X139232884Y-105941867D01*
X139163103Y-105945387D01*
X139102497Y-105910622D01*
X139070307Y-105848609D01*
X139068529Y-105836243D01*
X139068022Y-105830771D01*
X139009144Y-105623838D01*
X138913245Y-105431247D01*
X138783591Y-105259556D01*
X138783587Y-105259552D01*
X138783585Y-105259550D01*
X138624597Y-105114614D01*
X138584811Y-105089979D01*
X138441674Y-105001353D01*
X138241056Y-104923633D01*
X138029573Y-104884100D01*
X137814427Y-104884100D01*
X137814426Y-104884100D01*
X137736511Y-104898664D01*
X137666996Y-104891632D01*
X137626047Y-104864456D01*
X133648067Y-100886476D01*
X133614582Y-100825153D01*
X133619566Y-100755461D01*
X133661438Y-100699528D01*
X133726902Y-100675111D01*
X133795175Y-100689963D01*
X133806865Y-100697216D01*
X133835170Y-100717035D01*
X134049337Y-100816903D01*
X134277592Y-100878063D01*
X134454034Y-100893500D01*
X134512999Y-100898659D01*
X134513000Y-100898659D01*
X134513001Y-100898659D01*
X134571966Y-100893500D01*
X134748408Y-100878063D01*
X134976663Y-100816903D01*
X135190830Y-100717035D01*
X135384401Y-100581495D01*
X135551495Y-100414401D01*
X135687035Y-100220830D01*
X135786903Y-100006663D01*
X135848063Y-99778408D01*
X135868659Y-99543000D01*
X135848063Y-99307592D01*
X135786903Y-99079337D01*
X135687035Y-98865171D01*
X135636899Y-98793568D01*
X135551494Y-98671597D01*
X135384402Y-98504506D01*
X135384395Y-98504501D01*
X135190832Y-98368966D01*
X135165094Y-98356964D01*
X135112655Y-98310791D01*
X135093500Y-98244582D01*
X135093500Y-97663001D01*
X140299532Y-97663001D01*
X140319364Y-97889686D01*
X140319366Y-97889697D01*
X140378258Y-98109488D01*
X140378261Y-98109497D01*
X140474431Y-98315732D01*
X140474432Y-98315734D01*
X140604954Y-98502141D01*
X140765858Y-98663045D01*
X140765861Y-98663047D01*
X140952266Y-98793568D01*
X141158504Y-98889739D01*
X141378308Y-98948635D01*
X141548214Y-98963499D01*
X141548215Y-98963500D01*
X141548216Y-98963500D01*
X141661785Y-98963500D01*
X141661785Y-98963499D01*
X141831692Y-98948635D01*
X142051496Y-98889739D01*
X142257734Y-98793568D01*
X142444139Y-98663047D01*
X142605047Y-98502139D01*
X142735568Y-98315734D01*
X142831739Y-98109496D01*
X142890635Y-97889692D01*
X142910468Y-97663000D01*
X142890635Y-97436308D01*
X142831739Y-97216504D01*
X142735568Y-97010266D01*
X142605047Y-96823861D01*
X142605045Y-96823858D01*
X142444141Y-96662954D01*
X142257734Y-96532432D01*
X142257732Y-96532431D01*
X142051497Y-96436261D01*
X142051488Y-96436258D01*
X141831697Y-96377366D01*
X141831687Y-96377364D01*
X141661785Y-96362500D01*
X141661784Y-96362500D01*
X141548216Y-96362500D01*
X141548215Y-96362500D01*
X141378312Y-96377364D01*
X141378302Y-96377366D01*
X141158511Y-96436258D01*
X141158502Y-96436261D01*
X140952267Y-96532431D01*
X140952265Y-96532432D01*
X140765858Y-96662954D01*
X140604954Y-96823858D01*
X140474432Y-97010265D01*
X140474431Y-97010267D01*
X140378261Y-97216502D01*
X140378258Y-97216511D01*
X140319366Y-97436302D01*
X140319364Y-97436313D01*
X140299532Y-97662998D01*
X140299532Y-97663001D01*
X135093500Y-97663001D01*
X135093500Y-97157864D01*
X135113185Y-97090825D01*
X135165099Y-97045480D01*
X135190579Y-97033599D01*
X135384082Y-96898105D01*
X135551105Y-96731082D01*
X135686600Y-96537578D01*
X135786429Y-96323492D01*
X135786432Y-96323486D01*
X135843636Y-96110000D01*
X135217500Y-96110000D01*
X135150461Y-96090315D01*
X135104706Y-96037511D01*
X135093500Y-95986000D01*
X135093500Y-95734000D01*
X135113185Y-95666961D01*
X135165989Y-95621206D01*
X135217500Y-95610000D01*
X135843636Y-95610000D01*
X135843635Y-95609999D01*
X135786432Y-95396513D01*
X135786429Y-95396507D01*
X135686600Y-95182422D01*
X135686599Y-95182420D01*
X135551113Y-94988926D01*
X135551108Y-94988920D01*
X135384082Y-94821894D01*
X135190578Y-94686399D01*
X134976492Y-94586570D01*
X134976486Y-94586567D01*
X134763000Y-94529364D01*
X134763000Y-95046469D01*
X134743315Y-95113508D01*
X134690511Y-95159263D01*
X134622815Y-95169408D01*
X134493001Y-95152318D01*
X134492999Y-95152318D01*
X134403185Y-95164142D01*
X134334150Y-95153376D01*
X134281894Y-95106996D01*
X134263000Y-95041203D01*
X134263000Y-94529364D01*
X134262999Y-94529364D01*
X134049513Y-94586567D01*
X134049507Y-94586570D01*
X133835422Y-94686399D01*
X133835420Y-94686400D01*
X133641926Y-94821886D01*
X133519865Y-94943947D01*
X133458542Y-94977431D01*
X133388850Y-94972447D01*
X133332917Y-94930575D01*
X133316002Y-94899598D01*
X133266797Y-94767671D01*
X133266793Y-94767664D01*
X133180547Y-94652455D01*
X133180544Y-94652452D01*
X133065335Y-94566206D01*
X133065328Y-94566202D01*
X132930482Y-94515908D01*
X132930483Y-94515908D01*
X132870883Y-94509501D01*
X132870881Y-94509500D01*
X132870873Y-94509500D01*
X132870864Y-94509500D01*
X131075129Y-94509500D01*
X131075123Y-94509501D01*
X131015516Y-94515908D01*
X130880671Y-94566202D01*
X130880664Y-94566206D01*
X130765455Y-94652452D01*
X130765452Y-94652455D01*
X130679206Y-94767664D01*
X130679202Y-94767671D01*
X130628908Y-94902517D01*
X130622501Y-94962116D01*
X130622500Y-94962135D01*
X130622500Y-96757870D01*
X130622501Y-96757876D01*
X130628908Y-96817483D01*
X130679202Y-96952328D01*
X130679206Y-96952335D01*
X130765452Y-97067544D01*
X130765455Y-97067547D01*
X130880664Y-97153793D01*
X130880671Y-97153797D01*
X130925618Y-97170561D01*
X131015517Y-97204091D01*
X131075127Y-97210500D01*
X131223500Y-97210499D01*
X131290539Y-97230183D01*
X131336294Y-97282987D01*
X131347500Y-97334499D01*
X131347500Y-98068500D01*
X131327815Y-98135539D01*
X131275011Y-98181294D01*
X131223501Y-98192500D01*
X131075130Y-98192500D01*
X131075123Y-98192501D01*
X131015516Y-98198908D01*
X130880671Y-98249202D01*
X130880664Y-98249206D01*
X130765455Y-98335452D01*
X130765452Y-98335455D01*
X130679206Y-98450664D01*
X130679202Y-98450671D01*
X130628908Y-98585517D01*
X130622501Y-98645116D01*
X130622500Y-98645135D01*
X130622500Y-100440870D01*
X129540500Y-100440870D01*
X129540500Y-92075004D01*
X139850093Y-92075004D01*
X139869692Y-92336545D01*
X139869693Y-92336550D01*
X139928058Y-92592270D01*
X140023883Y-92836426D01*
X140023882Y-92836426D01*
X140155027Y-93063573D01*
X140202874Y-93123571D01*
X141042226Y-92284219D01*
X141080901Y-92377588D01*
X141177075Y-92502925D01*
X141302412Y-92599099D01*
X141395779Y-92637772D01*
X140555830Y-93477720D01*
X140727546Y-93594793D01*
X140727550Y-93594795D01*
X140963854Y-93708594D01*
X140963858Y-93708595D01*
X141214494Y-93785907D01*
X141214500Y-93785909D01*
X141473848Y-93824999D01*
X141473857Y-93825000D01*
X141736143Y-93825000D01*
X141736151Y-93824999D01*
X141995499Y-93785909D01*
X141995505Y-93785907D01*
X142246143Y-93708595D01*
X142482445Y-93594798D01*
X142482447Y-93594797D01*
X142654168Y-93477720D01*
X141814220Y-92637772D01*
X141907588Y-92599099D01*
X142032925Y-92502925D01*
X142129099Y-92377589D01*
X142167773Y-92284220D01*
X143007125Y-93123572D01*
X143054971Y-93063573D01*
X143186116Y-92836426D01*
X143281941Y-92592270D01*
X143340306Y-92336550D01*
X143340307Y-92336545D01*
X143359907Y-92075004D01*
X143359907Y-92074995D01*
X143340307Y-91813454D01*
X143340306Y-91813449D01*
X143281941Y-91557729D01*
X143186116Y-91313573D01*
X143186117Y-91313573D01*
X143054972Y-91086426D01*
X143007124Y-91026427D01*
X142167772Y-91865779D01*
X142129099Y-91772412D01*
X142032925Y-91647075D01*
X141907588Y-91550901D01*
X141814220Y-91512227D01*
X142654168Y-90672278D01*
X142482454Y-90555206D01*
X142482445Y-90555201D01*
X142246142Y-90441404D01*
X142246144Y-90441404D01*
X141995505Y-90364092D01*
X141995499Y-90364090D01*
X141736151Y-90325000D01*
X141473848Y-90325000D01*
X141214500Y-90364090D01*
X141214494Y-90364092D01*
X140963858Y-90441404D01*
X140963854Y-90441405D01*
X140727547Y-90555205D01*
X140727539Y-90555210D01*
X140555830Y-90672277D01*
X141395779Y-91512226D01*
X141302412Y-91550901D01*
X141177075Y-91647075D01*
X141080901Y-91772411D01*
X141042227Y-91865779D01*
X140202874Y-91026427D01*
X140155028Y-91086425D01*
X140023883Y-91313573D01*
X139928058Y-91557729D01*
X139869693Y-91813449D01*
X139869692Y-91813454D01*
X139850093Y-92074995D01*
X139850093Y-92075004D01*
X129540500Y-92075004D01*
X129540500Y-87231870D01*
X132810500Y-87231870D01*
X132810501Y-87231876D01*
X132816908Y-87291483D01*
X132867202Y-87426328D01*
X132867206Y-87426335D01*
X132953452Y-87541544D01*
X132953455Y-87541547D01*
X133068664Y-87627793D01*
X133068671Y-87627797D01*
X133203517Y-87678091D01*
X133203516Y-87678091D01*
X133210444Y-87678835D01*
X133263127Y-87684500D01*
X134516872Y-87684499D01*
X134576483Y-87678091D01*
X134711331Y-87627796D01*
X134826546Y-87541546D01*
X134839691Y-87523986D01*
X148564565Y-87523986D01*
X148564566Y-87523987D01*
X148646982Y-87575016D01*
X148646989Y-87575020D01*
X148833449Y-87647254D01*
X149030018Y-87684000D01*
X149229982Y-87684000D01*
X149426550Y-87647254D01*
X149613009Y-87575020D01*
X149613010Y-87575020D01*
X149695433Y-87523986D01*
X149130001Y-86958553D01*
X149130000Y-86958553D01*
X148564565Y-87523986D01*
X134839691Y-87523986D01*
X134912796Y-87426331D01*
X134963091Y-87291483D01*
X134969500Y-87231873D01*
X134969499Y-86605000D01*
X148046377Y-86605000D01*
X148064827Y-86804114D01*
X148064828Y-86804117D01*
X148119547Y-86996438D01*
X148119555Y-86996458D01*
X148207789Y-87173656D01*
X148719140Y-86662306D01*
X148805000Y-86662306D01*
X148844199Y-86770007D01*
X148917871Y-86857805D01*
X149017129Y-86915112D01*
X149101564Y-86930000D01*
X149158436Y-86930000D01*
X149242871Y-86915112D01*
X149342129Y-86857805D01*
X149415801Y-86770007D01*
X149455000Y-86662306D01*
X149455000Y-86605000D01*
X149483553Y-86605000D01*
X150052209Y-87173656D01*
X150140447Y-86996451D01*
X150140450Y-86996445D01*
X150195171Y-86804117D01*
X150195172Y-86804114D01*
X150213623Y-86605000D01*
X150213623Y-86604999D01*
X150195172Y-86405885D01*
X150195171Y-86405882D01*
X150140452Y-86213561D01*
X150140444Y-86213541D01*
X150052209Y-86036342D01*
X149483553Y-86604999D01*
X149483553Y-86605000D01*
X149455000Y-86605000D01*
X149455000Y-86547694D01*
X149415801Y-86439993D01*
X149342129Y-86352195D01*
X149242871Y-86294888D01*
X149158436Y-86280000D01*
X149101564Y-86280000D01*
X149017129Y-86294888D01*
X148917871Y-86352195D01*
X148844199Y-86439993D01*
X148805000Y-86547694D01*
X148805000Y-86662306D01*
X148719140Y-86662306D01*
X148776446Y-86605000D01*
X148776446Y-86604999D01*
X148207789Y-86036342D01*
X148119552Y-86213550D01*
X148119547Y-86213561D01*
X148064828Y-86405882D01*
X148064827Y-86405885D01*
X148046377Y-86604999D01*
X148046377Y-86605000D01*
X134969499Y-86605000D01*
X134969499Y-85978128D01*
X134963091Y-85918517D01*
X134912796Y-85783669D01*
X134912795Y-85783668D01*
X134912793Y-85783664D01*
X134839690Y-85686012D01*
X148564566Y-85686012D01*
X149130000Y-86251446D01*
X149130001Y-86251446D01*
X149695433Y-85686012D01*
X149613009Y-85634979D01*
X149613010Y-85634979D01*
X149426550Y-85562745D01*
X149229982Y-85526000D01*
X149030018Y-85526000D01*
X148833449Y-85562745D01*
X148646984Y-85634981D01*
X148564566Y-85686011D01*
X148564566Y-85686012D01*
X134839690Y-85686012D01*
X134826547Y-85668455D01*
X134826544Y-85668452D01*
X134711335Y-85582206D01*
X134711328Y-85582202D01*
X134576482Y-85531908D01*
X134576483Y-85531908D01*
X134516883Y-85525501D01*
X134516881Y-85525500D01*
X134516873Y-85525500D01*
X134516864Y-85525500D01*
X133263129Y-85525500D01*
X133263123Y-85525501D01*
X133203516Y-85531908D01*
X133068671Y-85582202D01*
X133068664Y-85582206D01*
X132953455Y-85668452D01*
X132953452Y-85668455D01*
X132867206Y-85783664D01*
X132867202Y-85783671D01*
X132816908Y-85918517D01*
X132810501Y-85978116D01*
X132810501Y-85978123D01*
X132810500Y-85978135D01*
X132810500Y-87231870D01*
X129540500Y-87231870D01*
X129540500Y-78985000D01*
X132805875Y-78985000D01*
X132824333Y-79184206D01*
X132879083Y-79376628D01*
X132879088Y-79376641D01*
X132968258Y-79555718D01*
X133088822Y-79715370D01*
X133236669Y-79850150D01*
X133406764Y-79955469D01*
X133593315Y-80027739D01*
X133789970Y-80064500D01*
X133789972Y-80064500D01*
X133990028Y-80064500D01*
X133990030Y-80064500D01*
X134186685Y-80027739D01*
X134373236Y-79955469D01*
X134543331Y-79850150D01*
X134691178Y-79715370D01*
X134811742Y-79555718D01*
X134900916Y-79376631D01*
X134955666Y-79184207D01*
X134974125Y-78985000D01*
X148045875Y-78985000D01*
X148064333Y-79184206D01*
X148119083Y-79376628D01*
X148119088Y-79376641D01*
X148208258Y-79555718D01*
X148328822Y-79715370D01*
X148476669Y-79850150D01*
X148646764Y-79955469D01*
X148833315Y-80027739D01*
X149029970Y-80064500D01*
X149029972Y-80064500D01*
X149230028Y-80064500D01*
X149230030Y-80064500D01*
X149426685Y-80027739D01*
X149613236Y-79955469D01*
X149783331Y-79850150D01*
X149931178Y-79715370D01*
X150051742Y-79555718D01*
X150140916Y-79376631D01*
X150195666Y-79184207D01*
X150214125Y-78985000D01*
X150195666Y-78785793D01*
X150140916Y-78593369D01*
X150051742Y-78414282D01*
X149931178Y-78254630D01*
X149783331Y-78119850D01*
X149613236Y-78014531D01*
X149613235Y-78014530D01*
X149476830Y-77961687D01*
X149426685Y-77942261D01*
X149230030Y-77905500D01*
X149029970Y-77905500D01*
X148833315Y-77942261D01*
X148833312Y-77942261D01*
X148833312Y-77942262D01*
X148646764Y-78014530D01*
X148646763Y-78014531D01*
X148476667Y-78119851D01*
X148328823Y-78254628D01*
X148208258Y-78414281D01*
X148119088Y-78593358D01*
X148119083Y-78593371D01*
X148064333Y-78785793D01*
X148045875Y-78984999D01*
X148045875Y-78985000D01*
X134974125Y-78985000D01*
X134955666Y-78785793D01*
X134900916Y-78593369D01*
X134811742Y-78414282D01*
X134691178Y-78254630D01*
X134543331Y-78119850D01*
X134373236Y-78014531D01*
X134373235Y-78014530D01*
X134236830Y-77961687D01*
X134186685Y-77942261D01*
X133990030Y-77905500D01*
X133789970Y-77905500D01*
X133593315Y-77942261D01*
X133593312Y-77942261D01*
X133593312Y-77942262D01*
X133406764Y-78014530D01*
X133406763Y-78014531D01*
X133236667Y-78119851D01*
X133088823Y-78254628D01*
X132968258Y-78414281D01*
X132879088Y-78593358D01*
X132879083Y-78593371D01*
X132824333Y-78785793D01*
X132805875Y-78984999D01*
X132805875Y-78985000D01*
X129540500Y-78985000D01*
X129540500Y-74168004D01*
X139976592Y-74168004D01*
X139996196Y-74429620D01*
X139996197Y-74429625D01*
X140054576Y-74685402D01*
X140054578Y-74685411D01*
X140054580Y-74685416D01*
X140150432Y-74929643D01*
X140281614Y-75156857D01*
X140413736Y-75322533D01*
X140445198Y-75361985D01*
X140626753Y-75530441D01*
X140637521Y-75540433D01*
X140854296Y-75688228D01*
X140854301Y-75688230D01*
X140854302Y-75688231D01*
X140854303Y-75688232D01*
X140979843Y-75748688D01*
X141090673Y-75802061D01*
X141090674Y-75802061D01*
X141090677Y-75802063D01*
X141341385Y-75879396D01*
X141600818Y-75918500D01*
X141863182Y-75918500D01*
X142122615Y-75879396D01*
X142373323Y-75802063D01*
X142609704Y-75688228D01*
X142826479Y-75540433D01*
X143018805Y-75361981D01*
X143182386Y-75156857D01*
X143313568Y-74929643D01*
X143409420Y-74685416D01*
X143467802Y-74429630D01*
X143487408Y-74168000D01*
X143467802Y-73906370D01*
X143409420Y-73650584D01*
X143313568Y-73406357D01*
X143182386Y-73179143D01*
X143018805Y-72974019D01*
X143018804Y-72974018D01*
X143018801Y-72974014D01*
X142826479Y-72795567D01*
X142609704Y-72647772D01*
X142609700Y-72647770D01*
X142609697Y-72647768D01*
X142609696Y-72647767D01*
X142373325Y-72533938D01*
X142373327Y-72533938D01*
X142122623Y-72456606D01*
X142122619Y-72456605D01*
X142122615Y-72456604D01*
X141997823Y-72437794D01*
X141863187Y-72417500D01*
X141863182Y-72417500D01*
X141600818Y-72417500D01*
X141600812Y-72417500D01*
X141439247Y-72441853D01*
X141341385Y-72456604D01*
X141341382Y-72456605D01*
X141341376Y-72456606D01*
X141090673Y-72533938D01*
X140854303Y-72647767D01*
X140854302Y-72647768D01*
X140637520Y-72795567D01*
X140445198Y-72974014D01*
X140281614Y-73179143D01*
X140150432Y-73406356D01*
X140054582Y-73650578D01*
X140054576Y-73650597D01*
X139996197Y-73906374D01*
X139996196Y-73906379D01*
X139976592Y-74167995D01*
X139976592Y-74168004D01*
X129540500Y-74168004D01*
X129540500Y-66802001D01*
X131598390Y-66802001D01*
X131618804Y-67087433D01*
X131679628Y-67367037D01*
X131679630Y-67367043D01*
X131679631Y-67367046D01*
X131721857Y-67480258D01*
X131779635Y-67635166D01*
X131916770Y-67886309D01*
X131916775Y-67886317D01*
X132088254Y-68115387D01*
X132088270Y-68115405D01*
X132290594Y-68317729D01*
X132290612Y-68317745D01*
X132519682Y-68489224D01*
X132519690Y-68489229D01*
X132770833Y-68626364D01*
X132770832Y-68626364D01*
X132770836Y-68626365D01*
X132770839Y-68626367D01*
X133038954Y-68726369D01*
X133038960Y-68726370D01*
X133038962Y-68726371D01*
X133318566Y-68787195D01*
X133318568Y-68787195D01*
X133318572Y-68787196D01*
X133532552Y-68802500D01*
X133675448Y-68802500D01*
X133889428Y-68787196D01*
X134169046Y-68726369D01*
X134220973Y-68707001D01*
X140426532Y-68707001D01*
X140446364Y-68933686D01*
X140446366Y-68933697D01*
X140505258Y-69153488D01*
X140505261Y-69153497D01*
X140601431Y-69359732D01*
X140601432Y-69359734D01*
X140731954Y-69546141D01*
X140892858Y-69707045D01*
X140892861Y-69707047D01*
X141079266Y-69837568D01*
X141285504Y-69933739D01*
X141505308Y-69992635D01*
X141675214Y-70007499D01*
X141675215Y-70007500D01*
X141675216Y-70007500D01*
X141788785Y-70007500D01*
X141788785Y-70007499D01*
X141958692Y-69992635D01*
X142178496Y-69933739D01*
X142384734Y-69837568D01*
X142571139Y-69707047D01*
X142732047Y-69546139D01*
X142862568Y-69359734D01*
X142958739Y-69153496D01*
X143017635Y-68933692D01*
X143037468Y-68707000D01*
X143017635Y-68480308D01*
X142958739Y-68260504D01*
X142862568Y-68054266D01*
X142732047Y-67867861D01*
X142732045Y-67867858D01*
X142571141Y-67706954D01*
X142384734Y-67576432D01*
X142384732Y-67576431D01*
X142178497Y-67480261D01*
X142178488Y-67480258D01*
X141958697Y-67421366D01*
X141958687Y-67421364D01*
X141788785Y-67406500D01*
X141788784Y-67406500D01*
X141675216Y-67406500D01*
X141675215Y-67406500D01*
X141505312Y-67421364D01*
X141505302Y-67421366D01*
X141285511Y-67480258D01*
X141285502Y-67480261D01*
X141079267Y-67576431D01*
X141079265Y-67576432D01*
X140892858Y-67706954D01*
X140731954Y-67867858D01*
X140601432Y-68054265D01*
X140601431Y-68054267D01*
X140505261Y-68260502D01*
X140505258Y-68260511D01*
X140446366Y-68480302D01*
X140446364Y-68480313D01*
X140426532Y-68706998D01*
X140426532Y-68707001D01*
X134220973Y-68707001D01*
X134437161Y-68626367D01*
X134688315Y-68489226D01*
X134917395Y-68317739D01*
X135119739Y-68115395D01*
X135291226Y-67886315D01*
X135428367Y-67635161D01*
X135528369Y-67367046D01*
X135589196Y-67087428D01*
X135609610Y-66802001D01*
X148616390Y-66802001D01*
X148636804Y-67087433D01*
X148697628Y-67367037D01*
X148697630Y-67367043D01*
X148697631Y-67367046D01*
X148739857Y-67480258D01*
X148797635Y-67635166D01*
X148934770Y-67886309D01*
X148934775Y-67886317D01*
X149106254Y-68115387D01*
X149106270Y-68115405D01*
X149308594Y-68317729D01*
X149308612Y-68317745D01*
X149537682Y-68489224D01*
X149537690Y-68489229D01*
X149788833Y-68626364D01*
X149788832Y-68626364D01*
X149788836Y-68626365D01*
X149788839Y-68626367D01*
X150056954Y-68726369D01*
X150056960Y-68726370D01*
X150056962Y-68726371D01*
X150336566Y-68787195D01*
X150336568Y-68787195D01*
X150336572Y-68787196D01*
X150550552Y-68802500D01*
X150693448Y-68802500D01*
X150907428Y-68787196D01*
X151187046Y-68726369D01*
X151455161Y-68626367D01*
X151706315Y-68489226D01*
X151935395Y-68317739D01*
X152137739Y-68115395D01*
X152309226Y-67886315D01*
X152446367Y-67635161D01*
X152546369Y-67367046D01*
X152607196Y-67087428D01*
X152627610Y-66802000D01*
X152607196Y-66516572D01*
X152546369Y-66236954D01*
X152446367Y-65968839D01*
X152309226Y-65717685D01*
X152309224Y-65717682D01*
X152137745Y-65488612D01*
X152137729Y-65488594D01*
X151935405Y-65286270D01*
X151935387Y-65286254D01*
X151706317Y-65114775D01*
X151706309Y-65114770D01*
X151455166Y-64977635D01*
X151455167Y-64977635D01*
X151347915Y-64937632D01*
X151187046Y-64877631D01*
X151187043Y-64877630D01*
X151187037Y-64877628D01*
X150907433Y-64816804D01*
X150693450Y-64801500D01*
X150693448Y-64801500D01*
X150550552Y-64801500D01*
X150550549Y-64801500D01*
X150336566Y-64816804D01*
X150056962Y-64877628D01*
X149788833Y-64977635D01*
X149537690Y-65114770D01*
X149537682Y-65114775D01*
X149308612Y-65286254D01*
X149308594Y-65286270D01*
X149106270Y-65488594D01*
X149106254Y-65488612D01*
X148934775Y-65717682D01*
X148934770Y-65717690D01*
X148797635Y-65968833D01*
X148697628Y-66236962D01*
X148636804Y-66516566D01*
X148616390Y-66801998D01*
X148616390Y-66802001D01*
X135609610Y-66802001D01*
X135609610Y-66802000D01*
X135589196Y-66516572D01*
X135528369Y-66236954D01*
X135428367Y-65968839D01*
X135291226Y-65717685D01*
X135291224Y-65717682D01*
X135119745Y-65488612D01*
X135119729Y-65488594D01*
X134917405Y-65286270D01*
X134917387Y-65286254D01*
X134688317Y-65114775D01*
X134688309Y-65114770D01*
X134437166Y-64977635D01*
X134437167Y-64977635D01*
X134329915Y-64937632D01*
X134169046Y-64877631D01*
X134169043Y-64877630D01*
X134169037Y-64877628D01*
X133889433Y-64816804D01*
X133675450Y-64801500D01*
X133675448Y-64801500D01*
X133532552Y-64801500D01*
X133532549Y-64801500D01*
X133318566Y-64816804D01*
X133038962Y-64877628D01*
X132770833Y-64977635D01*
X132519690Y-65114770D01*
X132519682Y-65114775D01*
X132290612Y-65286254D01*
X132290594Y-65286270D01*
X132088270Y-65488594D01*
X132088254Y-65488612D01*
X131916775Y-65717682D01*
X131916770Y-65717690D01*
X131779635Y-65968833D01*
X131679628Y-66236962D01*
X131618804Y-66516566D01*
X131598390Y-66801998D01*
X131598390Y-66802001D01*
X129540500Y-66802001D01*
X129540500Y-62989500D01*
X129560185Y-62922461D01*
X129612989Y-62876706D01*
X129664500Y-62865500D01*
X154561226Y-62865500D01*
X154628265Y-62885185D01*
G37*
%TD.AperFunction*%
%TD*%
M02*
