M48
; DRILL file {KiCad 7.0.11-2.fc39} date Fri 07 Jun 2024 09:19:11 AM EDT
; FORMAT={-:-/ absolute / inch / decimal}
; #@! TF.CreationDate,2024-06-07T09:19:11-04:00
; #@! TF.GenerationSoftware,Kicad,Pcbnew,7.0.11-2.fc39
; #@! TF.FileFunction,Plated,1,2,PTH
FMAT,2
INCH
; #@! TA.AperFunction,Plated,PTH,ViaDrill
T1C0.0157
; #@! TA.AperFunction,Plated,PTH,ComponentDrill
T2C0.0256
; #@! TA.AperFunction,Plated,PTH,ComponentDrill
T3C0.0320
; #@! TA.AperFunction,Plated,PTH,ComponentDrill
T4C0.0394
; #@! TA.AperFunction,Plated,PTH,ComponentDrill
T5C0.0472
%
G90
G05
T1
X5.125Y-3.0
X5.15Y-3.625
X5.15Y-4.075
X5.15Y-4.225
X5.15Y-4.45
X5.15Y-4.675
X5.175Y-3.475
X5.2Y-2.8
X5.2Y-2.975
X5.2Y-3.675
X5.225Y-3.05
X5.3Y-4.125
X5.3173Y-4.535
X5.325Y-3.05
X5.325Y-4.305
X5.35Y-2.85
X5.35Y-4.75
X5.4Y-2.95
X5.4Y-3.075
X5.4Y-3.15
X5.425Y-2.7
X5.45Y-2.55
X5.45Y-3.05
X5.45Y-4.05
X5.475Y-3.475
X5.555Y-3.435
X5.625Y-3.975
X5.65Y-4.75
X5.695Y-4.325
X5.7Y-2.525
X5.7Y-4.0
X5.725Y-2.9
X5.75Y-3.875
X5.765Y-3.1
X5.77Y-3.02
X5.775Y-2.8
X5.775Y-3.575
X5.795Y-3.31
X5.8Y-3.65
X5.825Y-2.875
X5.825Y-4.05
X5.85Y-3.05
X5.85Y-4.275
X5.875Y-3.325
X5.875Y-3.95
X5.875Y-4.425
X5.875Y-4.75
X5.9Y-3.5
X5.9Y-4.15
X5.925Y-3.575
X5.945Y-3.7
X5.95Y-2.875
X5.95Y-3.025
X5.975Y-4.225
X5.975Y-4.35
X6.0Y-3.9
X6.0Y-4.0
X6.0Y-4.5
X6.025Y-3.075
X6.025Y-3.175
X6.025Y-3.475
X6.025Y-4.15
X6.05Y-4.75
T2
X5.2713Y-3.1096
X5.2713Y-3.4096
X5.8713Y-3.1096
X5.8713Y-3.4096
T3
X5.43Y-4.175
X5.43Y-4.475
X5.53Y-4.175
X5.53Y-4.475
X5.63Y-4.175
X5.63Y-4.475
X5.73Y-4.175
X5.73Y-4.475
T4
X5.1958Y-3.774
X5.1958Y-3.919
X5.2958Y-3.774
X5.2958Y-3.919
X5.335Y-4.66
X5.435Y-4.66
X5.535Y-4.66
X5.635Y-4.66
X5.735Y-4.66
X5.835Y-4.66
T5
X5.575Y-3.625
X5.58Y-2.92
M30
