%TF.GenerationSoftware,KiCad,Pcbnew,7.0.11-2.fc39*%
%TF.CreationDate,2024-06-07T09:19:16-04:00*%
%TF.ProjectId,OS-44,4f532d34-342e-46b6-9963-61645f706362,rev?*%
%TF.SameCoordinates,Original*%
%TF.FileFunction,Copper,L2,Bot*%
%TF.FilePolarity,Positive*%
%FSLAX46Y46*%
G04 Gerber Fmt 4.6, Leading zero omitted, Abs format (unit mm)*
G04 Created by KiCad (PCBNEW 7.0.11-2.fc39) date 2024-06-07 09:19:16*
%MOMM*%
%LPD*%
G01*
G04 APERTURE LIST*
G04 Aperture macros list*
%AMRoundRect*
0 Rectangle with rounded corners*
0 $1 Rounding radius*
0 $2 $3 $4 $5 $6 $7 $8 $9 X,Y pos of 4 corners*
0 Add a 4 corners polygon primitive as box body*
4,1,4,$2,$3,$4,$5,$6,$7,$8,$9,$2,$3,0*
0 Add four circle primitives for the rounded corners*
1,1,$1+$1,$2,$3*
1,1,$1+$1,$4,$5*
1,1,$1+$1,$6,$7*
1,1,$1+$1,$8,$9*
0 Add four rect primitives between the rounded corners*
20,1,$1+$1,$2,$3,$4,$5,0*
20,1,$1+$1,$4,$5,$6,$7,0*
20,1,$1+$1,$6,$7,$8,$9,0*
20,1,$1+$1,$8,$9,$2,$3,0*%
G04 Aperture macros list end*
%TA.AperFunction,ComponentPad*%
%ADD10R,1.158000X1.158000*%
%TD*%
%TA.AperFunction,ComponentPad*%
%ADD11C,1.158000*%
%TD*%
%TA.AperFunction,ComponentPad*%
%ADD12R,1.320800X1.320800*%
%TD*%
%TA.AperFunction,ComponentPad*%
%ADD13C,1.320800*%
%TD*%
%TA.AperFunction,ComponentPad*%
%ADD14R,1.700000X1.700000*%
%TD*%
%TA.AperFunction,ComponentPad*%
%ADD15O,1.700000X1.700000*%
%TD*%
%TA.AperFunction,ComponentPad*%
%ADD16C,2.500000*%
%TD*%
%TA.AperFunction,SMDPad,CuDef*%
%ADD17RoundRect,0.250000X0.412500X0.650000X-0.412500X0.650000X-0.412500X-0.650000X0.412500X-0.650000X0*%
%TD*%
%TA.AperFunction,SMDPad,CuDef*%
%ADD18RoundRect,0.250000X-0.450000X0.325000X-0.450000X-0.325000X0.450000X-0.325000X0.450000X0.325000X0*%
%TD*%
%TA.AperFunction,SMDPad,CuDef*%
%ADD19RoundRect,0.250000X0.450000X-0.325000X0.450000X0.325000X-0.450000X0.325000X-0.450000X-0.325000X0*%
%TD*%
%TA.AperFunction,SMDPad,CuDef*%
%ADD20RoundRect,0.250000X-0.325000X-0.450000X0.325000X-0.450000X0.325000X0.450000X-0.325000X0.450000X0*%
%TD*%
%TA.AperFunction,SMDPad,CuDef*%
%ADD21RoundRect,0.250000X-0.650000X0.412500X-0.650000X-0.412500X0.650000X-0.412500X0.650000X0.412500X0*%
%TD*%
%TA.AperFunction,SMDPad,CuDef*%
%ADD22RoundRect,0.250000X-0.412500X-0.650000X0.412500X-0.650000X0.412500X0.650000X-0.412500X0.650000X0*%
%TD*%
%TA.AperFunction,SMDPad,CuDef*%
%ADD23RoundRect,0.250000X-0.412500X-1.100000X0.412500X-1.100000X0.412500X1.100000X-0.412500X1.100000X0*%
%TD*%
%TA.AperFunction,SMDPad,CuDef*%
%ADD24RoundRect,0.250000X-1.100000X0.412500X-1.100000X-0.412500X1.100000X-0.412500X1.100000X0.412500X0*%
%TD*%
%TA.AperFunction,ViaPad*%
%ADD25C,0.800000*%
%TD*%
%TA.AperFunction,Conductor*%
%ADD26C,1.000000*%
%TD*%
%TA.AperFunction,Conductor*%
%ADD27C,0.250000*%
%TD*%
%TA.AperFunction,Conductor*%
%ADD28C,3.000000*%
%TD*%
%TA.AperFunction,Conductor*%
%ADD29C,0.254000*%
%TD*%
G04 APERTURE END LIST*
D10*
%TO.P,Y1,1*%
%TO.N,N/C*%
X133890000Y-86605000D03*
D11*
%TO.P,Y1,7,CASE_GND*%
%TO.N,GND*%
X149130000Y-86605000D03*
%TO.P,Y1,8,OUTPUT*%
%TO.N,HF_MOD*%
X149130000Y-78985000D03*
%TO.P,Y1,14,+VDC*%
%TO.N,PB0*%
X133890000Y-78985000D03*
%TD*%
D12*
%TO.P,ATTINY85,1,PB5*%
%TO.N,PB5*%
X137922000Y-113665000D03*
D13*
%TO.P,ATTINY85,2,PB3*%
%TO.N,PB3*%
X140462000Y-113665000D03*
%TO.P,ATTINY85,3,PB4*%
%TO.N,PB4*%
X143002000Y-113665000D03*
%TO.P,ATTINY85,4,GND*%
%TO.N,GND*%
X145542000Y-113665000D03*
%TO.P,ATTINY85,5,PB0*%
%TO.N,PB0*%
X145542000Y-106045000D03*
%TO.P,ATTINY85,6,PB1*%
%TO.N,PB1*%
X143002000Y-106045000D03*
%TO.P,ATTINY85,7,PB2*%
%TO.N,PB2*%
X140462000Y-106045000D03*
%TO.P,ATTINY85,8,VCC*%
%TO.N,VCC*%
X137922000Y-106045000D03*
%TD*%
D14*
%TO.P,JPROG,1,Pin_1*%
%TO.N,PB0*%
X135509000Y-118364000D03*
D15*
%TO.P,JPROG,2,Pin_2*%
%TO.N,PB1*%
X138049000Y-118364000D03*
%TO.P,JPROG,3,Pin_3*%
%TO.N,PB2*%
X140589000Y-118364000D03*
%TO.P,JPROG,4,Pin_4*%
%TO.N,PB3*%
X143129000Y-118364000D03*
%TO.P,JPROG,5,Pin_5*%
%TO.N,PB4*%
X145669000Y-118364000D03*
%TO.P,JPROG,6,Pin_6*%
%TO.N,PB5*%
X148209000Y-118364000D03*
%TD*%
D16*
%TO.P,ANT,1,Pin_1*%
%TO.N,RF_OUT*%
X141732000Y-74168000D03*
%TD*%
D14*
%TO.P,PWR,1,Pin_1*%
%TO.N,VCC*%
X131973000Y-95860000D03*
D15*
%TO.P,PWR,2,Pin_2*%
%TO.N,GND*%
X134513000Y-95860000D03*
%TD*%
D16*
%TO.P,J4,1,Pin_1*%
%TO.N,GND*%
X141605000Y-92075000D03*
%TD*%
D14*
%TO.P,PWR,1,Pin_1*%
%TO.N,N/C*%
X131973000Y-99543000D03*
D15*
%TO.P,PWR,2,Pin_2*%
X134513000Y-99543000D03*
%TD*%
D17*
%TO.P,C2,1*%
%TO.N,Net-(56pF1-Pad1)*%
X144818500Y-82550000D03*
%TO.P,C2,2*%
%TO.N,Net-(C2-Pad2)*%
X141693500Y-82550000D03*
%TD*%
D18*
%TO.P,L1,1,1*%
%TO.N,HF_MOD*%
X149098000Y-80636000D03*
%TO.P,L1,2,2*%
%TO.N,Net-(56pF1-Pad1)*%
X149098000Y-82686000D03*
%TD*%
D19*
%TO.P,L3,1,1*%
%TO.N,Net-(C4-Pad2)*%
X133477000Y-84337000D03*
%TO.P,L3,2,2*%
%TO.N,RF_OUT*%
X133477000Y-82287000D03*
%TD*%
D20*
%TO.P,L2,1,1*%
%TO.N,Net-(C2-Pad2)*%
X143755000Y-86741000D03*
%TO.P,L2,2,2*%
%TO.N,GND*%
X145805000Y-86741000D03*
%TD*%
D21*
%TO.P,C4,1*%
%TO.N,Net-(C2-Pad2)*%
X137922000Y-83400500D03*
%TO.P,C4,2*%
%TO.N,Net-(C4-Pad2)*%
X137922000Y-86525500D03*
%TD*%
D22*
%TO.P,C3,1*%
%TO.N,Net-(C2-Pad2)*%
X140931500Y-78867000D03*
%TO.P,C3,2*%
%TO.N,GND*%
X144056500Y-78867000D03*
%TD*%
D23*
%TO.P,C5,1*%
%TO.N,Net-(C4-Pad2)*%
X135597500Y-92075000D03*
%TO.P,C5,2*%
%TO.N,GND*%
X138722500Y-92075000D03*
%TD*%
D24*
%TO.P,C1,1*%
%TO.N,Net-(56pF1-Pad1)*%
X153035000Y-82892500D03*
%TO.P,C1,2*%
%TO.N,GND*%
X153035000Y-86017500D03*
%TD*%
D25*
%TO.N,GND*%
X132080000Y-71120000D03*
X149225000Y-100330000D03*
X130810000Y-113030000D03*
X151765000Y-107315000D03*
X130810000Y-92075000D03*
X149225000Y-120650000D03*
X147955000Y-102870000D03*
X149225000Y-112395000D03*
X137160000Y-78105000D03*
X145415000Y-73660000D03*
X152400000Y-99060000D03*
X139065000Y-88265000D03*
X135890000Y-72390000D03*
X146685000Y-71120000D03*
X146431000Y-78740000D03*
X148590000Y-77470000D03*
X135890000Y-120650000D03*
X153035000Y-80645000D03*
X135255000Y-77470000D03*
X149225000Y-84455000D03*
X134620000Y-104775000D03*
X148590000Y-108585000D03*
X130810000Y-118745000D03*
X138430000Y-77470000D03*
X152400000Y-101600000D03*
X135255000Y-109347000D03*
X132080000Y-93345000D03*
X153035000Y-88265000D03*
X153035000Y-105410000D03*
X151765000Y-110490000D03*
X144780000Y-101600000D03*
X144653000Y-109855000D03*
X143510000Y-120650000D03*
X147955000Y-73025000D03*
X147193000Y-84074000D03*
X149860000Y-105410000D03*
X146685000Y-90805000D03*
X151130000Y-73025000D03*
X153035000Y-78105000D03*
X151003000Y-93980000D03*
X130810000Y-103505000D03*
X147320000Y-92710000D03*
X132080000Y-75565000D03*
X130810000Y-107315000D03*
X132715000Y-77470000D03*
X152400000Y-114300000D03*
X141097000Y-87249000D03*
X138430000Y-64770000D03*
X146050000Y-98425000D03*
X150495000Y-90805000D03*
X146558000Y-76708000D03*
X131445000Y-88265000D03*
X149860000Y-88900000D03*
X137795000Y-68580000D03*
X137160000Y-74930000D03*
X142875000Y-100965000D03*
X137160000Y-80010000D03*
X138430000Y-102870000D03*
X151130000Y-76835000D03*
X153670000Y-120650000D03*
X144780000Y-64135000D03*
X130175000Y-76200000D03*
%TO.N,PB0*%
X135059000Y-115189000D03*
%TD*%
D26*
%TO.N,Net-(56pF1-Pad1)*%
X149098000Y-82686000D02*
X144954500Y-82686000D01*
X149304500Y-82892500D02*
X149098000Y-82686000D01*
X144954500Y-82686000D02*
X144818500Y-82550000D01*
X153035000Y-82892500D02*
X149304500Y-82892500D01*
X151685500Y-82813000D02*
X151765000Y-82892500D01*
%TO.N,GND*%
X149717500Y-86017500D02*
X149130000Y-86605000D01*
D27*
X139480000Y-92295000D02*
X139700000Y-92075000D01*
X142016600Y-102519600D02*
X139480000Y-99983000D01*
X141859000Y-102677200D02*
X142016600Y-102519600D01*
X142016600Y-110139600D02*
X142016600Y-107345600D01*
X139480000Y-99983000D02*
X139480000Y-92295000D01*
X145542000Y-113665000D02*
X142016600Y-110139600D01*
D26*
X149717500Y-86017500D02*
X153035000Y-86017500D01*
D28*
X141605000Y-92075000D02*
X139700000Y-92075000D01*
D26*
X148994000Y-86741000D02*
X149130000Y-86605000D01*
D27*
X141859000Y-107188000D02*
X141859000Y-102677200D01*
D28*
X139700000Y-92075000D02*
X138722500Y-92075000D01*
D27*
X142016600Y-107345600D02*
X141859000Y-107188000D01*
D26*
%TO.N,Net-(C2-Pad2)*%
X141693500Y-84679500D02*
X143755000Y-86741000D01*
X141693500Y-79629000D02*
X140931500Y-78867000D01*
X141693500Y-82550000D02*
X138772500Y-82550000D01*
X141693500Y-82550000D02*
X141693500Y-84679500D01*
X141693500Y-82550000D02*
X141693500Y-79629000D01*
X138772500Y-82550000D02*
X137922000Y-83400500D01*
%TO.N,Net-(C4-Pad2)*%
X137922000Y-89750500D02*
X135597500Y-92075000D01*
X137922000Y-86525500D02*
X137922000Y-89750500D01*
X137922000Y-86525500D02*
X135733500Y-84337000D01*
X135733500Y-84337000D02*
X133477000Y-84337000D01*
D27*
%TO.N,PB0*%
X133338000Y-88912000D02*
X131191000Y-86765000D01*
X131191000Y-80264000D02*
X132470000Y-78985000D01*
X133338000Y-113468000D02*
X135059000Y-115189000D01*
X132470000Y-78985000D02*
X133890000Y-78985000D01*
X131191000Y-86765000D02*
X131191000Y-80264000D01*
X133338000Y-88912000D02*
X133338000Y-113468000D01*
D29*
%TO.N,PB2*%
X139474600Y-107032400D02*
X139474600Y-117249600D01*
X139474600Y-117249600D02*
X140589000Y-118364000D01*
X140462000Y-106045000D02*
X139474600Y-107032400D01*
D26*
%TO.N,RF_OUT*%
X136438635Y-82287000D02*
X139530000Y-79195635D01*
X139530000Y-76370000D02*
X141732000Y-74168000D01*
X133477000Y-82287000D02*
X136438635Y-82287000D01*
X139530000Y-79195635D02*
X139530000Y-76370000D01*
%TO.N,HF_MOD*%
X149130000Y-78985000D02*
X149130000Y-80731000D01*
X149130000Y-80731000D02*
X149098000Y-80763000D01*
%TD*%
%TA.AperFunction,Conductor*%
%TO.N,GND*%
G36*
X154628265Y-62885185D02*
G01*
X154674020Y-62937989D01*
X154685226Y-62989772D01*
X154644215Y-81690403D01*
X154624383Y-81757399D01*
X154571479Y-81803038D01*
X154502299Y-81812830D01*
X154461070Y-81797834D01*
X154460882Y-81798240D01*
X154456261Y-81796085D01*
X154455119Y-81795670D01*
X154454340Y-81795189D01*
X154454335Y-81795187D01*
X154454334Y-81795186D01*
X154287797Y-81740001D01*
X154287795Y-81740000D01*
X154185010Y-81729500D01*
X151884998Y-81729500D01*
X151884981Y-81729501D01*
X151782203Y-81740000D01*
X151782200Y-81740001D01*
X151615670Y-81795183D01*
X151615667Y-81795185D01*
X151601453Y-81803952D01*
X151552027Y-81821416D01*
X151458175Y-81833368D01*
X151345077Y-81872026D01*
X151306143Y-81885335D01*
X151266038Y-81892000D01*
X150191730Y-81892000D01*
X150124691Y-81872315D01*
X150104049Y-81855681D01*
X150016658Y-81768290D01*
X150016656Y-81768288D01*
X150013819Y-81766538D01*
X150012283Y-81764830D01*
X150010989Y-81763807D01*
X150011163Y-81763585D01*
X149967096Y-81714594D01*
X149955872Y-81645632D01*
X149983713Y-81581549D01*
X150013817Y-81555462D01*
X150016656Y-81553712D01*
X150140712Y-81429656D01*
X150232814Y-81280334D01*
X150287999Y-81113797D01*
X150298500Y-81011009D01*
X150298499Y-80260992D01*
X150287999Y-80158203D01*
X150232814Y-79991666D01*
X150230870Y-79988514D01*
X150148961Y-79855717D01*
X150130500Y-79790621D01*
X150130500Y-79426696D01*
X150138875Y-79381899D01*
X150140913Y-79376636D01*
X150140916Y-79376631D01*
X150195666Y-79184207D01*
X150214125Y-78985000D01*
X150195666Y-78785793D01*
X150140916Y-78593369D01*
X150128132Y-78567696D01*
X150073601Y-78458181D01*
X150051742Y-78414282D01*
X149931178Y-78254630D01*
X149783331Y-78119850D01*
X149613236Y-78014531D01*
X149613235Y-78014530D01*
X149476830Y-77961687D01*
X149426685Y-77942261D01*
X149230030Y-77905500D01*
X149029970Y-77905500D01*
X148833315Y-77942261D01*
X148833312Y-77942261D01*
X148833312Y-77942262D01*
X148646764Y-78014530D01*
X148646763Y-78014531D01*
X148476667Y-78119851D01*
X148328823Y-78254628D01*
X148208258Y-78414281D01*
X148119088Y-78593358D01*
X148119083Y-78593371D01*
X148064333Y-78785793D01*
X148045875Y-78984999D01*
X148045875Y-78985000D01*
X148064333Y-79184206D01*
X148119084Y-79376632D01*
X148121125Y-79381899D01*
X148129500Y-79426696D01*
X148129500Y-79716770D01*
X148109815Y-79783809D01*
X148093181Y-79804451D01*
X148055289Y-79842342D01*
X147963187Y-79991663D01*
X147963185Y-79991668D01*
X147949852Y-80031906D01*
X147908001Y-80158203D01*
X147908001Y-80158204D01*
X147908000Y-80158204D01*
X147897500Y-80260983D01*
X147897500Y-81011001D01*
X147897501Y-81011019D01*
X147908000Y-81113796D01*
X147908001Y-81113799D01*
X147941598Y-81215186D01*
X147963186Y-81280334D01*
X148029926Y-81388538D01*
X148055289Y-81429657D01*
X148099451Y-81473819D01*
X148132936Y-81535142D01*
X148127952Y-81604834D01*
X148086080Y-81660767D01*
X148020616Y-81685184D01*
X148011770Y-81685500D01*
X146040094Y-81685500D01*
X145973055Y-81665815D01*
X145927300Y-81613011D01*
X145922389Y-81600506D01*
X145915815Y-81580668D01*
X145915812Y-81580663D01*
X145823712Y-81431344D01*
X145699656Y-81307288D01*
X145561383Y-81222001D01*
X145550336Y-81215187D01*
X145550331Y-81215185D01*
X145539210Y-81211500D01*
X145383797Y-81160001D01*
X145383795Y-81160000D01*
X145281010Y-81149500D01*
X144355998Y-81149500D01*
X144355980Y-81149501D01*
X144253203Y-81160000D01*
X144253200Y-81160001D01*
X144086668Y-81215185D01*
X144086663Y-81215187D01*
X143937342Y-81307289D01*
X143813289Y-81431342D01*
X143721187Y-81580663D01*
X143721185Y-81580668D01*
X143699658Y-81645632D01*
X143666001Y-81747203D01*
X143666001Y-81747204D01*
X143666000Y-81747204D01*
X143655500Y-81849983D01*
X143655500Y-83250001D01*
X143655501Y-83250018D01*
X143666000Y-83352796D01*
X143666001Y-83352799D01*
X143708011Y-83479575D01*
X143721186Y-83519334D01*
X143813288Y-83668656D01*
X143937344Y-83792712D01*
X144086666Y-83884814D01*
X144253203Y-83939999D01*
X144355991Y-83950500D01*
X145281008Y-83950499D01*
X145281016Y-83950498D01*
X145281019Y-83950498D01*
X145337302Y-83944748D01*
X145383797Y-83939999D01*
X145550334Y-83884814D01*
X145699656Y-83792712D01*
X145769549Y-83722819D01*
X145830872Y-83689334D01*
X145857230Y-83686500D01*
X148281202Y-83686500D01*
X148321204Y-83695368D01*
X148321810Y-83693542D01*
X148328665Y-83695813D01*
X148328666Y-83695814D01*
X148495203Y-83750999D01*
X148597991Y-83761500D01*
X148766973Y-83761499D01*
X148815872Y-83771547D01*
X148837568Y-83780857D01*
X148870677Y-83795065D01*
X148879153Y-83799090D01*
X148931451Y-83826409D01*
X148955897Y-83833403D01*
X148960684Y-83834773D01*
X148975476Y-83840039D01*
X149003439Y-83852039D01*
X149003442Y-83852040D01*
X149056793Y-83863003D01*
X149061227Y-83863914D01*
X149070369Y-83866157D01*
X149127082Y-83882386D01*
X149157418Y-83884696D01*
X149172957Y-83886876D01*
X149202755Y-83893000D01*
X149202759Y-83893000D01*
X149261744Y-83893000D01*
X149271159Y-83893357D01*
X149329976Y-83897837D01*
X149360151Y-83893993D01*
X149375818Y-83893000D01*
X151423539Y-83893000D01*
X151488633Y-83911460D01*
X151615666Y-83989814D01*
X151782203Y-84044999D01*
X151884991Y-84055500D01*
X154185008Y-84055499D01*
X154287797Y-84044999D01*
X154454334Y-83989814D01*
X154454343Y-83989808D01*
X154460882Y-83986760D01*
X154462044Y-83989253D01*
X154517195Y-83974146D01*
X154583865Y-83995049D01*
X154628649Y-84048678D01*
X154638935Y-84098397D01*
X154637370Y-84811767D01*
X154617538Y-84878763D01*
X154564634Y-84924402D01*
X154495454Y-84934194D01*
X154461513Y-84921886D01*
X154460670Y-84923696D01*
X154454119Y-84920641D01*
X154287697Y-84865494D01*
X154287690Y-84865493D01*
X154184986Y-84855000D01*
X153285000Y-84855000D01*
X153285000Y-87179999D01*
X154184972Y-87179999D01*
X154184986Y-87179998D01*
X154287697Y-87169505D01*
X154454119Y-87114358D01*
X154455662Y-87113639D01*
X154456822Y-87113462D01*
X154460977Y-87112086D01*
X154461212Y-87112795D01*
X154524739Y-87103142D01*
X154588525Y-87131657D01*
X154626769Y-87190131D01*
X154632075Y-87226289D01*
X154588318Y-107179770D01*
X154561144Y-119571547D01*
X154558500Y-120777035D01*
X154558500Y-121033500D01*
X154538815Y-121100539D01*
X154486011Y-121146294D01*
X154434500Y-121157500D01*
X129664500Y-121157500D01*
X129597461Y-121137815D01*
X129551706Y-121085011D01*
X129540500Y-121033500D01*
X129540500Y-119261870D01*
X134158500Y-119261870D01*
X134158501Y-119261876D01*
X134164908Y-119321483D01*
X134215202Y-119456328D01*
X134215206Y-119456335D01*
X134301452Y-119571544D01*
X134301455Y-119571547D01*
X134416664Y-119657793D01*
X134416671Y-119657797D01*
X134551517Y-119708091D01*
X134551516Y-119708091D01*
X134558444Y-119708835D01*
X134611127Y-119714500D01*
X136406872Y-119714499D01*
X136466483Y-119708091D01*
X136601331Y-119657796D01*
X136716546Y-119571546D01*
X136802796Y-119456331D01*
X136851810Y-119324916D01*
X136893681Y-119268984D01*
X136959145Y-119244566D01*
X137027418Y-119259417D01*
X137055673Y-119280569D01*
X137177599Y-119402495D01*
X137274384Y-119470265D01*
X137371165Y-119538032D01*
X137371167Y-119538033D01*
X137371170Y-119538035D01*
X137585337Y-119637903D01*
X137813592Y-119699063D01*
X137990034Y-119714500D01*
X138048999Y-119719659D01*
X138049000Y-119719659D01*
X138049001Y-119719659D01*
X138107966Y-119714500D01*
X138284408Y-119699063D01*
X138512663Y-119637903D01*
X138726830Y-119538035D01*
X138920401Y-119402495D01*
X139087495Y-119235401D01*
X139217425Y-119049842D01*
X139272002Y-119006217D01*
X139341500Y-118999023D01*
X139403855Y-119030546D01*
X139420575Y-119049842D01*
X139550500Y-119235395D01*
X139550505Y-119235401D01*
X139717599Y-119402495D01*
X139814384Y-119470265D01*
X139911165Y-119538032D01*
X139911167Y-119538033D01*
X139911170Y-119538035D01*
X140125337Y-119637903D01*
X140353592Y-119699063D01*
X140530034Y-119714500D01*
X140588999Y-119719659D01*
X140589000Y-119719659D01*
X140589001Y-119719659D01*
X140647966Y-119714500D01*
X140824408Y-119699063D01*
X141052663Y-119637903D01*
X141266830Y-119538035D01*
X141460401Y-119402495D01*
X141627495Y-119235401D01*
X141757425Y-119049842D01*
X141812002Y-119006217D01*
X141881500Y-118999023D01*
X141943855Y-119030546D01*
X141960575Y-119049842D01*
X142090500Y-119235395D01*
X142090505Y-119235401D01*
X142257599Y-119402495D01*
X142354384Y-119470265D01*
X142451165Y-119538032D01*
X142451167Y-119538033D01*
X142451170Y-119538035D01*
X142665337Y-119637903D01*
X142893592Y-119699063D01*
X143070034Y-119714500D01*
X143128999Y-119719659D01*
X143129000Y-119719659D01*
X143129001Y-119719659D01*
X143187966Y-119714500D01*
X143364408Y-119699063D01*
X143592663Y-119637903D01*
X143806830Y-119538035D01*
X144000401Y-119402495D01*
X144167495Y-119235401D01*
X144297425Y-119049842D01*
X144352002Y-119006217D01*
X144421500Y-118999023D01*
X144483855Y-119030546D01*
X144500575Y-119049842D01*
X144630500Y-119235395D01*
X144630505Y-119235401D01*
X144797599Y-119402495D01*
X144894384Y-119470265D01*
X144991165Y-119538032D01*
X144991167Y-119538033D01*
X144991170Y-119538035D01*
X145205337Y-119637903D01*
X145433592Y-119699063D01*
X145610034Y-119714500D01*
X145668999Y-119719659D01*
X145669000Y-119719659D01*
X145669001Y-119719659D01*
X145727966Y-119714500D01*
X145904408Y-119699063D01*
X146132663Y-119637903D01*
X146346830Y-119538035D01*
X146540401Y-119402495D01*
X146707495Y-119235401D01*
X146837425Y-119049842D01*
X146892002Y-119006217D01*
X146961500Y-118999023D01*
X147023855Y-119030546D01*
X147040575Y-119049842D01*
X147170500Y-119235395D01*
X147170505Y-119235401D01*
X147337599Y-119402495D01*
X147434384Y-119470265D01*
X147531165Y-119538032D01*
X147531167Y-119538033D01*
X147531170Y-119538035D01*
X147745337Y-119637903D01*
X147973592Y-119699063D01*
X148150034Y-119714500D01*
X148208999Y-119719659D01*
X148209000Y-119719659D01*
X148209001Y-119719659D01*
X148267966Y-119714500D01*
X148444408Y-119699063D01*
X148672663Y-119637903D01*
X148886830Y-119538035D01*
X149080401Y-119402495D01*
X149247495Y-119235401D01*
X149383035Y-119041830D01*
X149482903Y-118827663D01*
X149544063Y-118599408D01*
X149564659Y-118364000D01*
X149544063Y-118128592D01*
X149482903Y-117900337D01*
X149383035Y-117686171D01*
X149377425Y-117678158D01*
X149247494Y-117492597D01*
X149080402Y-117325506D01*
X149080395Y-117325501D01*
X148886834Y-117189967D01*
X148886830Y-117189965D01*
X148831579Y-117164201D01*
X148672663Y-117090097D01*
X148672659Y-117090096D01*
X148672655Y-117090094D01*
X148444413Y-117028938D01*
X148444403Y-117028936D01*
X148209001Y-117008341D01*
X148208999Y-117008341D01*
X147973596Y-117028936D01*
X147973586Y-117028938D01*
X147745344Y-117090094D01*
X147745335Y-117090098D01*
X147531171Y-117189964D01*
X147531169Y-117189965D01*
X147337597Y-117325505D01*
X147170505Y-117492597D01*
X147040575Y-117678158D01*
X146985998Y-117721783D01*
X146916500Y-117728977D01*
X146854145Y-117697454D01*
X146837425Y-117678158D01*
X146707494Y-117492597D01*
X146540402Y-117325506D01*
X146540395Y-117325501D01*
X146346834Y-117189967D01*
X146346830Y-117189965D01*
X146291579Y-117164201D01*
X146132663Y-117090097D01*
X146132659Y-117090096D01*
X146132655Y-117090094D01*
X145904413Y-117028938D01*
X145904403Y-117028936D01*
X145669001Y-117008341D01*
X145668999Y-117008341D01*
X145433596Y-117028936D01*
X145433586Y-117028938D01*
X145205344Y-117090094D01*
X145205335Y-117090098D01*
X144991171Y-117189964D01*
X144991169Y-117189965D01*
X144797597Y-117325505D01*
X144630505Y-117492597D01*
X144500575Y-117678158D01*
X144445998Y-117721783D01*
X144376500Y-117728977D01*
X144314145Y-117697454D01*
X144297425Y-117678158D01*
X144167494Y-117492597D01*
X144000402Y-117325506D01*
X144000395Y-117325501D01*
X143806834Y-117189967D01*
X143806830Y-117189965D01*
X143751579Y-117164201D01*
X143592663Y-117090097D01*
X143592659Y-117090096D01*
X143592655Y-117090094D01*
X143364413Y-117028938D01*
X143364403Y-117028936D01*
X143129001Y-117008341D01*
X143128999Y-117008341D01*
X142893596Y-117028936D01*
X142893586Y-117028938D01*
X142665344Y-117090094D01*
X142665335Y-117090098D01*
X142451171Y-117189964D01*
X142451169Y-117189965D01*
X142257597Y-117325505D01*
X142090505Y-117492597D01*
X141960575Y-117678158D01*
X141905998Y-117721783D01*
X141836500Y-117728977D01*
X141774145Y-117697454D01*
X141757425Y-117678158D01*
X141627494Y-117492597D01*
X141460402Y-117325506D01*
X141460395Y-117325501D01*
X141266834Y-117189967D01*
X141266830Y-117189965D01*
X141211579Y-117164201D01*
X141052663Y-117090097D01*
X141052659Y-117090096D01*
X141052655Y-117090094D01*
X140824413Y-117028938D01*
X140824403Y-117028936D01*
X140589001Y-117008341D01*
X140588999Y-117008341D01*
X140353596Y-117028936D01*
X140353583Y-117028939D01*
X140258192Y-117054498D01*
X140188342Y-117052835D01*
X140130480Y-117013672D01*
X140102977Y-116949443D01*
X140102100Y-116934723D01*
X140102100Y-114928059D01*
X140121785Y-114861020D01*
X140174589Y-114815265D01*
X140243747Y-114805321D01*
X140248848Y-114806163D01*
X140354427Y-114825900D01*
X140354429Y-114825900D01*
X140569571Y-114825900D01*
X140569573Y-114825900D01*
X140781056Y-114786367D01*
X140981674Y-114708647D01*
X141164595Y-114595387D01*
X141323591Y-114450444D01*
X141453245Y-114278753D01*
X141549144Y-114086162D01*
X141608022Y-113879229D01*
X141608529Y-113873758D01*
X141634315Y-113808820D01*
X141691115Y-113768132D01*
X141760896Y-113764612D01*
X141821503Y-113799377D01*
X141853693Y-113861389D01*
X141855471Y-113873758D01*
X141855977Y-113879227D01*
X141914855Y-114086159D01*
X141914860Y-114086172D01*
X142010751Y-114278746D01*
X142010753Y-114278749D01*
X142010755Y-114278753D01*
X142010758Y-114278757D01*
X142010760Y-114278760D01*
X142047836Y-114327857D01*
X142140409Y-114450444D01*
X142140412Y-114450446D01*
X142140414Y-114450449D01*
X142299402Y-114595385D01*
X142299404Y-114595386D01*
X142299405Y-114595387D01*
X142482326Y-114708647D01*
X142682944Y-114786367D01*
X142894427Y-114825900D01*
X142894429Y-114825900D01*
X143109571Y-114825900D01*
X143109573Y-114825900D01*
X143321056Y-114786367D01*
X143521674Y-114708647D01*
X143704595Y-114595387D01*
X143863591Y-114450444D01*
X143993245Y-114278753D01*
X144089144Y-114086162D01*
X144148022Y-113879229D01*
X144148780Y-113871047D01*
X144174564Y-113806110D01*
X144231363Y-113765421D01*
X144301144Y-113761899D01*
X144361752Y-113796663D01*
X144393943Y-113858675D01*
X144395722Y-113871043D01*
X144396471Y-113879131D01*
X144455325Y-114085984D01*
X144551182Y-114278489D01*
X144561410Y-114292034D01*
X144561411Y-114292035D01*
X145138452Y-113714994D01*
X145150673Y-113792150D01*
X145209117Y-113906854D01*
X145300146Y-113997883D01*
X145414850Y-114056327D01*
X145492005Y-114068547D01*
X144917436Y-114643114D01*
X145022545Y-114708195D01*
X145022551Y-114708197D01*
X145223083Y-114785883D01*
X145434475Y-114825400D01*
X145649525Y-114825400D01*
X145860916Y-114785883D01*
X145860917Y-114785883D01*
X146061448Y-114708197D01*
X146061449Y-114708197D01*
X146166562Y-114643114D01*
X145591995Y-114068547D01*
X145669150Y-114056327D01*
X145783854Y-113997883D01*
X145874883Y-113906854D01*
X145933327Y-113792150D01*
X145945547Y-113714994D01*
X146522588Y-114292035D01*
X146532816Y-114278491D01*
X146628674Y-114085984D01*
X146687528Y-113879131D01*
X146707370Y-113665000D01*
X146687528Y-113450868D01*
X146628674Y-113244015D01*
X146532821Y-113051517D01*
X146532813Y-113051504D01*
X146522587Y-113037963D01*
X145945547Y-113615004D01*
X145933327Y-113537850D01*
X145874883Y-113423146D01*
X145783854Y-113332117D01*
X145669150Y-113273673D01*
X145591995Y-113261452D01*
X146166562Y-112686884D01*
X146061447Y-112621801D01*
X145860916Y-112544116D01*
X145649525Y-112504600D01*
X145434475Y-112504600D01*
X145223083Y-112544116D01*
X145223082Y-112544116D01*
X145022551Y-112621802D01*
X145022548Y-112621803D01*
X144917436Y-112686884D01*
X145492005Y-113261452D01*
X145414850Y-113273673D01*
X145300146Y-113332117D01*
X145209117Y-113423146D01*
X145150673Y-113537850D01*
X145138452Y-113615005D01*
X144561411Y-113037964D01*
X144551179Y-113051515D01*
X144455325Y-113244015D01*
X144396471Y-113450867D01*
X144395722Y-113458957D01*
X144369934Y-113523894D01*
X144313133Y-113564580D01*
X144243352Y-113568098D01*
X144182746Y-113533332D01*
X144150557Y-113471318D01*
X144148780Y-113458952D01*
X144148022Y-113450772D01*
X144136042Y-113408667D01*
X144089144Y-113243838D01*
X144071751Y-113208909D01*
X143993248Y-113051253D01*
X143993247Y-113051252D01*
X143993245Y-113051247D01*
X143863591Y-112879556D01*
X143863587Y-112879552D01*
X143863585Y-112879550D01*
X143704597Y-112734614D01*
X143627510Y-112686884D01*
X143521674Y-112621353D01*
X143321056Y-112543633D01*
X143109573Y-112504100D01*
X142894427Y-112504100D01*
X142682944Y-112543633D01*
X142595397Y-112577549D01*
X142482328Y-112621352D01*
X142482327Y-112621352D01*
X142299402Y-112734614D01*
X142140414Y-112879550D01*
X142140407Y-112879558D01*
X142010760Y-113051239D01*
X142010751Y-113051253D01*
X141914860Y-113243827D01*
X141914855Y-113243840D01*
X141855978Y-113450771D01*
X141855471Y-113456243D01*
X141829685Y-113521180D01*
X141772884Y-113561867D01*
X141703103Y-113565387D01*
X141642497Y-113530622D01*
X141610307Y-113468609D01*
X141608529Y-113456243D01*
X141608022Y-113450771D01*
X141549144Y-113243838D01*
X141531751Y-113208909D01*
X141453248Y-113051253D01*
X141453247Y-113051252D01*
X141453245Y-113051247D01*
X141323591Y-112879556D01*
X141323587Y-112879552D01*
X141323585Y-112879550D01*
X141164597Y-112734614D01*
X141087510Y-112686884D01*
X140981674Y-112621353D01*
X140781056Y-112543633D01*
X140569573Y-112504100D01*
X140354427Y-112504100D01*
X140320462Y-112510449D01*
X140248884Y-112523829D01*
X140179369Y-112516798D01*
X140124691Y-112473300D01*
X140102209Y-112407146D01*
X140102100Y-112401940D01*
X140102100Y-107343681D01*
X140121785Y-107276642D01*
X140138414Y-107256004D01*
X140168431Y-107225987D01*
X140229751Y-107192503D01*
X140278894Y-107191780D01*
X140354427Y-107205900D01*
X140354430Y-107205900D01*
X140569571Y-107205900D01*
X140569573Y-107205900D01*
X140781056Y-107166367D01*
X140981674Y-107088647D01*
X141164595Y-106975387D01*
X141323591Y-106830444D01*
X141453245Y-106658753D01*
X141549144Y-106466162D01*
X141608022Y-106259229D01*
X141608529Y-106253758D01*
X141634315Y-106188820D01*
X141691115Y-106148132D01*
X141760896Y-106144612D01*
X141821503Y-106179377D01*
X141853693Y-106241389D01*
X141855471Y-106253758D01*
X141855977Y-106259227D01*
X141914855Y-106466159D01*
X141914860Y-106466172D01*
X142010751Y-106658746D01*
X142010753Y-106658749D01*
X142010755Y-106658753D01*
X142010758Y-106658757D01*
X142010760Y-106658760D01*
X142049785Y-106710438D01*
X142140409Y-106830444D01*
X142140412Y-106830446D01*
X142140414Y-106830449D01*
X142299402Y-106975385D01*
X142299404Y-106975386D01*
X142299405Y-106975387D01*
X142482326Y-107088647D01*
X142682944Y-107166367D01*
X142894427Y-107205900D01*
X142894429Y-107205900D01*
X143109571Y-107205900D01*
X143109573Y-107205900D01*
X143321056Y-107166367D01*
X143521674Y-107088647D01*
X143704595Y-106975387D01*
X143863591Y-106830444D01*
X143993245Y-106658753D01*
X144089144Y-106466162D01*
X144148022Y-106259229D01*
X144148529Y-106253758D01*
X144174315Y-106188820D01*
X144231115Y-106148132D01*
X144300896Y-106144612D01*
X144361503Y-106179377D01*
X144393693Y-106241389D01*
X144395471Y-106253758D01*
X144395977Y-106259227D01*
X144454855Y-106466159D01*
X144454860Y-106466172D01*
X144550751Y-106658746D01*
X144550753Y-106658749D01*
X144550755Y-106658753D01*
X144550758Y-106658757D01*
X144550760Y-106658760D01*
X144589785Y-106710438D01*
X144680409Y-106830444D01*
X144680412Y-106830446D01*
X144680414Y-106830449D01*
X144839402Y-106975385D01*
X144839404Y-106975386D01*
X144839405Y-106975387D01*
X145022326Y-107088647D01*
X145222944Y-107166367D01*
X145434427Y-107205900D01*
X145434429Y-107205900D01*
X145649571Y-107205900D01*
X145649573Y-107205900D01*
X145861056Y-107166367D01*
X146061674Y-107088647D01*
X146244595Y-106975387D01*
X146403591Y-106830444D01*
X146533245Y-106658753D01*
X146629144Y-106466162D01*
X146688022Y-106259229D01*
X146707873Y-106045000D01*
X146688022Y-105830771D01*
X146629144Y-105623838D01*
X146533245Y-105431247D01*
X146403591Y-105259556D01*
X146403587Y-105259552D01*
X146403585Y-105259550D01*
X146244597Y-105114614D01*
X146204811Y-105089979D01*
X146061674Y-105001353D01*
X145861056Y-104923633D01*
X145649573Y-104884100D01*
X145434427Y-104884100D01*
X145222944Y-104923633D01*
X145096075Y-104972782D01*
X145022328Y-105001352D01*
X145022327Y-105001352D01*
X144839402Y-105114614D01*
X144680414Y-105259550D01*
X144680407Y-105259558D01*
X144550760Y-105431239D01*
X144550751Y-105431253D01*
X144454860Y-105623827D01*
X144454855Y-105623840D01*
X144395978Y-105830771D01*
X144395471Y-105836243D01*
X144369685Y-105901180D01*
X144312884Y-105941867D01*
X144243103Y-105945387D01*
X144182497Y-105910622D01*
X144150307Y-105848609D01*
X144148529Y-105836243D01*
X144148022Y-105830771D01*
X144089144Y-105623838D01*
X143993245Y-105431247D01*
X143863591Y-105259556D01*
X143863587Y-105259552D01*
X143863585Y-105259550D01*
X143704597Y-105114614D01*
X143664811Y-105089979D01*
X143521674Y-105001353D01*
X143321056Y-104923633D01*
X143109573Y-104884100D01*
X142894427Y-104884100D01*
X142682944Y-104923633D01*
X142556075Y-104972782D01*
X142482328Y-105001352D01*
X142482327Y-105001352D01*
X142299402Y-105114614D01*
X142140414Y-105259550D01*
X142140407Y-105259558D01*
X142010760Y-105431239D01*
X142010751Y-105431253D01*
X141914860Y-105623827D01*
X141914855Y-105623840D01*
X141855978Y-105830771D01*
X141855471Y-105836243D01*
X141829685Y-105901180D01*
X141772884Y-105941867D01*
X141703103Y-105945387D01*
X141642497Y-105910622D01*
X141610307Y-105848609D01*
X141608529Y-105836243D01*
X141608022Y-105830771D01*
X141549144Y-105623838D01*
X141453245Y-105431247D01*
X141323591Y-105259556D01*
X141323587Y-105259552D01*
X141323585Y-105259550D01*
X141164597Y-105114614D01*
X141124811Y-105089979D01*
X140981674Y-105001353D01*
X140781056Y-104923633D01*
X140569573Y-104884100D01*
X140354427Y-104884100D01*
X140142944Y-104923633D01*
X140016075Y-104972782D01*
X139942328Y-105001352D01*
X139942327Y-105001352D01*
X139759402Y-105114614D01*
X139600414Y-105259550D01*
X139600407Y-105259558D01*
X139470760Y-105431239D01*
X139470751Y-105431253D01*
X139374860Y-105623827D01*
X139374855Y-105623840D01*
X139315978Y-105830771D01*
X139315471Y-105836243D01*
X139289685Y-105901180D01*
X139232884Y-105941867D01*
X139163103Y-105945387D01*
X139102497Y-105910622D01*
X139070307Y-105848609D01*
X139068529Y-105836243D01*
X139068022Y-105830771D01*
X139009144Y-105623838D01*
X138913245Y-105431247D01*
X138783591Y-105259556D01*
X138783587Y-105259552D01*
X138783585Y-105259550D01*
X138624597Y-105114614D01*
X138584811Y-105089979D01*
X138441674Y-105001353D01*
X138241056Y-104923633D01*
X138029573Y-104884100D01*
X137814427Y-104884100D01*
X137602944Y-104923633D01*
X137476075Y-104972782D01*
X137402328Y-105001352D01*
X137402327Y-105001352D01*
X137219402Y-105114614D01*
X137060414Y-105259550D01*
X137060407Y-105259558D01*
X136930760Y-105431239D01*
X136930751Y-105431253D01*
X136834860Y-105623827D01*
X136834855Y-105623840D01*
X136775977Y-105830771D01*
X136756127Y-106044999D01*
X136756127Y-106045000D01*
X136775977Y-106259228D01*
X136834855Y-106466159D01*
X136834860Y-106466172D01*
X136930751Y-106658746D01*
X136930753Y-106658749D01*
X136930755Y-106658753D01*
X136930758Y-106658757D01*
X136930760Y-106658760D01*
X136969785Y-106710438D01*
X137060409Y-106830444D01*
X137060412Y-106830446D01*
X137060414Y-106830449D01*
X137219402Y-106975385D01*
X137219404Y-106975386D01*
X137219405Y-106975387D01*
X137402326Y-107088647D01*
X137602944Y-107166367D01*
X137814427Y-107205900D01*
X137814429Y-107205900D01*
X138029571Y-107205900D01*
X138029573Y-107205900D01*
X138241056Y-107166367D01*
X138441674Y-107088647D01*
X138624595Y-106975387D01*
X138638303Y-106962890D01*
X138701103Y-106932273D01*
X138770491Y-106940469D01*
X138824432Y-106984877D01*
X138845290Y-107042850D01*
X138846549Y-107056160D01*
X138847100Y-107067837D01*
X138847100Y-112390943D01*
X138827415Y-112457982D01*
X138774611Y-112503737D01*
X138705453Y-112513681D01*
X138694588Y-112511621D01*
X138689884Y-112510509D01*
X138689883Y-112510509D01*
X138689881Y-112510508D01*
X138689878Y-112510508D01*
X138630283Y-112504101D01*
X138630281Y-112504100D01*
X138630273Y-112504100D01*
X138630264Y-112504100D01*
X137213729Y-112504100D01*
X137213723Y-112504101D01*
X137154116Y-112510508D01*
X137019271Y-112560802D01*
X137019264Y-112560806D01*
X136904055Y-112647052D01*
X136904052Y-112647055D01*
X136817806Y-112762264D01*
X136817802Y-112762271D01*
X136767508Y-112897117D01*
X136761101Y-112956716D01*
X136761100Y-112956735D01*
X136761100Y-114373270D01*
X136761101Y-114373276D01*
X136767508Y-114432883D01*
X136817802Y-114567728D01*
X136817806Y-114567735D01*
X136904052Y-114682944D01*
X136904055Y-114682947D01*
X137019264Y-114769193D01*
X137019271Y-114769197D01*
X137154117Y-114819491D01*
X137154116Y-114819491D01*
X137161044Y-114820235D01*
X137213727Y-114825900D01*
X138630272Y-114825899D01*
X138689883Y-114819491D01*
X138689885Y-114819490D01*
X138689887Y-114819490D01*
X138694583Y-114818381D01*
X138764353Y-114822120D01*
X138821025Y-114862986D01*
X138846606Y-114928005D01*
X138847100Y-114939057D01*
X138847100Y-117051407D01*
X138827415Y-117118446D01*
X138774611Y-117164201D01*
X138705453Y-117174145D01*
X138670696Y-117163789D01*
X138512663Y-117090097D01*
X138512659Y-117090096D01*
X138512655Y-117090094D01*
X138284413Y-117028938D01*
X138284403Y-117028936D01*
X138049001Y-117008341D01*
X138048999Y-117008341D01*
X137813596Y-117028936D01*
X137813586Y-117028938D01*
X137585344Y-117090094D01*
X137585335Y-117090098D01*
X137371171Y-117189964D01*
X137371169Y-117189965D01*
X137177600Y-117325503D01*
X137055673Y-117447430D01*
X136994350Y-117480914D01*
X136924658Y-117475930D01*
X136868725Y-117434058D01*
X136851810Y-117403081D01*
X136802797Y-117271671D01*
X136802793Y-117271664D01*
X136716547Y-117156455D01*
X136716544Y-117156452D01*
X136601335Y-117070206D01*
X136601328Y-117070202D01*
X136466482Y-117019908D01*
X136466483Y-117019908D01*
X136406883Y-117013501D01*
X136406881Y-117013500D01*
X136406873Y-117013500D01*
X136406864Y-117013500D01*
X134611129Y-117013500D01*
X134611123Y-117013501D01*
X134551516Y-117019908D01*
X134416671Y-117070202D01*
X134416664Y-117070206D01*
X134301455Y-117156452D01*
X134301452Y-117156455D01*
X134215206Y-117271664D01*
X134215202Y-117271671D01*
X134164908Y-117406517D01*
X134158501Y-117466116D01*
X134158500Y-117466135D01*
X134158500Y-119261870D01*
X129540500Y-119261870D01*
X129540500Y-80244196D01*
X130560840Y-80244196D01*
X130562996Y-80266999D01*
X130564950Y-80287674D01*
X130565500Y-80299343D01*
X130565500Y-86682255D01*
X130563775Y-86697872D01*
X130564061Y-86697899D01*
X130563326Y-86705665D01*
X130565439Y-86772872D01*
X130565500Y-86776767D01*
X130565500Y-86804357D01*
X130566003Y-86808335D01*
X130566918Y-86819967D01*
X130568290Y-86863624D01*
X130568291Y-86863627D01*
X130573880Y-86882867D01*
X130577824Y-86901911D01*
X130579492Y-86915112D01*
X130580336Y-86921792D01*
X130596414Y-86962403D01*
X130600197Y-86973452D01*
X130606881Y-86996458D01*
X130612382Y-87015390D01*
X130616477Y-87022315D01*
X130622580Y-87032634D01*
X130631138Y-87050103D01*
X130638514Y-87068732D01*
X130664181Y-87104060D01*
X130670593Y-87113821D01*
X130692828Y-87151417D01*
X130692833Y-87151424D01*
X130706990Y-87165580D01*
X130719628Y-87180376D01*
X130731405Y-87196586D01*
X130731406Y-87196587D01*
X130765057Y-87224425D01*
X130773698Y-87232288D01*
X132676181Y-89134771D01*
X132709666Y-89196094D01*
X132712500Y-89222452D01*
X132712500Y-94385500D01*
X132692815Y-94452539D01*
X132640011Y-94498294D01*
X132588500Y-94509500D01*
X131075129Y-94509500D01*
X131075123Y-94509501D01*
X131015516Y-94515908D01*
X130880671Y-94566202D01*
X130880664Y-94566206D01*
X130765455Y-94652452D01*
X130765452Y-94652455D01*
X130679206Y-94767664D01*
X130679202Y-94767671D01*
X130628908Y-94902517D01*
X130622501Y-94962116D01*
X130622500Y-94962135D01*
X130622500Y-96757870D01*
X130622501Y-96757876D01*
X130628908Y-96817483D01*
X130679202Y-96952328D01*
X130679206Y-96952335D01*
X130765452Y-97067544D01*
X130765455Y-97067547D01*
X130880664Y-97153793D01*
X130880671Y-97153797D01*
X131015517Y-97204091D01*
X131015516Y-97204091D01*
X131022444Y-97204835D01*
X131075127Y-97210500D01*
X132588500Y-97210499D01*
X132655539Y-97230184D01*
X132701294Y-97282987D01*
X132712500Y-97334499D01*
X132712500Y-98068500D01*
X132692815Y-98135539D01*
X132640011Y-98181294D01*
X132588500Y-98192500D01*
X131075129Y-98192500D01*
X131075123Y-98192501D01*
X131015516Y-98198908D01*
X130880671Y-98249202D01*
X130880664Y-98249206D01*
X130765455Y-98335452D01*
X130765452Y-98335455D01*
X130679206Y-98450664D01*
X130679202Y-98450671D01*
X130628908Y-98585517D01*
X130622501Y-98645116D01*
X130622500Y-98645135D01*
X130622500Y-100440870D01*
X130622501Y-100440876D01*
X130628908Y-100500483D01*
X130679202Y-100635328D01*
X130679206Y-100635335D01*
X130765452Y-100750544D01*
X130765455Y-100750547D01*
X130880664Y-100836793D01*
X130880671Y-100836797D01*
X131015517Y-100887091D01*
X131015516Y-100887091D01*
X131022444Y-100887835D01*
X131075127Y-100893500D01*
X132588500Y-100893499D01*
X132655539Y-100913184D01*
X132701294Y-100965987D01*
X132712500Y-101017499D01*
X132712500Y-113385255D01*
X132710775Y-113400872D01*
X132711061Y-113400899D01*
X132710326Y-113408665D01*
X132712439Y-113475872D01*
X132712500Y-113479767D01*
X132712500Y-113507357D01*
X132713003Y-113511335D01*
X132713918Y-113522967D01*
X132715290Y-113566624D01*
X132715291Y-113566627D01*
X132720880Y-113585867D01*
X132724824Y-113604911D01*
X132727336Y-113624792D01*
X132743414Y-113665403D01*
X132747197Y-113676452D01*
X132759381Y-113718388D01*
X132769580Y-113735634D01*
X132778138Y-113753103D01*
X132785514Y-113771732D01*
X132811181Y-113807060D01*
X132817593Y-113816821D01*
X132839828Y-113854417D01*
X132839833Y-113854424D01*
X132853990Y-113868580D01*
X132866628Y-113883376D01*
X132878405Y-113899586D01*
X132878406Y-113899587D01*
X132912057Y-113927425D01*
X132920698Y-113935288D01*
X134120038Y-115134628D01*
X134153523Y-115195951D01*
X134155678Y-115209347D01*
X134163139Y-115280338D01*
X134173326Y-115377256D01*
X134173327Y-115377259D01*
X134231818Y-115557277D01*
X134231821Y-115557284D01*
X134326467Y-115721216D01*
X134453129Y-115861888D01*
X134606265Y-115973148D01*
X134606270Y-115973151D01*
X134779192Y-116050142D01*
X134779197Y-116050144D01*
X134964354Y-116089500D01*
X134964355Y-116089500D01*
X135153644Y-116089500D01*
X135153646Y-116089500D01*
X135338803Y-116050144D01*
X135511730Y-115973151D01*
X135664871Y-115861888D01*
X135791533Y-115721216D01*
X135886179Y-115557284D01*
X135944674Y-115377256D01*
X135964460Y-115189000D01*
X135944674Y-115000744D01*
X135886179Y-114820716D01*
X135791533Y-114656784D01*
X135664871Y-114516112D01*
X135664870Y-114516111D01*
X135511734Y-114404851D01*
X135511729Y-114404848D01*
X135338807Y-114327857D01*
X135338802Y-114327855D01*
X135193001Y-114296865D01*
X135153646Y-114288500D01*
X135153645Y-114288500D01*
X135094452Y-114288500D01*
X135027413Y-114268815D01*
X135006771Y-114252181D01*
X133999819Y-113245228D01*
X133966334Y-113183905D01*
X133963500Y-113157547D01*
X133963500Y-100955503D01*
X133983185Y-100888464D01*
X134035989Y-100842709D01*
X134105147Y-100832765D01*
X134119593Y-100835728D01*
X134123583Y-100836797D01*
X134277592Y-100878063D01*
X134454034Y-100893500D01*
X134512999Y-100898659D01*
X134513000Y-100898659D01*
X134513001Y-100898659D01*
X134571966Y-100893500D01*
X134748408Y-100878063D01*
X134976663Y-100816903D01*
X135190830Y-100717035D01*
X135384401Y-100581495D01*
X135551495Y-100414401D01*
X135687035Y-100220830D01*
X135786903Y-100006663D01*
X135848063Y-99778408D01*
X135868659Y-99543000D01*
X135848063Y-99307592D01*
X135786903Y-99079337D01*
X135687035Y-98865171D01*
X135636899Y-98793568D01*
X135551494Y-98671597D01*
X135384402Y-98504506D01*
X135384395Y-98504501D01*
X135190834Y-98368967D01*
X135190830Y-98368965D01*
X134976663Y-98269097D01*
X134976659Y-98269096D01*
X134976655Y-98269094D01*
X134748413Y-98207938D01*
X134748403Y-98207936D01*
X134513001Y-98187341D01*
X134512999Y-98187341D01*
X134277596Y-98207936D01*
X134277583Y-98207939D01*
X134119592Y-98250271D01*
X134049742Y-98248608D01*
X133991880Y-98209445D01*
X133964377Y-98145216D01*
X133963500Y-98130496D01*
X133963500Y-97663001D01*
X140299532Y-97663001D01*
X140319364Y-97889686D01*
X140319366Y-97889697D01*
X140378258Y-98109488D01*
X140378261Y-98109497D01*
X140474431Y-98315732D01*
X140474432Y-98315734D01*
X140604954Y-98502141D01*
X140765858Y-98663045D01*
X140765861Y-98663047D01*
X140952266Y-98793568D01*
X141158504Y-98889739D01*
X141378308Y-98948635D01*
X141548214Y-98963499D01*
X141548215Y-98963500D01*
X141548216Y-98963500D01*
X141661785Y-98963500D01*
X141661785Y-98963499D01*
X141831692Y-98948635D01*
X142051496Y-98889739D01*
X142257734Y-98793568D01*
X142444139Y-98663047D01*
X142605047Y-98502139D01*
X142735568Y-98315734D01*
X142831739Y-98109496D01*
X142890635Y-97889692D01*
X142910468Y-97663000D01*
X142890635Y-97436308D01*
X142831739Y-97216504D01*
X142735568Y-97010266D01*
X142605047Y-96823861D01*
X142605045Y-96823858D01*
X142444141Y-96662954D01*
X142257734Y-96532432D01*
X142257732Y-96532431D01*
X142051497Y-96436261D01*
X142051488Y-96436258D01*
X141831697Y-96377366D01*
X141831687Y-96377364D01*
X141661785Y-96362500D01*
X141661784Y-96362500D01*
X141548216Y-96362500D01*
X141548215Y-96362500D01*
X141378312Y-96377364D01*
X141378302Y-96377366D01*
X141158511Y-96436258D01*
X141158502Y-96436261D01*
X140952267Y-96532431D01*
X140952265Y-96532432D01*
X140765858Y-96662954D01*
X140604954Y-96823858D01*
X140474432Y-97010265D01*
X140474431Y-97010267D01*
X140378261Y-97216502D01*
X140378258Y-97216511D01*
X140319366Y-97436302D01*
X140319364Y-97436313D01*
X140299532Y-97662998D01*
X140299532Y-97663001D01*
X133963500Y-97663001D01*
X133963500Y-97271984D01*
X133983185Y-97204945D01*
X134035989Y-97159190D01*
X134105147Y-97149246D01*
X134119593Y-97152209D01*
X134263000Y-97190634D01*
X134263000Y-96295501D01*
X134370685Y-96344680D01*
X134477237Y-96360000D01*
X134548763Y-96360000D01*
X134655315Y-96344680D01*
X134763000Y-96295501D01*
X134763000Y-97190633D01*
X134976483Y-97133433D01*
X134976492Y-97133429D01*
X135190578Y-97033600D01*
X135384082Y-96898105D01*
X135551105Y-96731082D01*
X135686600Y-96537578D01*
X135786429Y-96323492D01*
X135786432Y-96323486D01*
X135843636Y-96110000D01*
X134946686Y-96110000D01*
X134972493Y-96069844D01*
X135013000Y-95931889D01*
X135013000Y-95788111D01*
X134972493Y-95650156D01*
X134946686Y-95610000D01*
X135843636Y-95610000D01*
X135843635Y-95609999D01*
X135786432Y-95396513D01*
X135786429Y-95396507D01*
X135686600Y-95182422D01*
X135686599Y-95182420D01*
X135551113Y-94988926D01*
X135551108Y-94988920D01*
X135384082Y-94821894D01*
X135190578Y-94686399D01*
X134976492Y-94586570D01*
X134976486Y-94586567D01*
X134763000Y-94529364D01*
X134763000Y-95424498D01*
X134655315Y-95375320D01*
X134548763Y-95360000D01*
X134477237Y-95360000D01*
X134370685Y-95375320D01*
X134263000Y-95424498D01*
X134263000Y-94529364D01*
X134262999Y-94529363D01*
X134119593Y-94567789D01*
X134049743Y-94566126D01*
X133991881Y-94526963D01*
X133964377Y-94462735D01*
X133963500Y-94448014D01*
X133963500Y-88994742D01*
X133965224Y-88979122D01*
X133964939Y-88979095D01*
X133965673Y-88971333D01*
X133963561Y-88904112D01*
X133963500Y-88900218D01*
X133963500Y-88872656D01*
X133963500Y-88872650D01*
X133962996Y-88868668D01*
X133962081Y-88857029D01*
X133960710Y-88813373D01*
X133955119Y-88794130D01*
X133951173Y-88775078D01*
X133948664Y-88755208D01*
X133932579Y-88714583D01*
X133928804Y-88703555D01*
X133916618Y-88661610D01*
X133906419Y-88644364D01*
X133897858Y-88626888D01*
X133890487Y-88608271D01*
X133890486Y-88608268D01*
X133864805Y-88572921D01*
X133858409Y-88563182D01*
X133836171Y-88525580D01*
X133836169Y-88525578D01*
X133836166Y-88525574D01*
X133822005Y-88511413D01*
X133809370Y-88496620D01*
X133797593Y-88480412D01*
X133763945Y-88452576D01*
X133755304Y-88444713D01*
X133206771Y-87896180D01*
X133173286Y-87834857D01*
X133178270Y-87765165D01*
X133220142Y-87709232D01*
X133285606Y-87684815D01*
X133294424Y-87684499D01*
X134516872Y-87684499D01*
X134576483Y-87678091D01*
X134711331Y-87627796D01*
X134826546Y-87541546D01*
X134912796Y-87426331D01*
X134963091Y-87291483D01*
X134969500Y-87231873D01*
X134969499Y-85978128D01*
X134963091Y-85918517D01*
X134950068Y-85883601D01*
X134912797Y-85783671D01*
X134912793Y-85783664D01*
X134826547Y-85668455D01*
X134826544Y-85668452D01*
X134711335Y-85582206D01*
X134711328Y-85582202D01*
X134699208Y-85577682D01*
X134643274Y-85535811D01*
X134618857Y-85470347D01*
X134633709Y-85402074D01*
X134683114Y-85352668D01*
X134742541Y-85337500D01*
X135267717Y-85337500D01*
X135334756Y-85357185D01*
X135355398Y-85373819D01*
X136485181Y-86503602D01*
X136518666Y-86564925D01*
X136521500Y-86591283D01*
X136521500Y-86988001D01*
X136521501Y-86988019D01*
X136532000Y-87090796D01*
X136532001Y-87090799D01*
X136587185Y-87257331D01*
X136587187Y-87257336D01*
X136608249Y-87291483D01*
X136679288Y-87406656D01*
X136803344Y-87530712D01*
X136862596Y-87567258D01*
X136909321Y-87619204D01*
X136921500Y-87672797D01*
X136921500Y-89284717D01*
X136901815Y-89351756D01*
X136885181Y-89372398D01*
X136069397Y-90188181D01*
X136008074Y-90221666D01*
X135981716Y-90224500D01*
X135134998Y-90224500D01*
X135134980Y-90224501D01*
X135032203Y-90235000D01*
X135032200Y-90235001D01*
X134865668Y-90290185D01*
X134865663Y-90290187D01*
X134716342Y-90382289D01*
X134592289Y-90506342D01*
X134500187Y-90655663D01*
X134500185Y-90655668D01*
X134494681Y-90672278D01*
X134445001Y-90822203D01*
X134445001Y-90822204D01*
X134445000Y-90822204D01*
X134434500Y-90924983D01*
X134434500Y-93225001D01*
X134434501Y-93225018D01*
X134445000Y-93327796D01*
X134445001Y-93327799D01*
X134494681Y-93477720D01*
X134500186Y-93494334D01*
X134592288Y-93643656D01*
X134716344Y-93767712D01*
X134865666Y-93859814D01*
X135032203Y-93914999D01*
X135134991Y-93925500D01*
X136060008Y-93925499D01*
X136060016Y-93925498D01*
X136060019Y-93925498D01*
X136116302Y-93919748D01*
X136162797Y-93914999D01*
X136329334Y-93859814D01*
X136478656Y-93767712D01*
X136602712Y-93643656D01*
X136694814Y-93494334D01*
X136749999Y-93327797D01*
X136760500Y-93225009D01*
X136760499Y-92378281D01*
X136776144Y-92325000D01*
X137560001Y-92325000D01*
X137560001Y-93224986D01*
X137570494Y-93327697D01*
X137625641Y-93494119D01*
X137625643Y-93494124D01*
X137717684Y-93643345D01*
X137841654Y-93767315D01*
X137990875Y-93859356D01*
X137990880Y-93859358D01*
X138157302Y-93914505D01*
X138157309Y-93914506D01*
X138260019Y-93924999D01*
X138472499Y-93924999D01*
X138472500Y-93924998D01*
X138472500Y-92325000D01*
X137560001Y-92325000D01*
X136776144Y-92325000D01*
X136780183Y-92311243D01*
X136796813Y-92290606D01*
X137348321Y-91739098D01*
X137409642Y-91705615D01*
X137479334Y-91710599D01*
X137535267Y-91752471D01*
X137559684Y-91817935D01*
X137559934Y-91824934D01*
X137560000Y-91825000D01*
X138848500Y-91825000D01*
X138915539Y-91844685D01*
X138961294Y-91897489D01*
X138972500Y-91949000D01*
X138972500Y-93924999D01*
X139184972Y-93924999D01*
X139184986Y-93924998D01*
X139287697Y-93914505D01*
X139454119Y-93859358D01*
X139454124Y-93859356D01*
X139603345Y-93767315D01*
X139727315Y-93643345D01*
X139819356Y-93494124D01*
X139819358Y-93494119D01*
X139874505Y-93327697D01*
X139874506Y-93327690D01*
X139884999Y-93224986D01*
X139884999Y-93058646D01*
X139904683Y-92991606D01*
X139957487Y-92945851D01*
X140026645Y-92935907D01*
X140090201Y-92964932D01*
X140116386Y-92996644D01*
X140155029Y-93063575D01*
X140202874Y-93123571D01*
X141042226Y-92284219D01*
X141080901Y-92377588D01*
X141177075Y-92502925D01*
X141302412Y-92599099D01*
X141395779Y-92637772D01*
X140555830Y-93477720D01*
X140727546Y-93594793D01*
X140727550Y-93594795D01*
X140963854Y-93708594D01*
X140963858Y-93708595D01*
X141214494Y-93785907D01*
X141214500Y-93785909D01*
X141473848Y-93824999D01*
X141473857Y-93825000D01*
X141736143Y-93825000D01*
X141736151Y-93824999D01*
X141995499Y-93785909D01*
X141995505Y-93785907D01*
X142246143Y-93708595D01*
X142482445Y-93594798D01*
X142482447Y-93594797D01*
X142654168Y-93477720D01*
X141814220Y-92637772D01*
X141907588Y-92599099D01*
X142032925Y-92502925D01*
X142129099Y-92377589D01*
X142167773Y-92284220D01*
X143007125Y-93123572D01*
X143054971Y-93063573D01*
X143186116Y-92836426D01*
X143281941Y-92592270D01*
X143340306Y-92336550D01*
X143340307Y-92336545D01*
X143359907Y-92075004D01*
X143359907Y-92074995D01*
X143340307Y-91813454D01*
X143340306Y-91813449D01*
X143281941Y-91557729D01*
X143186116Y-91313573D01*
X143186117Y-91313573D01*
X143054972Y-91086426D01*
X143007124Y-91026427D01*
X142167772Y-91865779D01*
X142129099Y-91772412D01*
X142032925Y-91647075D01*
X141907588Y-91550901D01*
X141814220Y-91512227D01*
X142654168Y-90672278D01*
X142482454Y-90555206D01*
X142482445Y-90555201D01*
X142246142Y-90441404D01*
X142246144Y-90441404D01*
X141995505Y-90364092D01*
X141995499Y-90364090D01*
X141736151Y-90325000D01*
X141473848Y-90325000D01*
X141214500Y-90364090D01*
X141214494Y-90364092D01*
X140963858Y-90441404D01*
X140963854Y-90441405D01*
X140727547Y-90555205D01*
X140727539Y-90555210D01*
X140555830Y-90672277D01*
X141395779Y-91512226D01*
X141302412Y-91550901D01*
X141177075Y-91647075D01*
X141080901Y-91772411D01*
X141042227Y-91865779D01*
X140202874Y-91026427D01*
X140155030Y-91086423D01*
X140116386Y-91153356D01*
X140065818Y-91201571D01*
X139997211Y-91214793D01*
X139932347Y-91188825D01*
X139891819Y-91131911D01*
X139884999Y-91091355D01*
X139884999Y-90925028D01*
X139884998Y-90925013D01*
X139874505Y-90822302D01*
X139819358Y-90655880D01*
X139819356Y-90655875D01*
X139727315Y-90506654D01*
X139603345Y-90382684D01*
X139454124Y-90290643D01*
X139454119Y-90290641D01*
X139287697Y-90235494D01*
X139287690Y-90235493D01*
X139184986Y-90225000D01*
X138995258Y-90225000D01*
X138928219Y-90205315D01*
X138882464Y-90152511D01*
X138872520Y-90083353D01*
X138879763Y-90057596D01*
X138879656Y-90057563D01*
X138880781Y-90053976D01*
X138881312Y-90052089D01*
X138881539Y-90051560D01*
X138881538Y-90051560D01*
X138881540Y-90051558D01*
X138893421Y-89993738D01*
X138895650Y-89984655D01*
X138911886Y-89927918D01*
X138914196Y-89897580D01*
X138916376Y-89882040D01*
X138922500Y-89852243D01*
X138922500Y-89793254D01*
X138922858Y-89783839D01*
X138927337Y-89725024D01*
X138923493Y-89694839D01*
X138922500Y-89679175D01*
X138922500Y-87672797D01*
X138942185Y-87605758D01*
X138981403Y-87567258D01*
X139040656Y-87530712D01*
X139164712Y-87406656D01*
X139256814Y-87257334D01*
X139311999Y-87090797D01*
X139322500Y-86988009D01*
X139322499Y-86062992D01*
X139311999Y-85960203D01*
X139256814Y-85793666D01*
X139164712Y-85644344D01*
X139040656Y-85520288D01*
X138930444Y-85452309D01*
X138891336Y-85428187D01*
X138891331Y-85428185D01*
X138887794Y-85427013D01*
X138724797Y-85373001D01*
X138724795Y-85373000D01*
X138622016Y-85362500D01*
X138622009Y-85362500D01*
X138225283Y-85362500D01*
X138158244Y-85342815D01*
X138137602Y-85326181D01*
X137586601Y-84775180D01*
X137553116Y-84713857D01*
X137558100Y-84644165D01*
X137599972Y-84588232D01*
X137665436Y-84563815D01*
X137674282Y-84563499D01*
X138622002Y-84563499D01*
X138622008Y-84563499D01*
X138724797Y-84552999D01*
X138891334Y-84497814D01*
X139040656Y-84405712D01*
X139164712Y-84281656D01*
X139256814Y-84132334D01*
X139311999Y-83965797D01*
X139322500Y-83863009D01*
X139322500Y-83674500D01*
X139342185Y-83607461D01*
X139394989Y-83561706D01*
X139446500Y-83550500D01*
X140546202Y-83550500D01*
X140613241Y-83570185D01*
X140651740Y-83609403D01*
X140674538Y-83646364D01*
X140693000Y-83711461D01*
X140693000Y-84665221D01*
X140692960Y-84668361D01*
X140690743Y-84755862D01*
X140690743Y-84755871D01*
X140701148Y-84813920D01*
X140702456Y-84823248D01*
X140708425Y-84881930D01*
X140708427Y-84881944D01*
X140717533Y-84910968D01*
X140721272Y-84926201D01*
X140726642Y-84956153D01*
X140726642Y-84956155D01*
X140748520Y-85010924D01*
X140751677Y-85019792D01*
X140769341Y-85076088D01*
X140769342Y-85076089D01*
X140769344Y-85076095D01*
X140784103Y-85102685D01*
X140790836Y-85116861D01*
X140798742Y-85136654D01*
X140802122Y-85145114D01*
X140802127Y-85145124D01*
X140834580Y-85194366D01*
X140839462Y-85202423D01*
X140868088Y-85253998D01*
X140868089Y-85254000D01*
X140872933Y-85259642D01*
X140887910Y-85277088D01*
X140897355Y-85289615D01*
X140914099Y-85315021D01*
X140955799Y-85356720D01*
X140962204Y-85363631D01*
X141000631Y-85408392D01*
X141000634Y-85408395D01*
X141024687Y-85427013D01*
X141036468Y-85437389D01*
X142643181Y-87044102D01*
X142676666Y-87105425D01*
X142679500Y-87131782D01*
X142679500Y-87241000D01*
X142679501Y-87241019D01*
X142690000Y-87343796D01*
X142690001Y-87343799D01*
X142745185Y-87510331D01*
X142745187Y-87510336D01*
X142764438Y-87541547D01*
X142837288Y-87659656D01*
X142961344Y-87783712D01*
X143110666Y-87875814D01*
X143277203Y-87930999D01*
X143379991Y-87941500D01*
X144130008Y-87941499D01*
X144130016Y-87941498D01*
X144130019Y-87941498D01*
X144186302Y-87935748D01*
X144232797Y-87930999D01*
X144399334Y-87875814D01*
X144548656Y-87783712D01*
X144672712Y-87659656D01*
X144674752Y-87656347D01*
X144676745Y-87654555D01*
X144677193Y-87653989D01*
X144677289Y-87654065D01*
X144726694Y-87609623D01*
X144795656Y-87598395D01*
X144859740Y-87626234D01*
X144885829Y-87656339D01*
X144887681Y-87659341D01*
X144887683Y-87659344D01*
X145011654Y-87783315D01*
X145160875Y-87875356D01*
X145160880Y-87875358D01*
X145327302Y-87930505D01*
X145327309Y-87930506D01*
X145430019Y-87940999D01*
X145554999Y-87940999D01*
X145555000Y-87940998D01*
X145555000Y-86991000D01*
X146055000Y-86991000D01*
X146055000Y-87940999D01*
X146179972Y-87940999D01*
X146179986Y-87940998D01*
X146282697Y-87930505D01*
X146449119Y-87875358D01*
X146449124Y-87875356D01*
X146598345Y-87783315D01*
X146722315Y-87659345D01*
X146805806Y-87523986D01*
X148564565Y-87523986D01*
X148564566Y-87523987D01*
X148646982Y-87575016D01*
X148646989Y-87575020D01*
X148833449Y-87647254D01*
X149030018Y-87684000D01*
X149229982Y-87684000D01*
X149426550Y-87647254D01*
X149613009Y-87575020D01*
X149613010Y-87575020D01*
X149695433Y-87523986D01*
X149130001Y-86958553D01*
X149130000Y-86958553D01*
X148564565Y-87523986D01*
X146805806Y-87523986D01*
X146814356Y-87510124D01*
X146814358Y-87510119D01*
X146869505Y-87343697D01*
X146869506Y-87343690D01*
X146879999Y-87240986D01*
X146880000Y-87240973D01*
X146880000Y-86991000D01*
X146055000Y-86991000D01*
X145555000Y-86991000D01*
X145555000Y-86605000D01*
X148046377Y-86605000D01*
X148064827Y-86804114D01*
X148064828Y-86804117D01*
X148119547Y-86996438D01*
X148119555Y-86996458D01*
X148207789Y-87173656D01*
X148719140Y-86662306D01*
X148805000Y-86662306D01*
X148844199Y-86770007D01*
X148917871Y-86857805D01*
X149017129Y-86915112D01*
X149101564Y-86930000D01*
X149158436Y-86930000D01*
X149242871Y-86915112D01*
X149342129Y-86857805D01*
X149415801Y-86770007D01*
X149455000Y-86662306D01*
X149455000Y-86605000D01*
X149483553Y-86605000D01*
X150052209Y-87173656D01*
X150140447Y-86996451D01*
X150140450Y-86996445D01*
X150195171Y-86804117D01*
X150195172Y-86804114D01*
X150213623Y-86605000D01*
X150213623Y-86604999D01*
X150195172Y-86405885D01*
X150195171Y-86405882D01*
X150155799Y-86267500D01*
X151185001Y-86267500D01*
X151185001Y-86479986D01*
X151195494Y-86582697D01*
X151250641Y-86749119D01*
X151250643Y-86749124D01*
X151342684Y-86898345D01*
X151466654Y-87022315D01*
X151615875Y-87114356D01*
X151615880Y-87114358D01*
X151782302Y-87169505D01*
X151782309Y-87169506D01*
X151885019Y-87179999D01*
X152784999Y-87179999D01*
X152785000Y-87179998D01*
X152785000Y-86267500D01*
X151185001Y-86267500D01*
X150155799Y-86267500D01*
X150140452Y-86213561D01*
X150140444Y-86213541D01*
X150052209Y-86036342D01*
X149483553Y-86604999D01*
X149483553Y-86605000D01*
X149455000Y-86605000D01*
X149455000Y-86547694D01*
X149415801Y-86439993D01*
X149342129Y-86352195D01*
X149242871Y-86294888D01*
X149158436Y-86280000D01*
X149101564Y-86280000D01*
X149017129Y-86294888D01*
X148917871Y-86352195D01*
X148844199Y-86439993D01*
X148805000Y-86547694D01*
X148805000Y-86662306D01*
X148719140Y-86662306D01*
X148776446Y-86605000D01*
X148776446Y-86604999D01*
X148207789Y-86036342D01*
X148119552Y-86213550D01*
X148119547Y-86213561D01*
X148064828Y-86405882D01*
X148064827Y-86405885D01*
X148046377Y-86604999D01*
X148046377Y-86605000D01*
X145555000Y-86605000D01*
X145555000Y-85541000D01*
X146055000Y-85541000D01*
X146055000Y-86491000D01*
X146879999Y-86491000D01*
X146879999Y-86241028D01*
X146879998Y-86241013D01*
X146869505Y-86138302D01*
X146814358Y-85971880D01*
X146814356Y-85971875D01*
X146722315Y-85822654D01*
X146598345Y-85698684D01*
X146577801Y-85686012D01*
X148564566Y-85686012D01*
X149130000Y-86251446D01*
X149130001Y-86251446D01*
X149613945Y-85767500D01*
X151185000Y-85767500D01*
X152785000Y-85767500D01*
X152785000Y-84855000D01*
X151885028Y-84855000D01*
X151885012Y-84855001D01*
X151782302Y-84865494D01*
X151615880Y-84920641D01*
X151615875Y-84920643D01*
X151466654Y-85012684D01*
X151342684Y-85136654D01*
X151250643Y-85285875D01*
X151250641Y-85285880D01*
X151195494Y-85452302D01*
X151195493Y-85452309D01*
X151185000Y-85555013D01*
X151185000Y-85767500D01*
X149613945Y-85767500D01*
X149695433Y-85686012D01*
X149613009Y-85634979D01*
X149613010Y-85634979D01*
X149426550Y-85562745D01*
X149229982Y-85526000D01*
X149030018Y-85526000D01*
X148833449Y-85562745D01*
X148646984Y-85634981D01*
X148564566Y-85686011D01*
X148564566Y-85686012D01*
X146577801Y-85686012D01*
X146449124Y-85606643D01*
X146449119Y-85606641D01*
X146282697Y-85551494D01*
X146282690Y-85551493D01*
X146179986Y-85541000D01*
X146055000Y-85541000D01*
X145555000Y-85541000D01*
X145430027Y-85541000D01*
X145430012Y-85541001D01*
X145327302Y-85551494D01*
X145160880Y-85606641D01*
X145160875Y-85606643D01*
X145011654Y-85698684D01*
X144887683Y-85822655D01*
X144887679Y-85822660D01*
X144885826Y-85825665D01*
X144884018Y-85827290D01*
X144883202Y-85828323D01*
X144883025Y-85828183D01*
X144833874Y-85872385D01*
X144764911Y-85883601D01*
X144700831Y-85855752D01*
X144674753Y-85825653D01*
X144674737Y-85825628D01*
X144672712Y-85822344D01*
X144548656Y-85698288D01*
X144399334Y-85606186D01*
X144232797Y-85551001D01*
X144232795Y-85551000D01*
X144130016Y-85540500D01*
X144130009Y-85540500D01*
X144020782Y-85540500D01*
X143953743Y-85520815D01*
X143933101Y-85504181D01*
X142730319Y-84301398D01*
X142696834Y-84240075D01*
X142694000Y-84213717D01*
X142694000Y-83711461D01*
X142712460Y-83646366D01*
X142790814Y-83519334D01*
X142845999Y-83352797D01*
X142856500Y-83250009D01*
X142856499Y-81849992D01*
X142852332Y-81809204D01*
X142845999Y-81747203D01*
X142845998Y-81747200D01*
X142827177Y-81690403D01*
X142790814Y-81580666D01*
X142790810Y-81580659D01*
X142712461Y-81453634D01*
X142694000Y-81388538D01*
X142694000Y-79802891D01*
X142713685Y-79735852D01*
X142766489Y-79690097D01*
X142835647Y-79680153D01*
X142899203Y-79709178D01*
X142935706Y-79763887D01*
X142959641Y-79836119D01*
X142959643Y-79836124D01*
X143051684Y-79985345D01*
X143175654Y-80109315D01*
X143324875Y-80201356D01*
X143324880Y-80201358D01*
X143491302Y-80256505D01*
X143491309Y-80256506D01*
X143594019Y-80266999D01*
X143806499Y-80266999D01*
X143806500Y-80266998D01*
X143806500Y-79117000D01*
X144306500Y-79117000D01*
X144306500Y-80266999D01*
X144518972Y-80266999D01*
X144518986Y-80266998D01*
X144621697Y-80256505D01*
X144788119Y-80201358D01*
X144788124Y-80201356D01*
X144937345Y-80109315D01*
X145061315Y-79985345D01*
X145153356Y-79836124D01*
X145153358Y-79836119D01*
X145208505Y-79669697D01*
X145208506Y-79669690D01*
X145218999Y-79566986D01*
X145219000Y-79566973D01*
X145219000Y-79117000D01*
X144306500Y-79117000D01*
X143806500Y-79117000D01*
X142894001Y-79117000D01*
X142894001Y-79292555D01*
X142874316Y-79359594D01*
X142821512Y-79405349D01*
X142752354Y-79415293D01*
X142688798Y-79386268D01*
X142654849Y-79338554D01*
X142647338Y-79319753D01*
X142638472Y-79297556D01*
X142635321Y-79288706D01*
X142626200Y-79259634D01*
X142617661Y-79232416D01*
X142617660Y-79232414D01*
X142602899Y-79205821D01*
X142596163Y-79191636D01*
X142584880Y-79163388D01*
X142584878Y-79163383D01*
X142552409Y-79114118D01*
X142547540Y-79106082D01*
X142518909Y-79054498D01*
X142499090Y-79031412D01*
X142489645Y-79018884D01*
X142472904Y-78993484D01*
X142431199Y-78951779D01*
X142424806Y-78944882D01*
X142386366Y-78900105D01*
X142362300Y-78881476D01*
X142350522Y-78871102D01*
X142130818Y-78651398D01*
X142112035Y-78617000D01*
X142894000Y-78617000D01*
X143806500Y-78617000D01*
X143806500Y-77467000D01*
X144306500Y-77467000D01*
X144306500Y-78617000D01*
X145218999Y-78617000D01*
X145218999Y-78167028D01*
X145218998Y-78167013D01*
X145208505Y-78064302D01*
X145153358Y-77897880D01*
X145153356Y-77897875D01*
X145061315Y-77748654D01*
X144937345Y-77624684D01*
X144788124Y-77532643D01*
X144788119Y-77532641D01*
X144621697Y-77477494D01*
X144621690Y-77477493D01*
X144518986Y-77467000D01*
X144306500Y-77467000D01*
X143806500Y-77467000D01*
X143594029Y-77467000D01*
X143594012Y-77467001D01*
X143491302Y-77477494D01*
X143324880Y-77532641D01*
X143324875Y-77532643D01*
X143175654Y-77624684D01*
X143051684Y-77748654D01*
X142959643Y-77897875D01*
X142959641Y-77897880D01*
X142904494Y-78064302D01*
X142904493Y-78064309D01*
X142894000Y-78167013D01*
X142894000Y-78617000D01*
X142112035Y-78617000D01*
X142097333Y-78590075D01*
X142094499Y-78563717D01*
X142094499Y-78166998D01*
X142094498Y-78166981D01*
X142083999Y-78064203D01*
X142083998Y-78064200D01*
X142067539Y-78014530D01*
X142028814Y-77897666D01*
X141936712Y-77748344D01*
X141812656Y-77624288D01*
X141663334Y-77532186D01*
X141496797Y-77477001D01*
X141496795Y-77477000D01*
X141394016Y-77466500D01*
X141394009Y-77466500D01*
X140654500Y-77466500D01*
X140587461Y-77446815D01*
X140541706Y-77394011D01*
X140530500Y-77342500D01*
X140530500Y-76835782D01*
X140550185Y-76768743D01*
X140566815Y-76748105D01*
X141378931Y-75935988D01*
X141440252Y-75902505D01*
X141485091Y-75901056D01*
X141600818Y-75918500D01*
X141600824Y-75918500D01*
X141863182Y-75918500D01*
X142122615Y-75879396D01*
X142373323Y-75802063D01*
X142609704Y-75688228D01*
X142826479Y-75540433D01*
X143018805Y-75361981D01*
X143182386Y-75156857D01*
X143313568Y-74929643D01*
X143409420Y-74685416D01*
X143467802Y-74429630D01*
X143467803Y-74429620D01*
X143487408Y-74168004D01*
X143487408Y-74167995D01*
X143467803Y-73906379D01*
X143467802Y-73906374D01*
X143467802Y-73906370D01*
X143409420Y-73650584D01*
X143313568Y-73406357D01*
X143182386Y-73179143D01*
X143018805Y-72974019D01*
X143018804Y-72974018D01*
X143018801Y-72974014D01*
X142826479Y-72795567D01*
X142609704Y-72647772D01*
X142609700Y-72647770D01*
X142609697Y-72647768D01*
X142609696Y-72647767D01*
X142373325Y-72533938D01*
X142373327Y-72533938D01*
X142122623Y-72456606D01*
X142122619Y-72456605D01*
X142122615Y-72456604D01*
X141997823Y-72437794D01*
X141863187Y-72417500D01*
X141863182Y-72417500D01*
X141600818Y-72417500D01*
X141600812Y-72417500D01*
X141439247Y-72441853D01*
X141341385Y-72456604D01*
X141341382Y-72456605D01*
X141341376Y-72456606D01*
X141090673Y-72533938D01*
X140854303Y-72647767D01*
X140854302Y-72647768D01*
X140637520Y-72795567D01*
X140445198Y-72974014D01*
X140281614Y-73179143D01*
X140150432Y-73406356D01*
X140054582Y-73650578D01*
X140054576Y-73650597D01*
X139996197Y-73906374D01*
X139996196Y-73906379D01*
X139976592Y-74167995D01*
X139976592Y-74168004D01*
X139996077Y-74428025D01*
X139981457Y-74496348D01*
X139960105Y-74524972D01*
X138832645Y-75652433D01*
X138830398Y-75654625D01*
X138766946Y-75714942D01*
X138733245Y-75763361D01*
X138727574Y-75770882D01*
X138690302Y-75816592D01*
X138690298Y-75816598D01*
X138676209Y-75843568D01*
X138668082Y-75856983D01*
X138650702Y-75881955D01*
X138627438Y-75936165D01*
X138623398Y-75944672D01*
X138596090Y-75996951D01*
X138596090Y-75996952D01*
X138587720Y-76026201D01*
X138582459Y-76040979D01*
X138570459Y-76068943D01*
X138558588Y-76126711D01*
X138556342Y-76135860D01*
X138540113Y-76192577D01*
X138537802Y-76222926D01*
X138535622Y-76238466D01*
X138529500Y-76268258D01*
X138529500Y-76327240D01*
X138529142Y-76336656D01*
X138524662Y-76395474D01*
X138528506Y-76425649D01*
X138529500Y-76441317D01*
X138529500Y-78729852D01*
X138509815Y-78796891D01*
X138493181Y-78817533D01*
X136060534Y-81250181D01*
X135999211Y-81283666D01*
X135972853Y-81286500D01*
X134293798Y-81286500D01*
X134253795Y-81277631D01*
X134253190Y-81279458D01*
X134164838Y-81250181D01*
X134079797Y-81222001D01*
X134079795Y-81222000D01*
X133977010Y-81211500D01*
X132976998Y-81211500D01*
X132976980Y-81211501D01*
X132874203Y-81222000D01*
X132874200Y-81222001D01*
X132707668Y-81277185D01*
X132707663Y-81277187D01*
X132558342Y-81369289D01*
X132434289Y-81493342D01*
X132342187Y-81642663D01*
X132342185Y-81642668D01*
X132328097Y-81685184D01*
X132287001Y-81809203D01*
X132287001Y-81809204D01*
X132287000Y-81809204D01*
X132276500Y-81911983D01*
X132276500Y-82662001D01*
X132276501Y-82662019D01*
X132287000Y-82764796D01*
X132287001Y-82764799D01*
X132342185Y-82931331D01*
X132342187Y-82931336D01*
X132434289Y-83080657D01*
X132558346Y-83204714D01*
X132561182Y-83206463D01*
X132562717Y-83208170D01*
X132564011Y-83209193D01*
X132563836Y-83209414D01*
X132607905Y-83258411D01*
X132619126Y-83327374D01*
X132591282Y-83391456D01*
X132561182Y-83417537D01*
X132558346Y-83419285D01*
X132434289Y-83543342D01*
X132342187Y-83692663D01*
X132342185Y-83692668D01*
X132335958Y-83711461D01*
X132287001Y-83859203D01*
X132287001Y-83859204D01*
X132287000Y-83859204D01*
X132276500Y-83961983D01*
X132276500Y-84712001D01*
X132276501Y-84712019D01*
X132287000Y-84814796D01*
X132287001Y-84814799D01*
X132326565Y-84934194D01*
X132342186Y-84981334D01*
X132434288Y-85130656D01*
X132558344Y-85254712D01*
X132707666Y-85346814D01*
X132874203Y-85401999D01*
X132941157Y-85408839D01*
X133005849Y-85435235D01*
X133046000Y-85492416D01*
X133048864Y-85562227D01*
X133013530Y-85622503D01*
X133002867Y-85631463D01*
X132953452Y-85668455D01*
X132867206Y-85783664D01*
X132867202Y-85783671D01*
X132816908Y-85918517D01*
X132810501Y-85978116D01*
X132810501Y-85978123D01*
X132810500Y-85978135D01*
X132810500Y-87200547D01*
X132790815Y-87267586D01*
X132738011Y-87313341D01*
X132668853Y-87323285D01*
X132605297Y-87294260D01*
X132598819Y-87288228D01*
X131852819Y-86542228D01*
X131819334Y-86480905D01*
X131816500Y-86454547D01*
X131816500Y-80574452D01*
X131836185Y-80507413D01*
X131852819Y-80486771D01*
X132692772Y-79646819D01*
X132754095Y-79613334D01*
X132780453Y-79610500D01*
X132947883Y-79610500D01*
X133014922Y-79630185D01*
X133046837Y-79659773D01*
X133088822Y-79715370D01*
X133236669Y-79850150D01*
X133406764Y-79955469D01*
X133593315Y-80027739D01*
X133789970Y-80064500D01*
X133789972Y-80064500D01*
X133990028Y-80064500D01*
X133990030Y-80064500D01*
X134186685Y-80027739D01*
X134373236Y-79955469D01*
X134543331Y-79850150D01*
X134691178Y-79715370D01*
X134811742Y-79555718D01*
X134900916Y-79376631D01*
X134955666Y-79184207D01*
X134974125Y-78985000D01*
X134955666Y-78785793D01*
X134900916Y-78593369D01*
X134888132Y-78567696D01*
X134833601Y-78458181D01*
X134811742Y-78414282D01*
X134691178Y-78254630D01*
X134543331Y-78119850D01*
X134373236Y-78014531D01*
X134373235Y-78014530D01*
X134236830Y-77961687D01*
X134186685Y-77942261D01*
X133990030Y-77905500D01*
X133789970Y-77905500D01*
X133593315Y-77942261D01*
X133593312Y-77942261D01*
X133593312Y-77942262D01*
X133406764Y-78014530D01*
X133406763Y-78014531D01*
X133236667Y-78119851D01*
X133088823Y-78254628D01*
X133046837Y-78310227D01*
X132990728Y-78351863D01*
X132947883Y-78359500D01*
X132552738Y-78359500D01*
X132537121Y-78357776D01*
X132537094Y-78358062D01*
X132529332Y-78357327D01*
X132462145Y-78359439D01*
X132458251Y-78359500D01*
X132430650Y-78359500D01*
X132426962Y-78359965D01*
X132426649Y-78360005D01*
X132415031Y-78360918D01*
X132371373Y-78362290D01*
X132371372Y-78362290D01*
X132352129Y-78367881D01*
X132333079Y-78371825D01*
X132313211Y-78374334D01*
X132313210Y-78374335D01*
X132272600Y-78390413D01*
X132261553Y-78394195D01*
X132219610Y-78406381D01*
X132219609Y-78406382D01*
X132202367Y-78416579D01*
X132184899Y-78425137D01*
X132166269Y-78432513D01*
X132166266Y-78432515D01*
X132130939Y-78458181D01*
X132121180Y-78464592D01*
X132083579Y-78486830D01*
X132069408Y-78501000D01*
X132054623Y-78513628D01*
X132038412Y-78525407D01*
X132010571Y-78559059D01*
X132002711Y-78567696D01*
X130807208Y-79763199D01*
X130794951Y-79773020D01*
X130795134Y-79773241D01*
X130789122Y-79778214D01*
X130743098Y-79827223D01*
X130740391Y-79830016D01*
X130720889Y-79849517D01*
X130720875Y-79849534D01*
X130718407Y-79852715D01*
X130710843Y-79861570D01*
X130680937Y-79893418D01*
X130680936Y-79893420D01*
X130671284Y-79910976D01*
X130660610Y-79927226D01*
X130648329Y-79943061D01*
X130648324Y-79943068D01*
X130630975Y-79983158D01*
X130625838Y-79993644D01*
X130604803Y-80031906D01*
X130599822Y-80051307D01*
X130593521Y-80069710D01*
X130585562Y-80088102D01*
X130585561Y-80088105D01*
X130578728Y-80131243D01*
X130576360Y-80142674D01*
X130565501Y-80184971D01*
X130565500Y-80184982D01*
X130565500Y-80205016D01*
X130563973Y-80224413D01*
X130560840Y-80244196D01*
X129540500Y-80244196D01*
X129540500Y-66802001D01*
X131598390Y-66802001D01*
X131618804Y-67087433D01*
X131679628Y-67367037D01*
X131679630Y-67367043D01*
X131679631Y-67367046D01*
X131721857Y-67480258D01*
X131779635Y-67635166D01*
X131916770Y-67886309D01*
X131916775Y-67886317D01*
X132088254Y-68115387D01*
X132088270Y-68115405D01*
X132290594Y-68317729D01*
X132290612Y-68317745D01*
X132519682Y-68489224D01*
X132519690Y-68489229D01*
X132770833Y-68626364D01*
X132770832Y-68626364D01*
X132770836Y-68626365D01*
X132770839Y-68626367D01*
X133038954Y-68726369D01*
X133038960Y-68726370D01*
X133038962Y-68726371D01*
X133318566Y-68787195D01*
X133318568Y-68787195D01*
X133318572Y-68787196D01*
X133532552Y-68802500D01*
X133675448Y-68802500D01*
X133889428Y-68787196D01*
X134169046Y-68726369D01*
X134220973Y-68707001D01*
X140426532Y-68707001D01*
X140446364Y-68933686D01*
X140446366Y-68933697D01*
X140505258Y-69153488D01*
X140505261Y-69153497D01*
X140601431Y-69359732D01*
X140601432Y-69359734D01*
X140731954Y-69546141D01*
X140892858Y-69707045D01*
X140892861Y-69707047D01*
X141079266Y-69837568D01*
X141285504Y-69933739D01*
X141505308Y-69992635D01*
X141675214Y-70007499D01*
X141675215Y-70007500D01*
X141675216Y-70007500D01*
X141788785Y-70007500D01*
X141788785Y-70007499D01*
X141958692Y-69992635D01*
X142178496Y-69933739D01*
X142384734Y-69837568D01*
X142571139Y-69707047D01*
X142732047Y-69546139D01*
X142862568Y-69359734D01*
X142958739Y-69153496D01*
X143017635Y-68933692D01*
X143037468Y-68707000D01*
X143017635Y-68480308D01*
X142958739Y-68260504D01*
X142862568Y-68054266D01*
X142732047Y-67867861D01*
X142732045Y-67867858D01*
X142571141Y-67706954D01*
X142384734Y-67576432D01*
X142384732Y-67576431D01*
X142178497Y-67480261D01*
X142178488Y-67480258D01*
X141958697Y-67421366D01*
X141958687Y-67421364D01*
X141788785Y-67406500D01*
X141788784Y-67406500D01*
X141675216Y-67406500D01*
X141675215Y-67406500D01*
X141505312Y-67421364D01*
X141505302Y-67421366D01*
X141285511Y-67480258D01*
X141285502Y-67480261D01*
X141079267Y-67576431D01*
X141079265Y-67576432D01*
X140892858Y-67706954D01*
X140731954Y-67867858D01*
X140601432Y-68054265D01*
X140601431Y-68054267D01*
X140505261Y-68260502D01*
X140505258Y-68260511D01*
X140446366Y-68480302D01*
X140446364Y-68480313D01*
X140426532Y-68706998D01*
X140426532Y-68707001D01*
X134220973Y-68707001D01*
X134437161Y-68626367D01*
X134688315Y-68489226D01*
X134917395Y-68317739D01*
X135119739Y-68115395D01*
X135291226Y-67886315D01*
X135428367Y-67635161D01*
X135528369Y-67367046D01*
X135589196Y-67087428D01*
X135609610Y-66802001D01*
X148616390Y-66802001D01*
X148636804Y-67087433D01*
X148697628Y-67367037D01*
X148697630Y-67367043D01*
X148697631Y-67367046D01*
X148739857Y-67480258D01*
X148797635Y-67635166D01*
X148934770Y-67886309D01*
X148934775Y-67886317D01*
X149106254Y-68115387D01*
X149106270Y-68115405D01*
X149308594Y-68317729D01*
X149308612Y-68317745D01*
X149537682Y-68489224D01*
X149537690Y-68489229D01*
X149788833Y-68626364D01*
X149788832Y-68626364D01*
X149788836Y-68626365D01*
X149788839Y-68626367D01*
X150056954Y-68726369D01*
X150056960Y-68726370D01*
X150056962Y-68726371D01*
X150336566Y-68787195D01*
X150336568Y-68787195D01*
X150336572Y-68787196D01*
X150550552Y-68802500D01*
X150693448Y-68802500D01*
X150907428Y-68787196D01*
X151187046Y-68726369D01*
X151455161Y-68626367D01*
X151706315Y-68489226D01*
X151935395Y-68317739D01*
X152137739Y-68115395D01*
X152309226Y-67886315D01*
X152446367Y-67635161D01*
X152546369Y-67367046D01*
X152607196Y-67087428D01*
X152627610Y-66802000D01*
X152607196Y-66516572D01*
X152546369Y-66236954D01*
X152446367Y-65968839D01*
X152309226Y-65717685D01*
X152309224Y-65717682D01*
X152137745Y-65488612D01*
X152137729Y-65488594D01*
X151935405Y-65286270D01*
X151935387Y-65286254D01*
X151706317Y-65114775D01*
X151706309Y-65114770D01*
X151455166Y-64977635D01*
X151455167Y-64977635D01*
X151347915Y-64937632D01*
X151187046Y-64877631D01*
X151187043Y-64877630D01*
X151187037Y-64877628D01*
X150907433Y-64816804D01*
X150693450Y-64801500D01*
X150693448Y-64801500D01*
X150550552Y-64801500D01*
X150550549Y-64801500D01*
X150336566Y-64816804D01*
X150056962Y-64877628D01*
X149788833Y-64977635D01*
X149537690Y-65114770D01*
X149537682Y-65114775D01*
X149308612Y-65286254D01*
X149308594Y-65286270D01*
X149106270Y-65488594D01*
X149106254Y-65488612D01*
X148934775Y-65717682D01*
X148934770Y-65717690D01*
X148797635Y-65968833D01*
X148697628Y-66236962D01*
X148636804Y-66516566D01*
X148616390Y-66801998D01*
X148616390Y-66802001D01*
X135609610Y-66802001D01*
X135609610Y-66802000D01*
X135589196Y-66516572D01*
X135528369Y-66236954D01*
X135428367Y-65968839D01*
X135291226Y-65717685D01*
X135291224Y-65717682D01*
X135119745Y-65488612D01*
X135119729Y-65488594D01*
X134917405Y-65286270D01*
X134917387Y-65286254D01*
X134688317Y-65114775D01*
X134688309Y-65114770D01*
X134437166Y-64977635D01*
X134437167Y-64977635D01*
X134329915Y-64937632D01*
X134169046Y-64877631D01*
X134169043Y-64877630D01*
X134169037Y-64877628D01*
X133889433Y-64816804D01*
X133675450Y-64801500D01*
X133675448Y-64801500D01*
X133532552Y-64801500D01*
X133532549Y-64801500D01*
X133318566Y-64816804D01*
X133038962Y-64877628D01*
X132770833Y-64977635D01*
X132519690Y-65114770D01*
X132519682Y-65114775D01*
X132290612Y-65286254D01*
X132290594Y-65286270D01*
X132088270Y-65488594D01*
X132088254Y-65488612D01*
X131916775Y-65717682D01*
X131916770Y-65717690D01*
X131779635Y-65968833D01*
X131679628Y-66236962D01*
X131618804Y-66516566D01*
X131598390Y-66801998D01*
X131598390Y-66802001D01*
X129540500Y-66802001D01*
X129540500Y-62989500D01*
X129560185Y-62922461D01*
X129612989Y-62876706D01*
X129664500Y-62865500D01*
X154561226Y-62865500D01*
X154628265Y-62885185D01*
G37*
%TD.AperFunction*%
%TD*%
M02*
